<?xml version="1.0" encoding="utf-8"?>
<!-- Generator: Adobe Illustrator 27.5.0, SVG Export Plug-In . SVG Version: 6.00 Build 0)  -->
<svg version="1.1" id="Layer_1" xmlns="http://www.w3.org/2000/svg" xmlns:xlink="http://www.w3.org/1999/xlink" x="0px" y="0px"
	 viewBox="0 0 1200 1000" style="enable-background:new 0 0 1200 1000;" xml:space="preserve">
<rect style="fill:#FFFFFF;" width="1200" height="1000"/>
<g>
	<g>
		<path style="fill:#59968A;" d="M1150.288,571.47c0,131.591-58.942,250.984-154.721,338.642H204.433
			c-3.285-3.006-6.522-6.047-9.716-9.129c-11.835-11.394-23.053-23.285-33.623-35.643C91.185,783.651,49.712,681.853,49.712,571.47
			c0-19.048,1.237-37.831,3.635-56.306c1.042-7.983,2.3-15.91,3.768-23.767c0.021-0.105,0.035-0.203,0.056-0.308
			C81.21,362.924,161.765,251.667,275.412,178.06c12.205-7.906,24.794-15.378,37.74-22.383
			c83.526-45.261,181.746-71.342,286.851-71.342c272.982,0,499.543,175.965,542.826,406.754c0.021,0.105,0.035,0.203,0.056,0.308
			c1.468,7.857,2.725,15.784,3.767,23.767C1149.05,533.639,1150.288,552.422,1150.288,571.47z"/>
		<g>
			<path style="fill:#FFF1DC;" d="M1142.829,491.089H57.17c5.711-30.443,14.609-59.941,26.388-88.195
				c7.305-17.539,15.721-34.602,25.165-51.127c13.736-24.025,29.66-46.905,47.534-68.434c7.997-9.647,16.392-19.014,25.165-28.094
				c14.812-15.358,30.694-29.891,47.534-43.507c8.165-6.606,16.56-13.002,25.165-19.161c15.197-10.89,31.064-21.075,47.534-30.491
				c8.241-4.726,16.63-9.248,25.165-13.568c15.393-7.815,31.253-14.987,47.534-21.467c8.283-3.306,16.672-6.431,25.165-9.367
				c15.511-5.375,31.365-10.15,47.533-14.274c8.305-2.132,16.7-4.083,25.165-5.865c15.595-3.286,31.456-5.984,47.533-8.06
				c8.332-1.076,16.721-1.992,25.165-2.733c15.658-1.377,31.512-2.174,47.534-2.362c2.516-0.035,5.033-0.049,7.556-0.049
				c5.893,0,11.765,0.084,17.608,0.245c16.029,0.447,31.883,1.496,47.534,3.138c8.451,0.874,16.84,1.929,25.165,3.146
				c16.091,2.349,31.946,5.32,47.533,8.878c8.472,1.936,16.86,4.04,25.165,6.319c16.175,4.439,32.036,9.514,47.534,15.204
				c8.5,3.111,16.888,6.417,25.165,9.898c16.301,6.843,32.161,14.386,47.534,22.578c8.542,4.536,16.93,9.283,25.164,14.232
				c16.505,9.898,32.372,20.579,47.534,31.98c8.618,6.473,17.014,13.184,25.164,20.118c16.924,14.379,32.805,29.715,47.534,45.897
				c8.815,9.668,17.211,19.643,25.165,29.897c18.203,23.431,34.134,48.331,47.533,74.474c9.773,19.048,18.196,38.754,25.165,59.025
				C1133.4,449.421,1138.88,470.028,1142.829,491.089z"/>
		</g>
		<path style="fill:#6ABAAB;" d="M1146.653,515.164H53.347c1.042-7.983,2.3-15.91,3.768-23.767h1085.771
			C1144.353,499.254,1145.611,507.181,1146.653,515.164z"/>
		<ellipse style="fill:#566768;" cx="595.243" cy="910.112" rx="525.665" ry="33.553"/>
	</g>
	<g>
		<g>
			<polygon style="opacity:0.5;fill:#4D5159;" points="795.531,108.319 682.264,108.319 673.438,108.319 671.968,108.319 
				449.845,108.319 439.547,108.319 326.28,108.319 315.983,108.319 315.983,566.568 326.28,566.568 439.547,566.568 
				449.845,566.568 671.968,566.568 673.438,566.568 682.264,566.568 795.531,566.568 805.83,566.568 805.83,108.319 			"/>
			<g>
				<g>
					<g>
						<rect x="334.158" y="108.319" style="fill:#A4A9BC;" width="143.795" height="458.249"/>
						<rect x="466.891" y="108.319" style="fill:#797D8C;" width="11.061" height="458.249"/>
						<rect x="334.158" y="108.319" style="fill:#DFE6F4;" width="11.061" height="458.249"/>
					</g>
					<g>
						<g>
							<path style="fill:#4D5159;" d="M451.09,255.67c0,4.364-3.537,7.901-7.901,7.901h-71.108c-4.364,0-7.9-3.537-7.9-7.901v-3.16
								c0-4.363,3.537-7.901,7.9-7.901h71.108c4.364,0,7.901,3.538,7.901,7.901V255.67z"/>
							<path style="fill:#A4A9BC;" d="M451.09,247.374c0,4.363-3.537,7.9-7.901,7.9h-71.108c-4.364,0-7.9-3.537-7.9-7.9v-3.161
								c0-4.363,3.537-7.901,7.9-7.901h71.108c4.364,0,7.901,3.538,7.901,7.901V247.374z"/>
						</g>
						<g>
							<path style="fill:#4D5159;" d="M451.09,296.759c0,4.364-3.537,7.901-7.901,7.901h-71.108c-4.364,0-7.9-3.538-7.9-7.901v-3.16
								c0-4.363,3.537-7.9,7.9-7.9h71.108c4.364,0,7.901,3.537,7.901,7.9V296.759z"/>
							<path style="fill:#A4A9BC;" d="M451.09,288.463c0,4.364-3.537,7.901-7.901,7.901h-71.108c-4.364,0-7.9-3.537-7.9-7.901
								v-3.161c0-4.364,3.537-7.901,7.9-7.901h71.108c4.364,0,7.901,3.537,7.901,7.901V288.463z"/>
						</g>
						<g>
							<path style="fill:#4D5159;" d="M451.09,336.663c0,4.364-3.537,7.901-7.901,7.901h-71.108c-4.364,0-7.9-3.537-7.9-7.901v-3.16
								c0-4.364,3.537-7.901,7.9-7.901h71.108c4.364,0,7.901,3.537,7.901,7.901V336.663z"/>
							<path style="fill:#A4A9BC;" d="M451.09,328.366c0,4.364-3.537,7.901-7.901,7.901h-71.108c-4.364,0-7.9-3.537-7.9-7.901v-3.16
								c0-4.363,3.537-7.9,7.9-7.9h71.108c4.364,0,7.901,3.537,7.901,7.9V328.366z"/>
						</g>
						<g>
							<path style="fill:#4D5159;" d="M451.09,378.147c0,4.363-3.537,7.901-7.901,7.901h-71.108c-4.364,0-7.9-3.537-7.9-7.901v-3.16
								c0-4.364,3.537-7.901,7.9-7.901h71.108c4.364,0,7.901,3.537,7.901,7.901V378.147z"/>
							<path style="fill:#A4A9BC;" d="M451.09,369.85c0,4.363-3.537,7.901-7.901,7.901h-71.108c-4.364,0-7.9-3.537-7.9-7.901v-3.16
								c0-4.363,3.537-7.901,7.9-7.901h71.108c4.364,0,7.901,3.537,7.901,7.901V369.85z"/>
						</g>
					</g>
					<rect x="345.83" y="430.315" style="fill:#797D8C;" width="130.378" height="8.297"/>
					<g>
						<g>
							<polygon style="fill:#F4A514;" points="372.033,203.426 408.412,140.416 444.791,203.426 							"/>
							<path style="fill:#1C1D21;" d="M447.188,204.81h-77.552l38.776-67.161L447.188,204.81z M374.43,202.042h67.964
								l-33.982-58.858L374.43,202.042z"/>
						</g>
						<polygon style="fill:#1C1D21;" points="408.141,154.907 402.24,177.74 410.534,177.701 407.914,196.588 415.857,174.841 
							406.952,174.771 						"/>
					</g>
				</g>
				<g>
					<g>
						<rect x="716.558" y="108.319" style="fill:#A4A9BC;" width="143.795" height="458.249"/>
						<rect x="716.558" y="108.319" style="fill:#797D8C;" width="11.06" height="458.249"/>
						<rect x="849.291" y="108.319" style="fill:#DFE6F4;" width="11.062" height="458.249"/>
					</g>
					<g>
						<g>
							<path style="fill:#4D5159;" d="M743.42,255.67c0,4.364,3.537,7.901,7.9,7.901h71.108c4.364,0,7.902-3.537,7.902-7.901v-3.16
								c0-4.363-3.538-7.901-7.902-7.901h-71.108c-4.363,0-7.9,3.538-7.9,7.901V255.67z"/>
							<path style="fill:#A4A9BC;" d="M743.42,247.374c0,4.363,3.537,7.9,7.9,7.9h71.108c4.364,0,7.902-3.537,7.902-7.9v-3.161
								c0-4.363-3.538-7.901-7.902-7.901h-71.108c-4.363,0-7.9,3.538-7.9,7.901V247.374z"/>
						</g>
						<g>
							<path style="fill:#4D5159;" d="M743.42,296.759c0,4.364,3.537,7.901,7.9,7.901h71.108c4.364,0,7.902-3.538,7.902-7.901v-3.16
								c0-4.363-3.538-7.9-7.902-7.9h-71.108c-4.363,0-7.9,3.537-7.9,7.9V296.759z"/>
							<path style="fill:#A4A9BC;" d="M743.42,288.463c0,4.364,3.537,7.901,7.9,7.901h71.108c4.364,0,7.902-3.537,7.902-7.901
								v-3.161c0-4.364-3.538-7.901-7.902-7.901h-71.108c-4.363,0-7.9,3.537-7.9,7.901V288.463z"/>
						</g>
						<g>
							<path style="fill:#4D5159;" d="M743.42,336.663c0,4.364,3.537,7.901,7.9,7.901h71.108c4.364,0,7.902-3.537,7.902-7.901v-3.16
								c0-4.364-3.538-7.901-7.902-7.901h-71.108c-4.363,0-7.9,3.537-7.9,7.901V336.663z"/>
							<path style="fill:#A4A9BC;" d="M743.42,328.366c0,4.364,3.537,7.901,7.9,7.901h71.108c4.364,0,7.902-3.537,7.902-7.901v-3.16
								c0-4.363-3.538-7.9-7.902-7.9h-71.108c-4.363,0-7.9,3.537-7.9,7.9V328.366z"/>
						</g>
						<g>
							<path style="fill:#4D5159;" d="M743.42,378.147c0,4.363,3.537,7.901,7.9,7.901h71.108c4.364,0,7.902-3.537,7.902-7.901v-3.16
								c0-4.364-3.538-7.901-7.902-7.901h-71.108c-4.363,0-7.9,3.537-7.9,7.901V378.147z"/>
							<path style="fill:#A4A9BC;" d="M743.42,369.85c0,4.363,3.537,7.901,7.9,7.901h71.108c4.364,0,7.902-3.537,7.902-7.901v-3.16
								c0-4.363-3.538-7.901-7.902-7.901h-71.108c-4.363,0-7.9,3.537-7.9,7.901V369.85z"/>
						</g>
					</g>
					<rect x="718.303" y="430.315" style="fill:#797D8C;" width="130.376" height="8.297"/>
				</g>
				<g>
					<polygon style="fill:#C8CFDF;" points="703.917,125.701 703.917,548.916 492.174,548.916 492.174,125.969 669.153,125.969 
						669.153,125.701 					"/>
					<rect x="492.174" y="125.969" style="fill:#878D99;" width="211.743" height="422.947"/>
					<rect x="669.153" y="125.701" style="fill:#4D5159;" width="34.764" height="423.216"/>
					<polygon style="opacity:0.5;fill:#4D5159;" points="670.732,154.144 492.174,154.144 492.174,125.971 703.917,125.971 					"/>
					<g>
						<g>
							<path style="fill:#435C6D;" d="M559.068,150.596c-19.624,0-39.248,0-58.872,0c-5.045,0-10.088,0-15.133,0
								c-3.23,0-5.925,2.696-5.925,5.926c0,15.307,0,30.615,0,45.923c0,24.074,0,48.148,0,72.223c0,5.108,0,10.216,0,15.325
								c0,3.23,2.695,5.926,5.925,5.926c19.624,0,39.247,0,58.872,0c4.163,0,8.327,0,12.49,0c0.837,0,1.672,0,2.508,0
								c4.664,0,8.801-2.267,11.505-6.008c2.233-3.086,2.456-6.619,2.456-10.225c0-3.16,0-6.319,0-9.479c0-23.904,0-47.808,0-71.711
								c0-9.11,0-18.222,0-27.332c0-2.062,0-4.123,0-6.184C572.894,157.069,567.01,150.864,559.068,150.596
								c-3.23-0.109-5.926,2.777-5.926,5.926c0,3.313,2.698,5.816,5.926,5.926c1.715,0.058-1.099-0.318,0.525,0.071
								c1.534,0.367-0.892-0.542,0.472,0.199c1.365,0.741-0.727-0.748,0.4,0.309c1.129,1.06-0.518-0.913,0.308,0.4
								c0.831,1.318-0.268-1.033,0.2,0.471c0.473,1.522,0.016-1.11,0.071,0.525c0.001,0.029,0,0.057,0,0.086
								c0,0.545,0,1.091,0,1.637c0,2.901,0,5.803,0,8.704c0,10.737,0,21.473,0,32.209c0,22.764,0,45.529,0,68.292
								c0,2.118,0,4.235,0,6.352c0,0.124,0,0.249,0,0.372c0,1.699,0.306-1.032-0.071,0.541c-0.368,1.533,0.542-0.892-0.2,0.472
								c-0.373,0.562-0.36,0.573,0.038,0.031c-0.224,0.254-0.462,0.492-0.715,0.714c0.907-0.851-0.238,0.075-0.479,0.206
								c1.107-0.601-0.258,0.012-0.532,0.078c0.944-0.226,0.418-0.051-0.062-0.051c-0.243,0-0.487,0-0.73,0
								c-8.958,0-17.914,0-26.872,0c-15.453,0-30.905,0-46.358,0c1.975,1.975,3.95,3.95,5.926,5.925c0-15.307,0-30.615,0-45.922
								c0-24.075,0-48.149,0-72.223c0-5.109,0-10.217,0-15.325c-1.975,1.975-3.95,3.95-5.926,5.926c19.624,0,39.247,0,58.872,0
								c5.044,0,10.089,0,15.133,0C566.71,162.447,566.71,150.596,559.068,150.596z"/>
							<path style="fill:#394F5B;" d="M581.193,304.406c-0.057,1.715,0.319-1.098-0.07,0.525c-0.368,1.533,0.542-0.892-0.199,0.471
								c-0.742,1.366,0.747-0.726-0.309,0.401c-1.059,1.129,0.913-0.518-0.4,0.308c-1.318,0.83,1.033-0.269-0.472,0.199
								c-1.523,0.474,1.11,0.016-0.525,0.071c-0.045,0.001-0.089,0-0.134,0c-0.83,0-1.66,0-2.49,0c-4.141,0-8.282,0-12.423,0
								c-12.539,0-25.079,0-37.619,0c-7.424,0-14.847,0-22.271,0c-1.692,0,1.003,0.301-0.549-0.071
								c-1.533-0.367,0.892,0.542-0.471-0.199c-1.366-0.741,0.726,0.748-0.401-0.308c-1.129-1.06,0.518,0.913-0.308-0.401
								c-0.831-1.318,0.269,1.033-0.199-0.471c-0.444-1.43-0.071,1.037-0.071-0.553c0-0.465,0-0.929,0-1.394
								c0-2.768,0-5.536,0-8.305c0-23.524,0-47.048,0-70.572c0-10.01,0-20.02,0-30.029c0-2.261,0-4.523,0-6.783
								c0-0.165,0-0.33,0-0.494c0-0.021,0-0.042,0-0.063c0-1.679-0.309,1.062,0.071-0.525c0.22-0.651,0.205-0.659-0.044-0.024
								c0.152-0.304,0.323-0.596,0.514-0.877c-0.662,1.05,0.206-0.128,0.407-0.316c-0.906,0.851,0.238-0.076,0.479-0.206
								c-1.107,0.601,0.258-0.012,0.532-0.078c-0.491,0.117-0.918,0.052,0.02,0.052c0.174,0,0.348,0,0.522,0
								c20.932,0,41.864,0,62.796,0c3.493,0,6.985,0,10.478,0c0.314,0,0.627,0,0.941,0c0.065,0,0.13,0,0.195,0
								c0.008,0,0.016,0,0.025,0c0.715,0.041,0.721,0.024,0.017-0.052c0.34,0.07,0.675,0.162,1.003,0.276
								c-1.195-0.372,0.166,0.165,0.407,0.316c-1.05-0.662,0.127,0.206,0.316,0.407c-0.851-0.907,0.076,0.237,0.206,0.479
								c-0.602-1.107,0.012,0.258,0.077,0.533c-0.267-1.118-0.051-0.137-0.051,0.227c0,5.985,0,11.97,0,17.954
								c0,24.486,0,48.971,0,73.456C581.193,287.04,581.193,295.722,581.193,304.406c0,7.642,11.852,7.642,11.852,0
								c0-16.529,0-33.06,0-49.589c0-21.484,0-42.967,0-64.451c0-2.112,0.072-4.182-0.284-6.276
								c-1.046-6.152-6.441-10.495-12.471-11.107c-0.822-0.083-1.633-0.072-2.458-0.072c-9.483,0-18.966,0-28.449,0
								c-12.008,0-24.017,0-36.026,0c-2.904,0-5.808,0-8.712,0c-7.743,0-14.214,6.078-14.214,13.938c0,17.537,0,35.074,0,52.612
								c0,20.806,0,41.61,0,62.414c0,3.5,0.191,6.816,2.158,9.94c2.518,3.998,7.062,6.418,11.766,6.418c0.79,0,1.579,0,2.369,0
								c10.162,0,20.324,0,30.485,0c10.969,0,21.939,0,32.908,0c2.806,0,5.611,0,8.417,0c7.955,0,14.238-5.788,14.509-13.827
								c0.109-3.23-2.778-5.926-5.925-5.926C583.806,298.48,581.302,301.179,581.193,304.406z"/>
						</g>
						<g>
							<path style="fill:#394F5B;" d="M667.309,150.596c-19.624,0-39.248,0-58.872,0c-5.044,0-10.088,0-15.133,0
								c-3.23,0-5.926,2.696-5.926,5.926c0,15.307,0,30.615,0,45.923c0,24.074,0,48.148,0,72.223c0,5.108,0,10.216,0,15.325
								c0,3.23,2.695,5.926,5.926,5.926c19.624,0,39.247,0,58.872,0c4.163,0,8.328,0,12.491,0c0.835,0,1.671,0,2.506,0
								c4.665,0,8.802-2.267,11.507-6.008c2.232-3.086,2.456-6.619,2.456-10.225c0-3.16,0-6.319,0-9.479c0-23.904,0-47.808,0-71.711
								c0-9.11,0-18.222,0-27.332c0-2.062,0-4.123,0-6.184C681.137,157.069,675.252,150.864,667.309,150.596
								c-3.229-0.109-5.926,2.777-5.926,5.926c0,3.313,2.698,5.816,5.926,5.926c1.715,0.058-1.099-0.318,0.525,0.071
								c1.532,0.367-0.892-0.542,0.472,0.199c1.365,0.741-0.727-0.748,0.4,0.309c1.128,1.06-0.518-0.913,0.308,0.4
								c0.83,1.318-0.268-1.033,0.198,0.471c0.474,1.522,0.015-1.11,0.07,0.525c0.001,0.029,0,0.057,0,0.086
								c0,0.545,0,1.091,0,1.637c0,2.901,0,5.803,0,8.704c0,10.737,0,21.473,0,32.209c0,22.764,0,45.529,0,68.292
								c0,2.118,0,4.235,0,6.352c0,0.124,0,0.249,0,0.372c0,1.699,0.307-1.032-0.07,0.541c-0.367,1.533,0.542-0.892-0.198,0.472
								c-0.374,0.562-0.361,0.573,0.037,0.031c-0.224,0.254-0.462,0.492-0.716,0.714c0.908-0.851-0.237,0.075-0.478,0.206
								c1.108-0.601-0.258,0.012-0.532,0.078c0.945-0.226,0.418-0.051-0.061-0.051c-0.243,0-0.487,0-0.73,0
								c-8.957,0-17.914,0-26.872,0c-15.453,0-30.906,0-46.358,0c1.975,1.975,3.95,3.95,5.926,5.925c0-15.307,0-30.615,0-45.922
								c0-24.075,0-48.149,0-72.223c0-5.109,0-10.217,0-15.325c-1.975,1.975-3.95,3.95-5.926,5.926c19.624,0,39.247,0,58.872,0
								c5.045,0,10.089,0,15.133,0C674.952,162.447,674.952,150.596,667.309,150.596z"/>
							<path style="fill:#435C6D;" d="M689.435,304.406c-0.059,1.715,0.317-1.098-0.071,0.525c-0.367,1.533,0.541-0.892-0.199,0.471
								c-0.741,1.366,0.747-0.726-0.309,0.401c-1.06,1.129,0.913-0.518-0.4,0.308c-1.319,0.83,1.032-0.269-0.472,0.199
								c-1.522,0.474,1.11,0.016-0.525,0.071c-0.045,0.001-0.088,0-0.134,0c-0.828,0-1.659,0-2.489,0c-4.141,0-8.282,0-12.422,0
								c-12.541,0-25.079,0-37.619,0c-7.424,0-14.847,0-22.271,0c-1.693,0,1.003,0.301-0.55-0.071
								c-1.533-0.367,0.892,0.542-0.471-0.199c-1.365-0.741,0.726,0.748-0.4-0.308c-1.13-1.06,0.518,0.913-0.309-0.401
								c-0.831-1.318,0.269,1.033-0.199-0.471c-0.445-1.43-0.071,1.037-0.071-0.553c0-0.465,0-0.929,0-1.394
								c0-2.768,0-5.536,0-8.305c0-23.524,0-47.048,0-70.572c0-10.01,0-20.02,0-30.029c0-2.261,0-4.523,0-6.783
								c0-0.165,0-0.33,0-0.494c0-0.021,0-0.042,0-0.063c0-1.679-0.309,1.062,0.071-0.525c0.22-0.651,0.205-0.659-0.044-0.024
								c0.152-0.304,0.324-0.596,0.514-0.877c-0.661,1.05,0.207-0.128,0.407-0.316c-0.907,0.851,0.238-0.076,0.478-0.206
								c-1.106,0.601,0.258-0.012,0.532-0.078c-0.491,0.117-0.918,0.052,0.02,0.052c0.174,0,0.348,0,0.522,0
								c20.933,0,41.864,0,62.797,0c3.493,0,6.985,0,10.477,0c0.313,0,0.628,0,0.942,0c0.064,0,0.129,0,0.195,0
								c0.008,0,0.015,0,0.024,0c0.716,0.041,0.721,0.024,0.017-0.052c0.34,0.07,0.674,0.162,1.002,0.276
								c-1.196-0.372,0.166,0.165,0.407,0.316c-1.05-0.662,0.128,0.206,0.316,0.407c-0.85-0.907,0.074,0.237,0.206,0.479
								c-0.602-1.107,0.012,0.258,0.077,0.533c-0.267-1.118-0.049-0.137-0.049,0.227c0,5.985,0,11.97,0,17.954
								c0,24.486,0,48.971,0,73.456C689.435,287.04,689.435,295.722,689.435,304.406c0,7.642,11.85,7.642,11.85,0
								c0-16.529,0-33.06,0-49.589c0-21.484,0-42.967,0-64.451c0-2.112,0.073-4.182-0.283-6.276
								c-1.046-6.152-6.44-10.495-12.47-11.107c-0.823-0.083-1.634-0.072-2.458-0.072c-9.483,0-18.966,0-28.45,0
								c-12.008,0-24.016,0-36.026,0c-2.904,0-5.808,0-8.712,0c-7.743,0-14.214,6.078-14.214,13.938c0,17.537,0,35.074,0,52.612
								c0,20.806,0,41.61,0,62.414c0,3.5,0.191,6.816,2.158,9.94c2.517,3.998,7.062,6.418,11.767,6.418c0.79,0,1.579,0,2.369,0
								c10.161,0,20.324,0,30.485,0c10.969,0,21.939,0,32.908,0c2.806,0,5.611,0,8.418,0c7.954,0,14.236-5.788,14.507-13.827
								c0.109-3.23-2.778-5.926-5.926-5.926C692.048,298.48,689.543,301.179,689.435,304.406z"/>
						</g>
					</g>
					<g>
						<rect x="532.863" y="196.809" style="fill:#131414;" width="94.81" height="351.982"/>
						<rect x="542.344" y="196.809" style="fill:#282A2B;" width="94.81" height="351.982"/>
					</g>
					<path style="fill:#FFFFFF;" d="M530.429,557.219c-0.373,0-0.746-0.016-1.117-0.049c-5.355-0.466-10.029-4.189-13.517-10.767
						c-6.223-11.734-7.203-28.421-7.99-41.828c-0.074-1.263-0.147-2.502-0.223-3.709c-1.169-18.727-1.587-38.035,3.22-52.399
						l2.247,0.753c-4.677,13.977-4.255,33.011-3.101,51.499c0.076,1.21,0.148,2.451,0.223,3.717
						c0.774,13.178,1.737,29.578,7.718,40.857c3.093,5.831,7.114,9.122,11.628,9.515c4.736,0.41,9.721-2.421,14.043-7.977
						c10.292-13.227,12.299-35.676,13.764-52.067l0.018-0.205c1.605-17.941,2.384-33.929,2.384-48.876h2.37
						c0,15.019-0.782,31.075-2.392,49.088l-0.018,0.204c-1.492,16.685-3.534,39.536-14.255,53.313
						C540.921,554.085,535.635,557.219,530.429,557.219z"/>
					<g>
						<path style="fill:#75DB75;" d="M638.36,470.034l-1.919-3.454c20.337-11.296,20.328-27.316,20.32-45.867l-0.003-32.353
							c-0.005-51.529-0.016-147.446,0.001-158.714c0.015-8.591-0.402-17.363-5.558-21.952c-3.225-2.869-8.052-3.878-14.753-3.085
							l-0.464-3.923c7.78-0.92,13.783,0.444,17.843,4.057c6.381,5.68,6.9,15.42,6.884,24.909
							c-0.019,11.265-0.008,107.179-0.003,158.707l0.003,32.351c0.005,9.484,0.01,18.441-2.753,26.861
							C654.827,457.101,648.418,464.448,638.36,470.034z"/>
						<path style="fill:#FF1717;" d="M638.36,491.089l-1.919-3.454c20.337-11.294,20.328-27.315,20.32-45.866l-0.003-32.354
							c-0.005-51.529-0.016-147.445,0.001-158.714c0.015-8.591-0.402-17.362-5.558-21.952c-3.225-2.87-8.052-3.878-14.753-3.085
							l-0.464-3.923c7.78-0.92,13.783,0.443,17.843,4.057c6.381,5.679,6.9,15.419,6.884,24.908
							c-0.019,11.265-0.008,107.179-0.003,158.707l0.003,32.351c0.005,9.484,0.01,18.441-2.753,26.86
							C654.827,478.156,648.418,485.504,638.36,491.089z"/>
						<path style="fill:#091E96;" d="M637.549,542.865l-0.395-4.74c20.368-11.798,25.563-31.002,25.553-50.386l-0.003-33.74
							c-0.005-53.738-0.015-153.766,0.003-165.517c0.014-9.114-0.42-18.41-5.79-23.164c-3.216-2.849-7.964-3.84-14.512-3.032
							l-0.485-3.92c7.632-0.944,13.559,0.401,17.616,3.994c6.6,5.845,7.136,16.112,7.121,26.128
							c-0.018,11.748-0.008,111.773-0.003,165.51l0.003,33.739c0.006,9.876,0.01,19.205-2.747,27.961
							C660.789,525.611,647.598,537.045,637.549,542.865z"/>
						<path style="fill:#FFEF5C;" d="M632.829,556.7l-1.918-3.454c20.338-11.295,20.329-27.316,20.319-45.866l-0.003-32.354
							c-0.005-51.529-0.015-147.446,0.002-158.714c0.015-8.591-0.403-17.362-5.56-21.952c-3.224-2.869-8.049-3.877-14.752-3.085
							l-0.464-3.922c7.78-0.922,13.783,0.443,17.843,4.057c6.38,5.679,6.899,15.419,6.884,24.908
							c-0.019,11.265-0.008,107.179-0.003,158.708l0.003,32.351c0.005,9.483,0.01,18.441-2.754,26.86
							C649.297,543.767,642.887,551.113,632.829,556.7z"/>
						<path style="fill:#FFFFFF;" d="M637.186,502.283l-1.151-2.072c20.744-11.521,20.734-28.54,20.726-46.558l-0.003-32.353
							c-0.005-51.53-0.016-147.445,0.001-158.712c0.015-8.77-0.423-17.736-5.823-22.543c-3.402-3.029-8.432-4.102-15.37-3.28
							l-0.279-2.354c7.652-0.905,13.286,0.357,17.225,3.863c6.135,5.462,6.633,15.007,6.619,24.318
							c-0.02,11.265-0.009,107.18-0.004,158.708l0.004,32.352C659.141,472.388,659.15,490.084,637.186,502.283z"/>
					</g>
					<path style="fill:#FFFFFF;" d="M623.66,546.948c-0.374,0-0.746-0.016-1.118-0.049c-5.355-0.466-10.028-4.188-13.516-10.766
						c-6.223-11.734-7.203-28.421-7.991-41.828c-0.073-1.263-0.147-2.501-0.222-3.71c-1.168-18.727-1.587-38.035,3.22-52.398
						l2.247,0.752c-4.677,13.978-4.255,33.012-3.101,51.499c0.076,1.211,0.148,2.452,0.222,3.718
						c0.774,13.178,1.738,29.578,7.719,40.856c3.093,5.832,7.114,9.123,11.628,9.516c4.735,0.411,9.72-2.421,14.042-7.976
						c10.292-13.226,12.299-35.675,13.764-52.068l0.019-0.205c1.604-17.941,2.383-33.929,2.383-48.876h2.371
						c0,15.019-0.783,31.075-2.393,49.088l-0.02,0.204c-1.49,16.685-3.532,39.535-14.253,53.313
						C634.151,543.813,628.864,546.948,623.66,546.948z"/>
					<path style="fill:#FFFFFF;" d="M533.594,544.577c-0.432,0.001-0.862-0.018-1.292-0.057c-5.26-0.478-9.865-3.802-13.318-9.613
						c-6.247-10.515-7.229-25.438-8.018-37.429c-0.074-1.127-0.147-2.233-0.222-3.311c-1.171-16.742-1.589-34.007,3.233-46.867
						l2.219,0.832c-5.305,14.15-3.808,35.575-3.088,45.871c0.076,1.08,0.149,2.189,0.223,3.319
						c0.773,11.739,1.734,26.349,7.691,36.375c3.048,5.131,7.023,8.058,11.495,8.463c4.811,0.434,9.87-2.089,14.246-7.108
						c10.258-11.768,12.261-31.768,13.724-46.371l0.018-0.182c1.604-16.007,2.383-30.271,2.383-43.604h2.37
						c0,13.414-0.783,27.754-2.394,43.84l-0.019,0.182c-1.494,14.92-3.541,35.355-14.295,47.692
						C544.036,541.786,538.772,544.577,533.594,544.577z"/>
					<g>
						<g>
							<g>
								<path style="fill:#3F4142;" d="M576.955,198.985v12.661c0,3.993-3.238,7.234-7.234,7.234h-62.575
									c-3.992,0-7.233-3.241-7.233-7.234v-12.661c0-3.996,3.241-7.233,7.233-7.233h62.575
									C573.717,191.751,576.955,194.988,576.955,198.985z"/>
								<path style="fill:#616566;" d="M576.955,198.985v12.661c0,3.993-3.238,7.234-7.234,7.234h-51.725
									c-3.993,0-7.233-3.241-7.233-7.234v-12.661c0-3.996,3.24-7.233,7.233-7.233h51.725
									C573.717,191.751,576.955,194.988,576.955,198.985z"/>
							</g>
							<g>
								<rect x="520.675" y="199.335" style="fill:#3F4142;" width="46.293" height="10.127"/>
								<polygon style="opacity:0.5;fill:#4D5159;" points="534.841,214.224 529.657,214.224 529.657,209.402 540.266,209.402 
																	"/>
								<rect x="562.99" y="199.335" style="fill:#C8CFDF;" width="3.978" height="10.127"/>
								<g>
									<rect x="529.717" y="199.335" style="fill:#AE4647;" width="7.234" height="10.127"/>
									<rect x="532.972" y="199.335" style="fill:#F9644E;" width="7.234" height="10.127"/>
								</g>
							</g>
						</g>
						<g>
							<g>
								<path style="fill:#3F4142;" d="M576.955,229.204v12.661c0,3.993-3.238,7.234-7.234,7.234h-62.575
									c-3.992,0-7.233-3.24-7.233-7.234v-12.661c0-3.997,3.241-7.233,7.233-7.233h62.575
									C573.717,221.971,576.955,225.207,576.955,229.204z"/>
								<path style="fill:#616566;" d="M576.955,229.204v12.661c0,3.993-3.238,7.234-7.234,7.234h-51.725
									c-3.993,0-7.233-3.24-7.233-7.234v-12.661c0-3.997,3.24-7.233,7.233-7.233h51.725
									C573.717,221.971,576.955,225.207,576.955,229.204z"/>
							</g>
							<g>
								<rect x="520.675" y="229.555" style="fill:#3F4142;" width="46.293" height="10.126"/>
								<polygon style="opacity:0.5;fill:#4D5159;" points="534.841,244.443 529.657,244.443 529.657,239.621 540.266,239.621 
																	"/>
								<rect x="562.99" y="229.555" style="fill:#C8CFDF;" width="3.978" height="10.126"/>
								<g>
									<rect x="529.717" y="229.555" style="fill:#AE4647;" width="7.234" height="10.126"/>
									<rect x="532.972" y="229.555" style="fill:#F9644E;" width="7.234" height="10.126"/>
								</g>
							</g>
						</g>
						<g>
							<g>
								<path style="fill:#3F4142;" d="M576.955,259.423v12.661c0,3.993-3.238,7.233-7.234,7.233h-62.575
									c-3.992,0-7.233-3.241-7.233-7.233v-12.661c0-3.997,3.241-7.234,7.233-7.234h62.575
									C573.717,252.19,576.955,255.427,576.955,259.423z"/>
								<path style="fill:#616566;" d="M576.955,259.423v12.661c0,3.993-3.238,7.233-7.234,7.233h-51.725
									c-3.993,0-7.233-3.241-7.233-7.233v-12.661c0-3.997,3.24-7.234,7.233-7.234h51.725
									C573.717,252.19,576.955,255.427,576.955,259.423z"/>
							</g>
							<g>
								<rect x="520.675" y="259.773" style="fill:#3F4142;" width="46.293" height="10.127"/>
								<polygon style="opacity:0.5;fill:#4D5159;" points="548.122,274.662 542.938,274.662 542.938,269.84 553.547,269.84 
																	"/>
								<rect x="562.99" y="259.773" style="fill:#C8CFDF;" width="3.978" height="10.127"/>
								<g>
									<rect x="542.999" y="259.773" style="fill:#A5A246;" width="7.234" height="10.127"/>
									<rect x="546.254" y="259.773" style="fill:#FFFF8D;" width="7.234" height="10.127"/>
								</g>
							</g>
						</g>
						<g>
							<g>
								<path style="fill:#3F4142;" d="M576.955,289.643v12.661c0,3.993-3.238,7.234-7.234,7.234h-62.575
									c-3.992,0-7.233-3.241-7.233-7.234v-12.661c0-3.997,3.241-7.234,7.233-7.234h62.575
									C573.717,282.409,576.955,285.645,576.955,289.643z"/>
								<path style="fill:#616566;" d="M576.955,289.643v12.661c0,3.993-3.238,7.234-7.234,7.234h-51.725
									c-3.993,0-7.233-3.241-7.233-7.234v-12.661c0-3.997,3.24-7.234,7.233-7.234h51.725
									C573.717,282.409,576.955,285.645,576.955,289.643z"/>
							</g>
							<g>
								<rect x="520.675" y="289.992" style="fill:#3F4142;" width="46.293" height="10.127"/>
								<polygon style="opacity:0.5;fill:#4D5159;" points="534.841,304.882 529.657,304.882 529.657,300.059 540.266,300.059 
																	"/>
								<rect x="562.99" y="289.992" style="fill:#C8CFDF;" width="3.978" height="10.127"/>
								<g>
									<rect x="529.717" y="289.992" style="fill:#AE4647;" width="7.234" height="10.127"/>
									<rect x="532.972" y="289.992" style="fill:#F9644E;" width="7.234" height="10.127"/>
								</g>
							</g>
						</g>
						<g>
							<g>
								<path style="fill:#3F4142;" d="M576.955,319.862v12.661c0,3.992-3.238,7.233-7.234,7.233h-62.575
									c-3.992,0-7.233-3.241-7.233-7.233v-12.661c0-3.997,3.241-7.233,7.233-7.233h62.575
									C573.717,312.628,576.955,315.865,576.955,319.862z"/>
								<path style="fill:#616566;" d="M576.955,319.862v12.661c0,3.992-3.238,7.233-7.234,7.233h-51.725
									c-3.993,0-7.233-3.241-7.233-7.233v-12.661c0-3.997,3.24-7.233,7.233-7.233h51.725
									C573.717,312.628,576.955,315.865,576.955,319.862z"/>
							</g>
							<g>
								<rect x="520.675" y="320.211" style="fill:#3F4142;" width="46.293" height="10.127"/>
								<polygon style="opacity:0.5;fill:#4D5159;" points="534.841,335.1 529.657,335.1 529.657,330.278 540.266,330.278 								
									"/>
								<rect x="562.99" y="320.211" style="fill:#C8CFDF;" width="3.978" height="10.127"/>
								<g>
									<rect x="529.717" y="320.211" style="fill:#AE4647;" width="7.234" height="10.127"/>
									<rect x="532.972" y="320.211" style="fill:#F9644E;" width="7.234" height="10.127"/>
								</g>
							</g>
						</g>
						<g>
							<g>
								<path style="fill:#3F4142;" d="M576.955,350.08v12.661c0,3.993-3.238,7.233-7.234,7.233h-62.575
									c-3.992,0-7.233-3.24-7.233-7.233V350.08c0-3.996,3.241-7.233,7.233-7.233h62.575
									C573.717,342.847,576.955,346.084,576.955,350.08z"/>
								<path style="fill:#616566;" d="M576.955,350.08v12.661c0,3.993-3.238,7.233-7.234,7.233h-51.725
									c-3.993,0-7.233-3.24-7.233-7.233V350.08c0-3.996,3.24-7.233,7.233-7.233h51.725
									C573.717,342.847,576.955,346.084,576.955,350.08z"/>
							</g>
							<g>
								<rect x="520.675" y="350.431" style="fill:#3F4142;" width="46.293" height="10.126"/>
								<polygon style="opacity:0.5;fill:#4D5159;" points="550.219,365.32 545.036,365.32 545.036,360.497 555.644,360.497 
																	"/>
								<rect x="562.99" y="350.431" style="fill:#C8CFDF;" width="3.978" height="10.126"/>
								<g>
									<rect x="545.096" y="350.431" style="fill:#A5A246;" width="7.233" height="10.126"/>
									<rect x="548.351" y="350.431" style="fill:#FFFF8D;" width="7.234" height="10.126"/>
								</g>
							</g>
						</g>
						<g>
							<g>
								<path style="fill:#3F4142;" d="M576.955,380.299v12.662c0,3.993-3.238,7.233-7.234,7.233h-62.575
									c-3.992,0-7.233-3.24-7.233-7.233v-12.662c0-3.997,3.241-7.233,7.233-7.233h62.575
									C573.717,373.067,576.955,376.303,576.955,380.299z"/>
								<path style="fill:#616566;" d="M576.955,380.299v12.662c0,3.993-3.238,7.233-7.234,7.233h-51.725
									c-3.993,0-7.233-3.24-7.233-7.233v-12.662c0-3.997,3.24-7.233,7.233-7.233h51.725
									C573.717,373.067,576.955,376.303,576.955,380.299z"/>
							</g>
							<g>
								<rect x="520.675" y="380.65" style="fill:#3F4142;" width="46.293" height="10.126"/>
								<polygon style="opacity:0.5;fill:#4D5159;" points="534.841,395.539 529.657,395.539 529.657,390.716 540.266,390.716 
																	"/>
								<rect x="562.99" y="380.65" style="fill:#C8CFDF;" width="3.978" height="10.126"/>
								<g>
									<rect x="529.717" y="380.65" style="fill:#AE4647;" width="7.234" height="10.126"/>
									<rect x="532.972" y="380.65" style="fill:#F9644E;" width="7.234" height="10.126"/>
								</g>
							</g>
						</g>
						<g>
							<g>
								<path style="fill:#3F4142;" d="M576.955,410.519v12.661c0,3.993-3.238,7.234-7.234,7.234h-62.575
									c-3.992,0-7.233-3.241-7.233-7.234v-12.661c0-3.997,3.241-7.233,7.233-7.233h62.575
									C573.717,403.285,576.955,406.522,576.955,410.519z"/>
								<path style="fill:#616566;" d="M576.955,410.519v12.661c0,3.993-3.238,7.234-7.234,7.234h-51.725
									c-3.993,0-7.233-3.241-7.233-7.234v-12.661c0-3.997,3.24-7.233,7.233-7.233h51.725
									C573.717,403.285,576.955,406.522,576.955,410.519z"/>
							</g>
							<g>
								<rect x="520.675" y="410.869" style="fill:#3F4142;" width="46.293" height="10.127"/>
								<polygon style="opacity:0.5;fill:#4D5159;" points="534.841,425.758 529.657,425.758 529.657,420.936 540.266,420.936 
																	"/>
								<rect x="562.99" y="410.869" style="fill:#C8CFDF;" width="3.978" height="10.127"/>
								<g>
									<rect x="529.717" y="410.869" style="fill:#AE4647;" width="7.234" height="10.127"/>
									<rect x="532.972" y="410.869" style="fill:#F9644E;" width="7.234" height="10.127"/>
								</g>
							</g>
						</g>
						<g>
							<g>
								<path style="fill:#3F4142;" d="M576.955,440.738V453.4c0,3.993-3.238,7.233-7.234,7.233h-62.575
									c-3.992,0-7.233-3.241-7.233-7.233v-12.662c0-3.997,3.241-7.233,7.233-7.233h62.575
									C573.717,433.504,576.955,436.741,576.955,440.738z"/>
								<path style="fill:#616566;" d="M576.955,440.738V453.4c0,3.993-3.238,7.233-7.234,7.233h-51.725
									c-3.993,0-7.233-3.241-7.233-7.233v-12.662c0-3.997,3.24-7.233,7.233-7.233h51.725
									C573.717,433.504,576.955,436.741,576.955,440.738z"/>
							</g>
							<g>
								<rect x="520.675" y="441.088" style="fill:#3F4142;" width="46.293" height="10.127"/>
								<polygon style="opacity:0.5;fill:#4D5159;" points="534.841,455.977 529.657,455.977 529.657,451.155 540.266,451.155 
																	"/>
								<rect x="562.99" y="441.088" style="fill:#C8CFDF;" width="3.978" height="10.127"/>
								<g>
									<rect x="529.717" y="441.088" style="fill:#AE4647;" width="7.234" height="10.127"/>
									<rect x="532.972" y="441.088" style="fill:#F9644E;" width="7.234" height="10.127"/>
								</g>
							</g>
						</g>
						<g>
							<g>
								<path style="fill:#3F4142;" d="M576.955,470.957v12.662c0,3.993-3.238,7.233-7.234,7.233h-62.575
									c-3.992,0-7.233-3.24-7.233-7.233v-12.662c0-3.997,3.241-7.233,7.233-7.233h62.575
									C573.717,463.724,576.955,466.96,576.955,470.957z"/>
								<path style="fill:#616566;" d="M576.955,470.957v12.662c0,3.993-3.238,7.233-7.234,7.233h-51.725
									c-3.993,0-7.233-3.24-7.233-7.233v-12.662c0-3.997,3.24-7.233,7.233-7.233h51.725
									C573.717,463.724,576.955,466.96,576.955,470.957z"/>
							</g>
							<g>
								<rect x="520.675" y="471.307" style="fill:#3F4142;" width="46.293" height="10.127"/>
								<polygon style="opacity:0.5;fill:#4D5159;" points="548.821,486.197 543.637,486.197 543.637,481.374 554.246,481.374 
																	"/>
								<rect x="562.99" y="471.307" style="fill:#C8CFDF;" width="3.978" height="10.127"/>
								<g>
									<rect x="543.698" y="471.307" style="fill:#A5A246;" width="7.233" height="10.127"/>
									<rect x="546.953" y="471.307" style="fill:#FFFF8D;" width="7.234" height="10.127"/>
								</g>
							</g>
						</g>
						<g>
							<g>
								<path style="fill:#3F4142;" d="M576.955,501.176v12.662c0,3.993-3.238,7.234-7.234,7.234h-62.575
									c-3.992,0-7.233-3.24-7.233-7.234v-12.662c0-3.996,3.241-7.233,7.233-7.233h62.575
									C573.717,493.943,576.955,497.18,576.955,501.176z"/>
								<path style="fill:#616566;" d="M576.955,501.176v12.662c0,3.993-3.238,7.234-7.234,7.234h-51.725
									c-3.993,0-7.233-3.24-7.233-7.234v-12.662c0-3.996,3.24-7.233,7.233-7.233h51.725
									C573.717,493.943,576.955,497.18,576.955,501.176z"/>
							</g>
							<g>
								<rect x="520.675" y="501.527" style="fill:#3F4142;" width="46.293" height="10.127"/>
								<polygon style="opacity:0.5;fill:#4D5159;" points="534.841,516.416 529.657,516.416 529.657,511.593 540.266,511.593 
																	"/>
								<rect x="562.99" y="501.527" style="fill:#C8CFDF;" width="3.978" height="10.127"/>
								<g>
									<rect x="529.717" y="501.527" style="fill:#AE4647;" width="7.234" height="10.127"/>
									<rect x="532.972" y="501.527" style="fill:#F9644E;" width="7.234" height="10.127"/>
								</g>
							</g>
						</g>
					</g>
					<g>
						<g>
							<g>
								<path style="fill:#3F4142;" d="M648.86,198.985v12.661c0,3.993-2.572,7.234-5.749,7.234h-49.74
									c-3.174,0-5.75-3.241-5.75-7.234v-12.661c0-3.996,2.576-7.233,5.75-7.233h49.74
									C646.288,191.751,648.86,194.988,648.86,198.985z"/>
								<path style="fill:#616566;" d="M648.86,198.985v12.661c0,3.993-2.572,7.234-5.749,7.234h-41.116
									c-3.174,0-5.75-3.241-5.75-7.234v-12.661c0-3.996,2.577-7.233,5.75-7.233h41.116
									C646.288,191.751,648.86,194.988,648.86,198.985z"/>
							</g>
							<g>
								<rect x="604.125" y="199.335" style="fill:#3F4142;" width="36.798" height="10.127"/>
								<polygon style="opacity:0.5;fill:#4D5159;" points="615.385,214.224 611.265,214.224 611.265,209.402 619.697,209.402 
																	"/>
								<rect x="637.761" y="199.335" style="fill:#C8CFDF;" width="3.162" height="10.127"/>
								<g>
									<rect x="611.313" y="199.335" style="fill:#AE4647;" width="5.749" height="10.127"/>
									<rect x="613.9" y="199.335" style="fill:#F9644E;" width="5.748" height="10.127"/>
								</g>
							</g>
						</g>
						<g>
							<g>
								<path style="fill:#3F4142;" d="M648.86,229.204v12.661c0,3.993-2.572,7.234-5.749,7.234h-49.74
									c-3.174,0-5.75-3.24-5.75-7.234v-12.661c0-3.997,2.576-7.233,5.75-7.233h49.74
									C646.288,221.971,648.86,225.207,648.86,229.204z"/>
								<path style="fill:#616566;" d="M648.86,229.204v12.661c0,3.993-2.572,7.234-5.749,7.234h-41.116
									c-3.174,0-5.75-3.24-5.75-7.234v-12.661c0-3.997,2.577-7.233,5.75-7.233h41.116
									C646.288,221.971,648.86,225.207,648.86,229.204z"/>
							</g>
							<g>
								<rect x="604.125" y="229.555" style="fill:#3F4142;" width="36.798" height="10.126"/>
								<polygon style="opacity:0.5;fill:#4D5159;" points="615.385,244.443 611.265,244.443 611.265,239.621 619.697,239.621 
																	"/>
								<rect x="637.761" y="229.555" style="fill:#C8CFDF;" width="3.162" height="10.126"/>
								<g>
									<rect x="611.313" y="229.555" style="fill:#AE4647;" width="5.749" height="10.126"/>
									<rect x="613.9" y="229.555" style="fill:#F9644E;" width="5.748" height="10.126"/>
								</g>
							</g>
						</g>
						<g>
							<g>
								<path style="fill:#3F4142;" d="M648.86,259.423v12.661c0,3.993-2.572,7.233-5.749,7.233h-49.74
									c-3.174,0-5.75-3.241-5.75-7.233v-12.661c0-3.997,2.576-7.234,5.75-7.234h49.74
									C646.288,252.19,648.86,255.427,648.86,259.423z"/>
								<path style="fill:#616566;" d="M648.86,259.423v12.661c0,3.993-2.572,7.233-5.749,7.233h-41.116
									c-3.174,0-5.75-3.241-5.75-7.233v-12.661c0-3.997,2.577-7.234,5.75-7.234h41.116
									C646.288,252.19,648.86,255.427,648.86,259.423z"/>
							</g>
							<g>
								<rect x="604.125" y="259.773" style="fill:#3F4142;" width="36.798" height="10.127"/>
								<polygon style="opacity:0.5;fill:#4D5159;" points="615.385,274.662 611.265,274.662 611.265,269.84 619.697,269.84 
																	"/>
								<rect x="637.761" y="259.773" style="fill:#C8CFDF;" width="3.162" height="10.127"/>
								<g>
									<rect x="611.313" y="259.773" style="fill:#AE4647;" width="5.749" height="10.127"/>
									<rect x="613.9" y="259.773" style="fill:#F9644E;" width="5.748" height="10.127"/>
								</g>
							</g>
						</g>
						<g>
							<g>
								<path style="fill:#3F4142;" d="M648.86,289.643v12.661c0,3.993-2.572,7.234-5.749,7.234h-49.74
									c-3.174,0-5.75-3.241-5.75-7.234v-12.661c0-3.997,2.576-7.234,5.75-7.234h49.74
									C646.288,282.409,648.86,285.645,648.86,289.643z"/>
								<path style="fill:#616566;" d="M648.86,289.643v12.661c0,3.993-2.572,7.234-5.749,7.234h-41.116
									c-3.174,0-5.75-3.241-5.75-7.234v-12.661c0-3.997,2.577-7.234,5.75-7.234h41.116
									C646.288,282.409,648.86,285.645,648.86,289.643z"/>
							</g>
							<g>
								<rect x="604.125" y="289.992" style="fill:#3F4142;" width="36.798" height="10.127"/>
								<polygon style="opacity:0.5;fill:#4D5159;" points="615.385,304.882 611.265,304.882 611.265,300.059 619.697,300.059 
																	"/>
								<rect x="637.761" y="289.992" style="fill:#C8CFDF;" width="3.162" height="10.127"/>
								<g>
									<rect x="611.313" y="289.992" style="fill:#AE4647;" width="5.749" height="10.127"/>
									<rect x="613.9" y="289.992" style="fill:#F9644E;" width="5.748" height="10.127"/>
								</g>
							</g>
						</g>
						<g>
							<g>
								<path style="fill:#3F4142;" d="M648.86,319.862v12.661c0,3.992-2.572,7.233-5.749,7.233h-49.74
									c-3.174,0-5.75-3.241-5.75-7.233v-12.661c0-3.997,2.576-7.233,5.75-7.233h49.74
									C646.288,312.628,648.86,315.865,648.86,319.862z"/>
								<path style="fill:#616566;" d="M648.86,319.862v12.661c0,3.992-2.572,7.233-5.749,7.233h-41.116
									c-3.174,0-5.75-3.241-5.75-7.233v-12.661c0-3.997,2.577-7.233,5.75-7.233h41.116
									C646.288,312.628,648.86,315.865,648.86,319.862z"/>
							</g>
							<g>
								<rect x="604.125" y="320.211" style="fill:#3F4142;" width="36.798" height="10.127"/>
								<polygon style="opacity:0.5;fill:#4D5159;" points="628.666,335.1 624.546,335.1 624.546,330.278 632.979,330.278 								
									"/>
								<rect x="637.761" y="320.211" style="fill:#C8CFDF;" width="3.162" height="10.127"/>
								<g>
									<rect x="624.594" y="320.211" style="fill:#A5A246;" width="5.749" height="10.127"/>
									<rect x="627.182" y="320.211" style="fill:#FFFF8D;" width="5.748" height="10.127"/>
								</g>
							</g>
						</g>
						<g>
							<g>
								<path style="fill:#3F4142;" d="M648.86,350.08v12.661c0,3.993-2.572,7.233-5.749,7.233h-49.74
									c-3.174,0-5.75-3.24-5.75-7.233V350.08c0-3.996,2.576-7.233,5.75-7.233h49.74C646.288,342.847,648.86,346.084,648.86,350.08
									z"/>
								<path style="fill:#616566;" d="M648.86,350.08v12.661c0,3.993-2.572,7.233-5.749,7.233h-41.116
									c-3.174,0-5.75-3.24-5.75-7.233V350.08c0-3.996,2.577-7.233,5.75-7.233h41.116
									C646.288,342.847,648.86,346.084,648.86,350.08z"/>
							</g>
							<g>
								<rect x="604.125" y="350.431" style="fill:#3F4142;" width="36.798" height="10.126"/>
								<polygon style="opacity:0.5;fill:#4D5159;" points="615.385,365.32 611.265,365.32 611.265,360.497 619.697,360.497 
																	"/>
								<rect x="637.761" y="350.431" style="fill:#C8CFDF;" width="3.162" height="10.126"/>
								<g>
									<rect x="611.313" y="350.431" style="fill:#AE4647;" width="5.749" height="10.126"/>
									<rect x="613.9" y="350.431" style="fill:#F9644E;" width="5.748" height="10.126"/>
								</g>
							</g>
						</g>
						<g>
							<g>
								<path style="fill:#3F4142;" d="M648.86,380.299v12.662c0,3.993-2.572,7.233-5.749,7.233h-49.74
									c-3.174,0-5.75-3.24-5.75-7.233v-12.662c0-3.997,2.576-7.233,5.75-7.233h49.74
									C646.288,373.067,648.86,376.303,648.86,380.299z"/>
								<path style="fill:#616566;" d="M648.86,380.299v12.662c0,3.993-2.572,7.233-5.749,7.233h-41.116
									c-3.174,0-5.75-3.24-5.75-7.233v-12.662c0-3.997,2.577-7.233,5.75-7.233h41.116
									C646.288,373.067,648.86,376.303,648.86,380.299z"/>
							</g>
							<g>
								<rect x="604.125" y="380.65" style="fill:#3F4142;" width="36.798" height="10.126"/>
								<polygon style="opacity:0.5;fill:#4D5159;" points="615.385,395.539 611.265,395.539 611.265,390.716 619.697,390.716 
																	"/>
								<rect x="637.761" y="380.65" style="fill:#C8CFDF;" width="3.162" height="10.126"/>
								<g>
									<rect x="611.313" y="380.65" style="fill:#AE4647;" width="5.749" height="10.126"/>
									<rect x="613.9" y="380.65" style="fill:#F9644E;" width="5.748" height="10.126"/>
								</g>
							</g>
						</g>
						<g>
							<g>
								<path style="fill:#3F4142;" d="M648.86,410.519v12.661c0,3.993-2.572,7.234-5.749,7.234h-49.74
									c-3.174,0-5.75-3.241-5.75-7.234v-12.661c0-3.997,2.576-7.233,5.75-7.233h49.74
									C646.288,403.285,648.86,406.522,648.86,410.519z"/>
								<path style="fill:#616566;" d="M648.86,410.519v12.661c0,3.993-2.572,7.234-5.749,7.234h-41.116
									c-3.174,0-5.75-3.241-5.75-7.234v-12.661c0-3.997,2.577-7.233,5.75-7.233h41.116
									C646.288,403.285,648.86,406.522,648.86,410.519z"/>
							</g>
							<g>
								<rect x="604.125" y="410.869" style="fill:#3F4142;" width="36.798" height="10.127"/>
								<polygon style="opacity:0.5;fill:#4D5159;" points="615.385,425.758 611.265,425.758 611.265,420.936 619.697,420.936 
																	"/>
								<rect x="637.761" y="410.869" style="fill:#C8CFDF;" width="3.162" height="10.127"/>
								<g>
									<rect x="611.313" y="410.869" style="fill:#AE4647;" width="5.749" height="10.127"/>
									<rect x="613.9" y="410.869" style="fill:#F9644E;" width="5.748" height="10.127"/>
								</g>
							</g>
						</g>
						<g>
							<g>
								<path style="fill:#3F4142;" d="M648.86,440.738V453.4c0,3.993-2.572,7.233-5.749,7.233h-49.74
									c-3.174,0-5.75-3.241-5.75-7.233v-12.662c0-3.997,2.576-7.233,5.75-7.233h49.74
									C646.288,433.504,648.86,436.741,648.86,440.738z"/>
								<path style="fill:#616566;" d="M648.86,440.738V453.4c0,3.993-2.572,7.233-5.749,7.233h-41.116
									c-3.174,0-5.75-3.241-5.75-7.233v-12.662c0-3.997,2.577-7.233,5.75-7.233h41.116
									C646.288,433.504,648.86,436.741,648.86,440.738z"/>
							</g>
							<g>
								<rect x="604.125" y="441.088" style="fill:#3F4142;" width="36.798" height="10.127"/>
								<rect x="637.761" y="441.088" style="fill:#C8CFDF;" width="3.162" height="10.127"/>
								<g>
									<polygon style="opacity:0.5;fill:#4D5159;" points="627.967,455.977 623.847,455.977 623.847,451.155 632.279,451.155 
																			"/>
									<g>
										<rect x="623.895" y="441.088" style="fill:#A5A246;" width="5.749" height="10.127"/>
										<rect x="626.482" y="441.088" style="fill:#FFFF8D;" width="5.749" height="10.127"/>
									</g>
								</g>
							</g>
						</g>
						<g>
							<g>
								<path style="fill:#3F4142;" d="M648.86,470.957v12.662c0,3.993-2.572,7.233-5.749,7.233h-49.74
									c-3.174,0-5.75-3.24-5.75-7.233v-12.662c0-3.997,2.576-7.233,5.75-7.233h49.74
									C646.288,463.724,648.86,466.96,648.86,470.957z"/>
								<path style="fill:#616566;" d="M648.86,470.957v12.662c0,3.993-2.572,7.233-5.749,7.233h-41.116
									c-3.174,0-5.75-3.24-5.75-7.233v-12.662c0-3.997,2.577-7.233,5.75-7.233h41.116
									C646.288,463.724,648.86,466.96,648.86,470.957z"/>
							</g>
							<g>
								<rect x="604.125" y="471.307" style="fill:#3F4142;" width="36.798" height="10.127"/>
								<polygon style="opacity:0.5;fill:#4D5159;" points="615.385,486.197 611.265,486.197 611.265,481.374 619.697,481.374 
																	"/>
								<rect x="637.761" y="471.307" style="fill:#C8CFDF;" width="3.162" height="10.127"/>
								<g>
									<rect x="611.313" y="471.307" style="fill:#AE4647;" width="5.749" height="10.127"/>
									<rect x="613.9" y="471.307" style="fill:#F9644E;" width="5.748" height="10.127"/>
								</g>
							</g>
						</g>
						<g>
							<g>
								<path style="fill:#3F4142;" d="M648.86,501.176v12.662c0,3.993-2.572,7.234-5.749,7.234h-49.74
									c-3.174,0-5.75-3.24-5.75-7.234v-12.662c0-3.996,2.576-7.233,5.75-7.233h49.74
									C646.288,493.943,648.86,497.18,648.86,501.176z"/>
								<path style="fill:#616566;" d="M648.86,501.176v12.662c0,3.993-2.572,7.234-5.749,7.234h-41.116
									c-3.174,0-5.75-3.24-5.75-7.234v-12.662c0-3.996,2.577-7.233,5.75-7.233h41.116
									C646.288,493.943,648.86,497.18,648.86,501.176z"/>
							</g>
							<g>
								<rect x="604.125" y="501.527" style="fill:#3F4142;" width="36.798" height="10.127"/>
								<polygon style="opacity:0.5;fill:#4D5159;" points="615.385,516.416 611.265,516.416 611.265,511.593 619.697,511.593 
																	"/>
								<rect x="637.761" y="501.527" style="fill:#C8CFDF;" width="3.162" height="10.127"/>
								<g>
									<rect x="611.313" y="501.527" style="fill:#AE4647;" width="5.749" height="10.127"/>
									<rect x="613.9" y="501.527" style="fill:#F9644E;" width="5.748" height="10.127"/>
								</g>
							</g>
						</g>
					</g>
					<g>
						<g>
							<path style="fill:#424547;" d="M679.693,266.903c0,1.2-0.973,2.173-2.173,2.173h-15.209c-1.199,0-2.173-0.973-2.173-2.173
								v-17.816c0-1.2,0.973-2.173,2.173-2.173h15.209c1.2,0,2.173,0.973,2.173,2.173V266.903z"/>
							<path style="fill:#FFFFFF;" d="M686.211,266.903c0,1.2-0.972,2.173-2.173,2.173H668.83c-1.199,0-2.174-0.973-2.174-2.173
								v-17.816c0-1.2,0.975-2.173,2.174-2.173h15.209c1.2,0,2.173,0.973,2.173,2.173V266.903z"/>
							<g>
								<path style="fill:#252728;" d="M682.044,258.286c0,2.87-2.326,5.196-5.195,5.196c-2.869,0-5.195-2.326-5.195-5.196
									c0-2.869,2.327-5.195,5.195-5.195C679.718,253.091,682.044,255.417,682.044,258.286z"/>
								<path style="fill:#424547;" d="M684.038,258.078c0.115,2.866-2.115,5.285-4.982,5.399c-2.867,0.115-5.284-2.116-5.4-4.982
									c-0.115-2.868,2.116-5.285,4.983-5.4C681.506,252.979,683.924,255.211,684.038,258.078z"/>
								<path style="fill:#5A5E60;" d="M682.244,258.182c0.058,1.433-1.057,2.642-2.492,2.699c-1.433,0.057-2.642-1.058-2.7-2.492
									c-0.057-1.433,1.058-2.641,2.492-2.699C680.979,255.633,682.187,256.748,682.244,258.182z"/>
							</g>
						</g>
						<g>
							<path style="fill:#424547;" d="M679.693,295.555c0,1.201-0.973,2.172-2.173,2.172h-15.209c-1.199,0-2.173-0.972-2.173-2.172
								v-17.816c0-1.2,0.973-2.173,2.173-2.173h15.209c1.2,0,2.173,0.973,2.173,2.173V295.555z"/>
							<path style="fill:#FFFFFF;" d="M686.211,295.555c0,1.201-0.972,2.172-2.173,2.172H668.83c-1.199,0-2.174-0.972-2.174-2.172
								v-17.816c0-1.2,0.975-2.173,2.174-2.173h15.209c1.2,0,2.173,0.973,2.173,2.173V295.555z"/>
							<g>
								<path style="fill:#252728;" d="M682.044,286.938c0,2.87-2.326,5.196-5.195,5.196c-2.869,0-5.195-2.326-5.195-5.196
									c0-2.869,2.327-5.196,5.195-5.196C679.718,281.742,682.044,284.068,682.044,286.938z"/>
								<path style="fill:#424547;" d="M684.038,286.729c0.115,2.867-2.115,5.285-4.982,5.4c-2.867,0.116-5.284-2.116-5.4-4.983
									c-0.115-2.868,2.116-5.285,4.983-5.4C681.506,281.632,683.924,283.862,684.038,286.729z"/>
								<path style="fill:#5A5E60;" d="M682.244,286.833c0.058,1.433-1.057,2.643-2.492,2.7c-1.433,0.057-2.642-1.059-2.7-2.492
									c-0.057-1.434,1.058-2.642,2.492-2.7C680.979,284.284,682.187,285.4,682.244,286.833z"/>
							</g>
						</g>
						<g>
							<path style="fill:#424547;" d="M679.693,324.207c0,1.199-0.973,2.172-2.173,2.172h-15.209c-1.199,0-2.173-0.973-2.173-2.172
								V306.39c0-1.2,0.973-2.172,2.173-2.172h15.209c1.2,0,2.173,0.972,2.173,2.172V324.207z"/>
							<path style="fill:#C8CFDF;" d="M686.211,324.207c0,1.199-0.972,2.172-2.173,2.172H668.83c-1.199,0-2.174-0.973-2.174-2.172
								V306.39c0-1.2,0.975-2.172,2.174-2.172h15.209c1.2,0,2.173,0.972,2.173,2.172V324.207z"/>
							<g>
								<path style="fill:#252728;" d="M682.044,315.59c0,2.869-2.326,5.195-5.195,5.195c-2.869,0-5.195-2.326-5.195-5.195
									c0-2.87,2.327-5.195,5.195-5.195C679.718,310.394,682.044,312.72,682.044,315.59z"/>
								<path style="fill:#424547;" d="M684.038,315.381c0.115,2.866-2.115,5.285-4.982,5.4c-2.867,0.115-5.284-2.116-5.4-4.983
									c-0.115-2.867,2.116-5.285,4.983-5.4C681.506,310.283,683.924,312.514,684.038,315.381z"/>
								<path style="fill:#5A5E60;" d="M682.244,315.485c0.058,1.434-1.057,2.642-2.492,2.7c-1.433,0.057-2.642-1.058-2.7-2.492
									c-0.057-1.433,1.058-2.642,2.492-2.7C680.979,312.936,682.187,314.052,682.244,315.485z"/>
							</g>
						</g>
						<g>
							<path style="fill:#424547;" d="M679.693,352.858c0,1.2-0.973,2.173-2.173,2.173h-15.209c-1.199,0-2.173-0.973-2.173-2.173
								v-17.816c0-1.2,0.973-2.173,2.173-2.173h15.209c1.2,0,2.173,0.973,2.173,2.173V352.858z"/>
							<path style="fill:#FFFFFF;" d="M686.211,352.858c0,1.2-0.972,2.173-2.173,2.173H668.83c-1.199,0-2.174-0.973-2.174-2.173
								v-17.816c0-1.2,0.975-2.173,2.174-2.173h15.209c1.2,0,2.173,0.973,2.173,2.173V352.858z"/>
							<g>
								<path style="fill:#252728;" d="M682.044,344.241c0,2.869-2.326,5.195-5.195,5.195c-2.869,0-5.195-2.327-5.195-5.195
									c0-2.869,2.327-5.195,5.195-5.195C679.718,339.045,682.044,341.372,682.044,344.241z"/>
								<path style="fill:#424547;" d="M684.038,344.032c0.115,2.868-2.115,5.285-4.982,5.4c-2.867,0.116-5.284-2.116-5.4-4.983
									c-0.115-2.867,2.116-5.285,4.983-5.399C681.506,338.935,683.924,341.166,684.038,344.032z"/>
								<path style="fill:#5A5E60;" d="M682.244,344.137c0.058,1.433-1.057,2.642-2.492,2.7c-1.433,0.057-2.642-1.059-2.7-2.492
									c-0.057-1.433,1.058-2.642,2.492-2.7C680.979,341.588,682.187,342.703,682.244,344.137z"/>
							</g>
						</g>
						<g>
							<path style="fill:#424547;" d="M679.693,381.51c0,1.2-0.973,2.173-2.173,2.173h-15.209c-1.199,0-2.173-0.973-2.173-2.173
								v-17.816c0-1.201,0.973-2.173,2.173-2.173h15.209c1.2,0,2.173,0.973,2.173,2.173V381.51z"/>
							<path style="fill:#C8CFDF;" d="M686.211,381.51c0,1.2-0.972,2.173-2.173,2.173H668.83c-1.199,0-2.174-0.973-2.174-2.173
								v-17.816c0-1.201,0.975-2.173,2.174-2.173h15.209c1.2,0,2.173,0.973,2.173,2.173V381.51z"/>
							<g>
								<path style="fill:#252728;" d="M682.044,372.892c0,2.87-2.326,5.195-5.195,5.195c-2.869,0-5.195-2.325-5.195-5.195
									c0-2.869,2.327-5.196,5.195-5.196C679.718,367.697,682.044,370.023,682.044,372.892z"/>
								<path style="fill:#424547;" d="M684.038,372.685c0.115,2.867-2.115,5.285-4.982,5.4c-2.867,0.114-5.284-2.116-5.4-4.983
									c-0.115-2.867,2.116-5.284,4.983-5.4C681.506,367.586,683.924,369.817,684.038,372.685z"/>
								<path style="fill:#5A5E60;" d="M682.244,372.789c0.058,1.433-1.057,2.642-2.492,2.699c-1.433,0.057-2.642-1.058-2.7-2.491
									c-0.057-1.434,1.058-2.642,2.492-2.7C680.979,370.24,682.187,371.355,682.244,372.789z"/>
							</g>
						</g>
						<g>
							<path style="fill:#424547;" d="M679.693,410.161c0,1.201-0.973,2.173-2.173,2.173h-15.209c-1.199,0-2.173-0.973-2.173-2.173
								v-17.816c0-1.2,0.973-2.172,2.173-2.172h15.209c1.2,0,2.173,0.972,2.173,2.172V410.161z"/>
							<path style="fill:#FFFFFF;" d="M686.211,410.161c0,1.201-0.972,2.173-2.173,2.173H668.83c-1.199,0-2.174-0.973-2.174-2.173
								v-17.816c0-1.2,0.975-2.172,2.174-2.172h15.209c1.2,0,2.173,0.972,2.173,2.172V410.161z"/>
							<g>
								<path style="fill:#252728;" d="M682.044,401.544c0,2.869-2.326,5.195-5.195,5.195c-2.869,0-5.195-2.327-5.195-5.195
									c0-2.869,2.327-5.195,5.195-5.195C679.718,396.349,682.044,398.675,682.044,401.544z"/>
								<path style="fill:#424547;" d="M684.038,401.336c0.115,2.867-2.115,5.285-4.982,5.399c-2.867,0.116-5.284-2.116-5.4-4.982
									c-0.115-2.868,2.116-5.285,4.983-5.4C681.506,396.238,683.924,398.468,684.038,401.336z"/>
								<path style="fill:#5A5E60;" d="M682.244,401.441c0.058,1.433-1.057,2.642-2.492,2.7c-1.433,0.057-2.642-1.058-2.7-2.492
									c-0.057-1.434,1.058-2.643,2.492-2.7C680.979,398.891,682.187,400.007,682.244,401.441z"/>
							</g>
						</g>
					</g>
					<g>
						<path style="fill:#3683FF;" d="M503.951,388.893c-5.889,0-10.843-1.673-14.529-4.948c-5.103-4.533-7.565-11.903-7.119-21.313
							c0.667-14.063,8.164-26.81,23.593-40.116l2.58,2.991c-14.552,12.55-21.615,24.406-22.227,37.312
							c-0.387,8.175,1.617,14.459,5.796,18.173c3.943,3.501,9.886,4.708,17.185,3.487l0.652,3.896
							C507.816,388.722,505.836,388.893,503.951,388.893z"/>
						<path style="fill:#75DB75;" d="M503.161,476.592c-5.89,0-10.843-1.673-14.53-4.949c-5.103-4.533-7.564-11.902-7.119-21.313
							c0.667-14.063,8.164-26.81,23.593-40.116l2.58,2.991c-14.552,12.549-21.615,24.405-22.227,37.312
							c-0.388,8.175,1.617,14.459,5.796,18.172c3.943,3.502,9.886,4.709,17.186,3.489l0.651,3.896
							C507.026,476.421,505.045,476.592,503.161,476.592z"/>
						<path style="fill:#FF1717;" d="M502.371,514.516c-5.889,0-10.843-1.673-14.529-4.949c-5.103-4.533-7.564-11.903-7.119-21.312
							c0.667-14.064,8.164-26.81,23.593-40.117l2.58,2.992c-14.552,12.55-21.615,24.405-22.226,37.312
							c-0.388,8.175,1.616,14.459,5.796,18.171c3.943,3.502,9.886,4.708,17.186,3.489l0.651,3.895
							C506.236,514.345,504.255,514.516,502.371,514.516z"/>
						<path style="fill:#75DB75;" d="M504.741,326.477c-5.889,0-10.842-1.673-14.529-4.949c-5.103-4.533-7.565-11.902-7.118-21.312
							c0.667-14.063,8.164-26.81,23.593-40.116l2.58,2.991c-14.552,12.55-21.615,24.406-22.226,37.312
							c-0.388,8.176,1.616,14.46,5.796,18.172c3.943,3.502,9.886,4.708,17.185,3.489l0.651,3.896
							C508.606,326.305,506.625,326.477,504.741,326.477z"/>
						<path style="fill:#FF1717;" d="M503.161,360.45c-5.89,0-10.843-1.673-14.53-4.948c-5.103-4.533-7.564-11.903-7.119-21.313
							c0.667-14.063,8.164-26.81,23.593-40.116l2.58,2.991c-14.552,12.551-21.615,24.406-22.227,37.312
							c-0.388,8.176,1.617,14.46,5.796,18.173c3.943,3.501,9.886,4.707,17.186,3.488l0.651,3.896
							C507.026,360.279,505.045,360.45,503.161,360.45z"/>
						<path style="fill:#FFFFFF;" d="M503.951,267.22c-5.889,0-10.843-1.673-14.529-4.948c-5.103-4.533-7.565-11.903-7.119-21.313
							c0.667-14.063,8.164-26.81,23.593-40.116l2.58,2.991c-14.552,12.55-21.615,24.406-22.227,37.312
							c-0.387,8.175,1.617,14.459,5.796,18.172c3.943,3.502,9.886,4.708,17.185,3.488l0.652,3.896
							C507.816,267.049,505.836,267.22,503.951,267.22z"/>
						<path style="fill:#3683FF;" d="M503.951,296.453c-5.889,0-10.843-1.673-14.529-4.947c-5.103-4.533-7.565-11.903-7.119-21.313
							c0.667-14.063,8.164-26.81,23.593-40.116l2.58,2.991c-14.552,12.55-21.615,24.406-22.227,37.313
							c-0.387,8.176,1.617,14.459,5.796,18.173c3.943,3.501,9.886,4.708,17.185,3.487l0.652,3.897
							C507.816,296.282,505.836,296.453,503.951,296.453z"/>
						<path style="fill:#FFEF5C;" d="M501.581,449.729c-5.889,0-10.843-1.673-14.53-4.948c-5.103-4.533-7.564-11.903-7.119-21.313
							c0.667-14.063,8.163-26.809,23.593-40.116l2.58,2.992c-14.552,12.55-21.615,24.405-22.227,37.312
							c-0.388,8.175,1.616,14.46,5.796,18.172c3.942,3.502,9.885,4.708,17.185,3.488l0.652,3.896
							C505.446,449.558,503.465,449.729,501.581,449.729z"/>
					</g>
					<path style="fill:#DFE6F4;" d="M703.917,548.916H492.174V125.969h176.979v-0.269h34.764V548.916z M477.952,108.319v458.249
						h240.185V108.319H477.952z"/>
				</g>
			</g>
			<polygon style="opacity:0.5;fill:#4D5159;" points="697.985,588.266 719.015,567.267 466.972,567.267 466.972,588.266 			"/>
			<polygon style="opacity:0.5;fill:#4D5159;" points="840.586,588.266 861.615,567.267 609.573,567.267 609.573,588.266 			"/>
			<polygon style="opacity:0.5;fill:#4D5159;" points="546.996,588.266 568.026,567.267 315.983,567.267 315.983,588.266 			"/>
		</g>
		<g>
			<g>
				<path style="fill:#2D3535;" d="M634.466,902.559c0,2.895-60.872,5.242-135.96,5.242c-75.089,0-135.96-2.347-135.96-5.242
					c0-2.896,60.871-5.243,135.96-5.243C573.594,897.316,634.466,899.663,634.466,902.559z"/>
				<g>
					<g>
						<path style="fill:#FF7110;" d="M614.859,788.1v72.334c0,3.313-3.29,5.993-7.353,5.993H445.988
							c-4.064,0-7.354-2.681-7.354-5.993V788.1c0-3.309,3.291-5.993,7.354-5.993h161.518
							C611.569,782.107,614.859,784.791,614.859,788.1z"/>
						<g style="opacity:0.6;">
							<path style="fill:#FF7110;" d="M599.416,804.432v60.26c0,2.76-2.742,4.993-6.126,4.993H458.732
								c-3.385,0-6.127-2.233-6.127-4.993v-60.26c0-2.757,2.741-4.993,6.127-4.993h134.559
								C596.675,799.439,599.416,801.675,599.416,804.432z"/>
						</g>
						<path style="fill:#39414E;" d="M614.859,790.931V788.1c0-3.309-3.29-5.993-7.353-5.993H445.988
							c-4.064,0-7.354,2.684-7.354,5.993v2.831H614.859z"/>
					</g>
					<g>
						<path style="fill:#1A1E23;" d="M614.999,866.428v-15.523c0-1.731-3.294-3.133-7.354-3.133H445.848
							c-4.063,0-7.354,1.402-7.354,3.133v15.523H614.999z"/>
						<path style="fill:#39414E;" d="M614.999,859.099v36.716c0,2.96-3.29,5.357-7.354,5.357H445.848
							c-4.059,0-7.354-2.397-7.354-5.357v-36.716c0-2.96,3.295-5.361,7.354-5.361h161.798
							C611.709,853.738,614.999,856.139,614.999,859.099z"/>
						<g>
							<path style="fill:#FF7110;" d="M464.971,887.568v13.604h-19.123c-4.059,0-7.354-2.397-7.354-5.357v-15.6h19.123
								C461.68,880.215,464.971,883.506,464.971,887.568z"/>
							<path style="fill:#FF7110;" d="M614.999,880.215v15.6c0,2.96-3.29,5.357-7.354,5.357h-19.124v-13.604
								c0-4.062,3.295-7.353,7.354-7.353H614.999z"/>
						</g>
						<rect x="466.001" y="842.792" style="fill:#1A1E23;" width="44.738" height="7.689"/>
						<rect x="546.389" y="842.093" style="fill:#1A1E23;" width="44.738" height="7.689"/>
					</g>
					<g>
						<g>
							<path style="fill:#1A1E23;" d="M515.386,879.693c0,3.655-2.963,6.618-6.617,6.618h-9.927c-3.655,0-6.618-2.963-6.618-6.618
								l0,0c0-3.655,2.963-6.618,6.618-6.618h9.927C512.423,873.076,515.386,876.039,515.386,879.693L515.386,879.693z"/>
							<path style="fill:#1A1E23;" d="M567.227,879.693c0,3.655-2.964,6.618-6.618,6.618h-9.927c-3.655,0-6.617-2.963-6.617-6.618
								l0,0c0-3.655,2.962-6.618,6.617-6.618h9.927C564.263,873.076,567.227,876.039,567.227,879.693L567.227,879.693z"/>
						</g>
						<path style="fill:#FF7110;" d="M559.552,879.693c0,1.878-1.524,3.401-3.401,3.401H503.3c-1.879,0-3.401-1.523-3.401-3.401l0,0
							c0-1.878,1.522-3.401,3.401-3.401h52.85C558.028,876.292,559.552,877.815,559.552,879.693L559.552,879.693z"/>
					</g>
				</g>
			</g>
			<g>
				<path style="fill:#2D3535;" d="M884.017,921.432c0,2.895-102.496,5.243-228.931,5.243c-126.434,0-228.929-2.347-228.929-5.243
					c0-2.895,102.495-5.243,228.929-5.243C781.522,916.19,884.017,918.537,884.017,921.432z"/>
				<g>
					<g>
						<g>
							<path style="fill:#FC9568;" d="M709.192,295.727l4.852,23.767l3.442,16.835c-7.972,16.491-46.493-13.372-55.627-20.267
								c-11.179-8.438-22.128-17.932-32.631-27.353c-1.24-1.113-2.476-2.218-3.7-3.328c-2.844-2.566-5.393-4.776-7.296-7.021
								c0.086-0.428,0.173-0.856,0.258-1.284c0.464-2.256,1.089-4.472,1.76-6.671c0.233-0.731,0.477-1.458,0.719-2.184
								c0.065-0.179,0.117-0.332,0.158-0.466c0.077-0.167,0.21-0.496,0.438-1.074c0.49-1.243,1.02-2.46,1.565-3.674
								c13.305,5.49,26.58,12.61,41.107,15.737C680.343,282.219,698.665,284.77,709.192,295.727z"/>
							<path style="fill:#EF7950;" d="M714.044,319.494l3.442,16.835c-7.972,16.491-46.493-13.372-55.627-20.267
								c-11.179-8.438-22.128-17.932-32.631-27.353l0.399-1.199c5.077,5.366,11.961,9.973,18.479,13.915
								c7.539,4.569,13.887,9.911,22.02,13.696c6.824,3.173,12.704,8.471,20.228,9.859
								C698.164,326.415,707.34,324.019,714.044,319.494z"/>
						</g>
						<g>
							<path style="fill:#09191E;" d="M642.959,246.857c-1.661-4.886-15.949-17.817-19.018-11.272
								c-2.708,5.777,6.545,8.342,7.259,11.918c0.73,3.655-18.653,11.118-19.962,14.964c-3.42,10.04,16.587,27.239,27.458,28.904
								l13.403-15.776C645.228,270.05,645.341,253.867,642.959,246.857z"/>
							<g>
								<g>
									<path style="fill:#FDC33D;" d="M601.811,279.138c-1.263,0-2.287-1.196-2.287-2.671v-52.839
										c0-1.476,1.023-2.672,2.287-2.672h30.513c1.262,0,2.286,1.196,2.286,2.672v52.839c0,1.475-1.024,2.671-2.286,2.671H601.811
										z"/>
									<rect x="601.811" y="223.628" style="fill:#282A2B;" width="30.513" height="52.839"/>
								</g>
								<g>
									<path style="fill:#161719;" d="M627.974,254.869c0,6.024-4.883,10.907-10.907,10.907c-6.023,0-10.907-4.883-10.907-10.907
										c0-6.024,4.883-10.906,10.907-10.906C623.091,243.962,627.974,248.845,627.974,254.869z"/>
									<path style="fill:#F22A2A;" d="M627.228,254.869c0,5.612-4.549,10.162-10.161,10.162c-5.612,0-10.161-4.55-10.161-10.162
										c0-5.612,4.549-10.162,10.161-10.162C622.679,244.707,627.228,249.257,627.228,254.869z"/>
									<g>
										<path style="fill:#161719;" d="M615.202,264.454c-0.224,0-0.407-0.182-0.407-0.407V245.69
											c0-0.224,0.182-0.406,0.407-0.406h3.729c0.225,0,0.407,0.182,0.407,0.406v18.357c0,0.225-0.181,0.407-0.407,0.407H615.202
											z"/>
										<rect x="616.758" y="245.43" style="fill:#FFFFFF;" width="0.618" height="2.853"/>
									</g>
									<g>
										<path style="fill:#161719;" d="M618.082,242.126c0,0.561-0.455,1.016-1.016,1.016c-0.562,0-1.016-0.455-1.016-1.016
											c0-0.561,0.455-1.016,1.016-1.016C617.628,241.11,618.082,241.565,618.082,242.126z"/>
										<path style="fill:#161719;" d="M610.399,243.962c0.33,0.454,0.229,1.09-0.225,1.419c-0.455,0.33-1.09,0.23-1.42-0.224
											c-0.329-0.454-0.228-1.089,0.225-1.42C609.434,243.408,610.069,243.509,610.399,243.962z"/>
										<path style="fill:#161719;" d="M605.262,249.965c0.534,0.174,0.826,0.747,0.653,1.281
											c-0.173,0.533-0.747,0.826-1.281,0.652c-0.534-0.173-0.825-0.747-0.653-1.28
											C604.155,250.084,604.728,249.792,605.262,249.965z"/>
										<path style="fill:#161719;" d="M604.634,257.841c0.534-0.174,1.108,0.118,1.281,0.652c0.173,0.533-0.119,1.107-0.653,1.28
											c-0.534,0.173-1.107-0.119-1.279-0.652C603.809,258.587,604.1,258.014,604.634,257.841z"/>
										<path style="fill:#161719;" d="M608.755,264.581c0.329-0.454,0.965-0.554,1.419-0.225c0.454,0.33,0.555,0.966,0.224,1.419
											c-0.33,0.454-0.965,0.555-1.42,0.225C608.526,265.67,608.425,265.034,608.755,264.581z"/>
										<path style="fill:#161719;" d="M616.05,267.612c0-0.561,0.456-1.016,1.016-1.016c0.563,0,1.016,0.455,1.016,1.016
											c0,0.56-0.453,1.016-1.016,1.016C616.506,268.628,616.05,268.172,616.05,267.612z"/>
										<path style="fill:#161719;" d="M623.735,265.775c-0.33-0.454-0.229-1.09,0.225-1.419c0.454-0.33,1.089-0.229,1.419,0.225
											c0.33,0.454,0.23,1.09-0.224,1.419C624.7,266.329,624.064,266.229,623.735,265.775z"/>
										<path style="fill:#161719;" d="M628.871,259.773c-0.533-0.173-0.826-0.748-0.653-1.281
											c0.174-0.534,0.747-0.826,1.282-0.653c0.533,0.174,0.825,0.747,0.652,1.28
											C629.978,259.654,629.406,259.947,628.871,259.773z"/>
										<path style="fill:#161719;" d="M629.501,251.898c-0.535,0.173-1.108-0.119-1.282-0.652
											c-0.173-0.534,0.119-1.108,0.653-1.281c0.534-0.174,1.107,0.118,1.282,0.653
											C630.326,251.151,630.034,251.724,629.501,251.898z"/>
										<path style="fill:#161719;" d="M625.378,245.157c-0.33,0.454-0.964,0.554-1.419,0.224
											c-0.454-0.329-0.555-0.965-0.225-1.419c0.33-0.454,0.965-0.554,1.419-0.225
											C625.607,244.068,625.708,244.703,625.378,245.157z"/>
									</g>
								</g>
								<g>
									<rect x="603.683" y="225.113" style="fill:#B9BCBA;" width="26.768" height="10.389"/>
									<g>
										<path style="fill:#161719;" d="M606.034,229.649h3.656c0.044,0.01,0.066,0.04,0.066,0.091v1.027
											c0,0.061-0.022,0.09-0.066,0.09h-3.656c-0.04,0-0.06-0.03-0.06-0.09v-1.027
											C605.981,229.679,606.001,229.649,606.034,229.649z"/>
										<path style="fill:#161719;" d="M611.106,226.371h2.16c0.04,0.01,0.06,0.04,0.06,0.09v1.02h0.68
											c0.044,0.01,0.066,0.041,0.066,0.091v2.13c0,0.06-0.022,0.09-0.066,0.09h-0.68v1.019c0,0.065-0.02,0.099-0.06,0.099h-0.68
											v1.011c0,0.066-0.021,0.099-0.061,0.099h-0.68v1.019h2.16c0.044,0.01,0.066,0.04,0.066,0.09v1.02
											c0,0.06-0.022,0.091-0.066,0.091h-3.64c-0.041,0-0.061-0.03-0.061-0.091v-1.02c0.007-0.06,0.027-0.09,0.061-0.09h0.679
											v-1.019c0.006-0.066,0.026-0.099,0.061-0.099h0.68v-1.011c0.006-0.066,0.027-0.099,0.06-0.099h0.68v-1.019
											c0.006-0.061,0.027-0.09,0.061-0.09h0.68v-2.13h-2.16v1.019c0,0.061-0.02,0.091-0.061,0.091h-0.679
											c-0.041,0-0.061-0.031-0.061-0.091v-1.019c0.007-0.061,0.027-0.091,0.061-0.091h0.679v-1.02
											C611.052,226.401,611.072,226.371,611.106,226.371z"/>
										<path style="fill:#161719;" d="M616.906,226.318h0.68c0.044,0.01,0.065,0.041,0.065,0.09v4.372h0.68
											c0.041,0.01,0.061,0.043,0.061,0.099v1.019c0,0.061-0.02,0.091-0.061,0.091h-0.68v2.145c0,0.06-0.022,0.091-0.065,0.091
											h-0.68c-0.043,0-0.065-0.03-0.065-0.091v-2.145h-2.171c-0.04,0-0.06-0.03-0.06-0.091v-2.137
											c0.007-0.065,0.027-0.099,0.06-0.099h0.685v-1.019c0.007-0.061,0.026-0.09,0.061-0.09h0.684v-1.027
											c0.007-0.061,0.027-0.09,0.061-0.09h0.679v-1.027C616.848,226.348,616.87,226.318,616.906,226.318z M616.161,228.644
											v1.019c0,0.066-0.02,0.099-0.061,0.099h-0.684v1.019h1.425v-2.137H616.161z"/>
										<path style="fill:#161719;" d="M620.477,226.318h1.425c0.04,0.005,0.061,0.035,0.061,0.09v1.02
											c0,0.065-0.021,0.098-0.061,0.098h-1.425v1.02c0,0.06-0.022,0.09-0.065,0.09h-0.679v1.027h2.17
											c0.04,0.011,0.061,0.041,0.061,0.091v1.02h0.684c0.04,0.01,0.061,0.043,0.061,0.098v2.137
											c0,0.061-0.021,0.091-0.061,0.091h-0.684v1.027c0,0.061-0.021,0.09-0.061,0.09h-2.17c-0.041,0-0.061-0.03-0.061-0.09
											V233.1h-0.685c-0.04,0-0.06-0.03-0.06-0.091v-4.372c0.007-0.06,0.027-0.09,0.06-0.09h0.685v-1.02
											c0.007-0.065,0.027-0.098,0.061-0.098h0.679v-1.02C620.418,226.348,620.44,226.318,620.477,226.318z M619.732,230.872
											v2.137h2.17v-2.137H619.732z"/>
										<path style="fill:#161719;" d="M624.052,226.371h2.16c0.041,0.01,0.061,0.04,0.061,0.09v1.02h0.68
											c0.044,0.01,0.065,0.041,0.065,0.091v2.13c0,0.06-0.021,0.09-0.065,0.09h-0.68v1.019c0,0.065-0.02,0.099-0.061,0.099
											h-0.68v1.011c0,0.066-0.02,0.099-0.061,0.099h-0.68v1.019h2.161c0.044,0.01,0.065,0.04,0.065,0.09v1.02
											c0,0.06-0.021,0.091-0.065,0.091h-3.641c-0.04,0-0.061-0.03-0.061-0.091v-1.02c0.007-0.06,0.027-0.09,0.061-0.09h0.679
											v-1.019c0.007-0.066,0.026-0.099,0.061-0.099h0.68v-1.011c0.007-0.066,0.026-0.099,0.06-0.099h0.68v-1.019
											c0.007-0.061,0.027-0.09,0.061-0.09h0.68v-2.13h-2.16v1.019c0,0.061-0.02,0.091-0.061,0.091h-0.679
											c-0.04,0-0.061-0.031-0.061-0.091v-1.019c0.007-0.061,0.027-0.091,0.061-0.091h0.679v-1.02
											C623.999,226.401,624.018,226.371,624.052,226.371z"/>
									</g>
								</g>
							</g>
							<path style="fill:#09191E;" d="M636.086,237.538c-1.87-3.029-4.221-9.009-6.512-3.26c-2.666,6.695,1.548,18.726,9.121,20.602
								l5.058-3.974C643.755,244.402,637.778,240.276,636.086,237.538z"/>
							<g>
								<path style="fill:#09191E;" d="M606.156,243.004c-1.508-4.213-8.089,0.065-9.755,0c0,0-10.177,5.608-2.427,8.393
									c2.282,0.82,5.975-1.264,7.851-2.052C603.564,248.615,607.344,246.322,606.156,243.004z"/>
								<path style="fill:#09191E;" d="M605.555,248.168c-2.236-1.765-6.906,1.569-8.83,1.748c0,0-13.32,6.629-4.99,9.233
									c2.452,0.767,7.27-2.717,9.649-4.112C603.59,253.745,608.448,250.451,605.555,248.168z"/>
								<path style="fill:#09191E;" d="M605.089,254.078c-2.367-1.585-6.764,2.102-8.667,2.432c0,0-12.764,7.646-4.256,9.595
									c2.503,0.573,7.035-3.276,9.299-4.852C603.564,259.791,608.151,256.129,605.089,254.078z"/>
								<path style="fill:#09191E;" d="M605.882,263.304c-1.825-1.913-5.74,0.448-7.336,0.341c0,0-11.127,4.129-4.271,7.662
									c2.019,1.04,6.06-1.438,8.051-2.367C604.171,268.079,608.243,265.78,605.882,263.304z"/>
							</g>
						</g>
						<g>
							<g>
								<path style="fill:#FC9568;" d="M619.502,292.848l2.137,26.492l1.519,18.765c-9.816,16.595-44.815-21.801-53.134-30.704
									c-10.183-10.896-20.017-22.898-29.414-34.751c-1.109-1.4-2.216-2.791-3.31-4.186c-2.542-3.225-4.832-6.02-6.474-8.75
									c0.135-0.449,0.269-0.899,0.404-1.349c0.717-2.369,1.594-4.668,2.511-6.944c0.316-0.755,0.64-1.502,0.965-2.251
									c0.086-0.183,0.154-0.34,0.21-0.479c0.095-0.169,0.264-0.505,0.558-1.094c0.63-1.268,1.296-2.502,1.977-3.73
									c12.635,8.04,25.055,17.839,39.179,23.513C592.285,273.679,610.255,279.328,619.502,292.848z"/>
								<path style="fill:#EF7950;" d="M621.639,319.34l1.519,18.765c-9.816,16.595-44.815-21.801-53.134-30.704
									c-10.183-10.896-20.017-22.898-29.414-34.751l0.533-1.235c4.451,6.609,10.787,12.681,16.836,17.975
									c6.994,6.134,12.713,12.916,20.39,18.296c6.44,4.51,11.698,11.172,19.038,13.86
									C605.029,324.328,614.445,323.181,621.639,319.34z"/>
							</g>
							<path style="fill:#F22A2A;" d="M577.68,275.619c-0.222,0.029-0.445,0.052-0.671,0.066c-4.468,0.293-9.237-2.302-12.445-6.775
								c-3.315-4.622-4.471-9.797-5.589-14.801c-0.645-2.887-1.311-5.871-2.388-8.743c-2.199-5.868-5.601-8.546-9.54-11.646
								c-1.45-1.142-2.95-2.322-4.485-3.734l0.914-1.195c1.491,1.371,2.967,2.533,4.395,3.657
								c3.956,3.115,7.693,6.055,10.055,12.361c1.118,2.984,1.798,6.028,2.456,8.973c1.13,5.058,2.198,9.836,5.312,14.179
								c2.908,4.055,7.192,6.41,11.182,6.148c2.382-0.159,5.72-1.32,8.047-5.961c2.013-4.016,1.718-8.527,1.406-13.301
								c-0.295-4.526-0.601-9.207,1.124-13.649c0.76-1.957,1.547-3.982,3.252-5.48l0.93,1.243c-1.434,1.26-2.12,3.024-2.845,4.892
								c-1.592,4.099-1.299,8.589-1.016,12.93c0.313,4.79,0.635,9.743-1.576,14.156C584.267,272.795,581.259,275.145,577.68,275.619
								z"/>
							<path style="fill:#09191E;" d="M541.443,226.748c-2.128-3.516-3.935-12.479-8.723-7.222
								c-3.339,3.667,0.008,10.885,1.263,14.926l12.368,17.686c0.465-0.405-0.255-10.734-0.35-13.329
								C545.797,233.248,544.14,231.204,541.443,226.748z"/>
							<g>
								<polygon style="fill:#0FA6E4;" points="547.528,229.842 544.945,235.569 523.444,223.493 526.025,217.767 								"/>
								<polygon style="fill:#2EC2FF;" points="526.509,216.693 522.959,224.568 520.875,223.396 524.424,215.522 								"/>
								<polygon style="fill:#B9BCBA;" points="523.195,218.251 522.105,220.667 507.812,212.641 505.783,209.988 508.902,210.225 
																	"/>
							</g>
							<path style="fill:#09191E;" d="M558.07,256.268c-3.274,8.331-9.638,15.937-14.894,21.894c0,0-12.217-7.615-23.211-21.699
								c-4.662-5.969-11.07-15.865-10.922-20.62c0.11-3.582,5.474-12.631,7.234-15.334c1.845-2.846-0.266-11.938,2.386-13.686
								c6.277-4.14,7.154,5.287,10.108,13.121c0.929,2.476,2.261,4.311,3.706,5.951c2.573,2.946,5.493,5.269,7.036,9.537
								C541.908,242.038,553.517,251.431,558.07,256.268z"/>
							<path style="fill:#050F11;" d="M522.971,218.944l-5.053-7.968c-1.903,0.347-4.255-1.27-5.608,2.072
								c-0.845,2.086-0.069,5.35-1.088,5.236c-1.946-0.218-5.539,2.462-2.995,8.454c-3.738,5.954,1.326,16.257,6.464,22.602
								c0.806-5.17,1.447-13.071,4.259-17.207C521.274,228.714,525.365,223.509,522.971,218.944z"/>
						</g>
					</g>
					<g>
						<g>
							<g>
								<path style="fill:#FC9568;" d="M719.135,845.007H692.04c5.082,11.744-0.782,55.924,8.402,65.322
									C712.682,922.857,717.274,857.769,719.135,845.007C719.086,845.083,719.177,844.943,719.135,845.007z"/>
							</g>
							<g>
								<path style="fill:#FC9568;" d="M809.457,845.007h-22.04c4.134,11.744-5.126,56.425,6.834,65.322
									C806.44,919.397,807.943,857.769,809.457,845.007C809.416,845.083,809.49,844.943,809.457,845.007z"/>
							</g>
							<g>
								<path style="fill:#FFFFFF;" d="M719.711,921.641c-13.639,1.438-46.299,1.734-57.42-1.741l0.037-4.213
									c7.314,4.625,42.317,3.888,57.253,2.313C720.401,922.906,719.711,921.641,719.711,921.641z"/>
								<path style="fill:#06090A;" d="M719.581,917.999c-14.937,1.575-49.939,2.312-57.253-2.313v-0.383
									c0.14-0.145,0.279-0.289,0.42-0.441c3.703-3.808,13.336-8.873,19.685-11.763c5.425-2.47,10.472-10.442,12.439-11.562
									c1.807,10.839,6.142,8.671,11.561,3.974c5.071-4.394,7.226-4.697,8.671,3.252c0.211,1.16,0.884,5.874,2.19,10.21
									c0.979,3.266,1.875,6.662,2.267,8.909C719.57,917.963,719.581,917.999,719.581,917.999z"/>
							</g>
							<g>
								<path style="fill:#FFFFFF;" d="M812.496,919.258c-10.578,1.336-35.877,1.389-44.456-2.17l0.07-4.213
									c5.621,4.679,32.737,4.203,44.321,2.739C813.019,920.527,812.496,919.258,812.496,919.258z"/>
								<path style="fill:#06090A;" d="M812.431,915.615c-11.584,1.463-38.701,1.94-44.321-2.739l0.003-0.383
									c0.109-0.143,0.219-0.287,0.329-0.438c2.905-3.78,14.972-11.222,15.36-11.616c3.014-3.114,3.103-7.796,4.639-8.901
									c2.893,14.755,4.189,6.125,10.965,1.825c4.675-2.961,6.007-1.647,8.78,3.763c0.504,0.98,1.591,5.102,2.561,9.447
									c0.727,3.273,1.389,6.676,1.67,8.926C812.422,915.579,812.431,915.615,812.431,915.615z"/>
							</g>
						</g>
						<g>
							<g>
								<g>
									<path style="fill:#FC9568;" d="M673.743,225.012c-0.571,2.489,1.88,3.978,4.551,5.004
										c-1.109,10.882-0.375,21.881-0.679,23.76c0,0,0,0,0.004,0.006c-0.034,0.189-0.056,0.383-0.073,0.566
										c-0.012,0.101-0.021,0.211-0.028,0.315c-0.057,0.729-0.019,1.462,0.203,2.153c0.269,0.787,0.771,1.528,1.649,2.153
										c3.614,2.561,8.642,3.421,13.556,3.137c0.815-0.046,1.638-0.127,2.439-0.233c0.556-0.069,1.101-0.156,1.644-0.259
										c1.857-0.34,3.626-0.829,5.22-1.429c2.371-0.901,4.35-2.051,5.64-3.332c0.489-0.495,0.883-1.009,1.158-1.539
										c0.014-0.017,0.026-0.04,0.034-0.06c-0.02,0.259-0.042,0.546-0.07,0.847c-0.014,0.149-0.022,0.302-0.041,0.45
										c-0.002,0.064-0.007,0.127-0.017,0.192c-0.011,0.184-0.025,0.369-0.044,0.567c-0.01,0.062-0.013,0.124-0.019,0.193
										l-0.006,0.04c-0.01,0.166-0.031,0.332-0.044,0.499c-0.02,0.224-0.046,0.45-0.062,0.679
										c-0.022,0.238-0.046,0.481-0.072,0.735c-0.068,0.683-0.131,1.404-0.207,2.166c-0.118,1.158-0.243,2.373-0.371,3.619
										c-0.038,0.372-0.077,0.749-0.122,1.126c-0.226,2.186-0.47,4.444-0.71,6.643c-0.024,0.196-0.047,0.391-0.065,0.583
										c-0.171,1.57-0.348,3.106-0.508,4.559c-0.223,1.96-0.432,3.764-0.615,5.304c-0.354,3.032-0.601,5.024-0.622,5.103
										c0.032,0.017,0.071,0.032,0.106,0.04c2.924,1.212,7.581,2.207,13.007,2.904c9.854,1.269,22.235,1.547,31.255,0.371
										l0.001-0.005c3.598-0.471,6.664-1.174,8.819-2.14c0.759-0.338,1.4-0.711,1.917-1.115c0.019-0.013,0.032-0.031,0.052-0.042
										c0.089-0.069,0.169-0.146,0.251-0.216c-0.769-1.935-0.943-6.035-0.783-11.159c0.015-0.568,0.036-1.146,0.065-1.731
										c0.034-0.888,0.085-1.796,0.141-2.731c0.186-3.117,0.455-6.454,0.765-9.807c0.617-6.619,1.399-13.297,2.011-18.498
										l0.004-0.005c0.32-2.753,0.6-5.085,0.784-6.78c0.141-1.297,0.278-2.425,0.414-3.339
										c1.658-11.207,4.444-22.221,6.722-33.376c3.482-17.096-67.778-22.834-67.778-22.834
										c-5.883,3.391-8.472,9.201-10.814,15.656c-0.04,0.106-0.078,0.22-0.118,0.327c-0.716,1.986-1.419,4.031-2.188,6.088
										c-0.086,0.234-0.177,0.472-0.268,0.711c-0.078,0.193-0.156,0.398-0.234,0.592c-0.003,0.016-0.003,0.021-0.011,0.035
										c-0.029,0.076-0.056,0.15-0.09,0.228c-0.288,0.718-0.58,1.444-0.888,2.161c-0.141,0.312-0.275,0.619-0.418,0.932
										c-0.093,0.205-0.489,0.797-1.09,1.648c-0.941,1.325-2.386,3.284-3.956,5.396c-3.716,4.979-8.145,10.794-8.381,11.117
										C674.206,223.726,673.883,224.403,673.743,225.012z"/>
									<g>
										<path style="fill:#2B1615;" d="M686.497,199.832c1.825-1.423,5.697,0.628,8.135,2.766c2.639,1.921,6.158,4.516,5.48,5.739
											c-0.38,1.025-7.508-1.379-9.226-2.074C689.216,205.455,681.542,203.855,686.497,199.832z"/>
									</g>
									<path style="fill:#EF7950;" d="M677.516,254.662c-0.057,0.729-0.019,1.462,0.203,2.153
										c0.269,0.787,0.771,1.528,1.649,2.153c3.614,2.561,8.642,3.421,13.556,3.137c0.815-0.046,1.638-0.127,2.439-0.233
										c0.556-0.069,1.101-0.156,1.644-0.259c1.857-0.34,3.626-0.829,5.22-1.429c2.371-0.901,4.35-2.051,5.64-3.332
										c0.489-0.495,0.883-1.009,1.158-1.539c0.01-0.018,0.021-0.042,0.031-0.061c1.312-3.034,2.548-5.994,4.563-8.59
										l-0.415-8.565c-2.28,2.25-4.458,6.841-6.814,9.814c-2.98,3.767-6.796,5.986-11.205,7.558
										C689.887,257.352,682.562,257.692,677.516,254.662z"/>
									<g>
										<path style="fill:#FFFFFF;" d="M683.142,211.869c1.506,0.425,3.042,0.783,4.586,1.122c1.858,0.407,3.725,0.787,5.56,1.21
											c0,0-1.501-5.22-4.256-7.076c-0.508-0.346-1.06-0.572-1.649-0.634c-0.097-0.011-0.191-0.016-0.285-0.018
											C686.157,207.797,684.712,209.757,683.142,211.869z"/>
										<path style="fill:#2B1615;" d="M683.142,211.869c1.506,0.425,3.042,0.783,4.586,1.122
											c0.371-0.831,0.686-1.763,0.916-2.769c0.249-1.08,0.372-2.132,0.389-3.097c-0.508-0.346-1.06-0.572-1.649-0.634
											c-0.097-0.011-0.191-0.016-0.285-0.018C686.157,207.797,684.712,209.757,683.142,211.869z"/>
									</g>
									<g>
										<path style="fill:#2B1615;" d="M709.373,203.98c1.157,4.994-0.858,8.558-0.404,13.436
											c0.483,5.096,1.966,11.142,2.357,16.096c2.39,0.956,4.638,2.722,6.792,3.675c0.503-4.215,2.244-8.187,3.51-12.115
											c8.122,3.787,9.244,32.337,11.808,40.43c6.817,1.354,21.851,4.237,29.579-0.857c0.765-5.403,1.791-11.796,3.03-18.324
											c0.51-2.66,1.048-5.338,1.624-7.984c1.328-6.169,2.833-12.132,4.445-17.174c3.385-10.518,6.79-28.122,3.066-38.591
											l-67.429-6.244C705.237,184.57,707.281,194.988,709.373,203.98z"/>
										<path style="fill:#2B1615;" d="M776.316,182.673l-1.131-0.104c-0.019-0.054-0.032-0.114-0.052-0.168
											C775.438,181.568,775.599,182.601,776.316,182.673z"/>
									</g>
									<path style="fill:#686666;" d="M713.381,190.494c-0.509,15.064,7.115,32.045,14.894,42.182
										c6.896,8.978,18.993,13.021,30.821,13.662c2.334,0.126,4.668,0.125,6.949-0.017c0.51-2.66,1.048-5.338,1.624-7.984
										c-12.349,1.171-26.521-1.801-33.16-10.45c-8.194-10.673-13.647-25.941-13.266-37.124L713.381,190.494z"/>
									<g>
										<g>
											<path style="fill:#FC9568;" d="M727.831,224.518c-4.655-7.016-11.943-5.664-13.611,4.996c0,0-2.847,8.812-0.235,11.731
												c3.165,3.532,8.725,1.293,11.417-1.508C728.974,236.021,731.315,229.775,727.831,224.518z"/>
										</g>
										<path style="fill:#EF7950;" d="M716.705,237.364c8.326,0.017-0.125-8.636,1.93-11.895
											c3.161-5.014,10.851-0.549,9.161,4.863c-0.774-2.857-3.548-5.937-6.441-3.026c3.132,1.612,2.482,7.238,1.147,9.843
											c-1.736,3.385-7.128,3.339-6.199-0.631l0.251,0.058C716.587,236.91,716.416,237.061,716.705,237.364z"/>
									</g>
									<g>
										<path style="fill:#FDC33D;" d="M673.601,185.425c0.793,6.983,27.134,23.542,46.587,33.909
											c8.735,4.657,22.162,9.017,31.763,10.069c6.772,0.752,17.976,1.082,22.96-3.52c0,0,2.653-5.734,3.559-10.282
											c1.8-9.058,2.712-16.982,2.158-24.189c-0.15-1.977-0.408-3.911-0.788-5.792c-1.565-7.655-5.773-14.075-11.373-19.222
											c-2.457-2.259-5.172-4.267-8.061-6.028c-10.317-6.329-22.737-9.492-32.501-9.352
											c-10.196,0.156-18.535,2.343-26.263,10.872c-3.706,4.092-8.61,10.855-10.328,15.802c-0.244,0.715-0.629,1.295-1.118,1.78
											c-1.885,1.887-5.349,2.23-8.62,2.497c-0.051,0.007-0.091,0.004-0.141,0.011C677.353,182.31,673.61,182.52,673.601,185.425
											z"/>
										<g style="opacity:0.8;">
											<path style="fill:#CECECE;" d="M673.601,185.425c0.793,6.983,27.134,23.542,46.587,33.909
												c8.735,4.657,22.162,9.017,31.763,10.069c6.772,0.752,17.976,1.082,22.96-3.52c0,0,2.653-5.734,3.559-10.282
												c2.3-11.55,3.151-21.251,1.37-29.981c-1.565-7.655-5.773-14.075-11.373-19.222c1.584,9.635,1.31,19.593-0.362,28.293
												c-0.73,3.838-1.867,8.286-4.135,11.598c-1.955,2.847-5.067,3.781-8.172,5.129c-5.999,2.618-12.5,2.512-18.931,1.287
												c-12.092-2.299-24.584-8.321-35.134-14.711c-5.997-3.633-12.148-7.825-17.178-12.745
												c-1.065-1.042-2.099-2.141-3.121-3.27C677.353,182.31,673.61,182.52,673.601,185.425z"/>
										</g>
										<g style="opacity:0.4;">
											<path style="fill:#FDC33D;" d="M690.196,179.472c6.746,5.929,16.481,10.679,22.499,12.984
												c2.214-14.883,13.898-27.185,28.376-31.52c6.526-1.949,12.802-1.875,19.336-0.566
												c-10.317-6.329-22.737-9.492-32.501-9.352c-10.196,0.156-18.535,2.343-26.263,10.872
												c-3.706,4.092-8.61,10.855-10.328,15.802C691.07,178.407,690.685,178.987,690.196,179.472z"/>
										</g>
										<g style="opacity:0.8;">
											<path style="fill:#CECECE;" d="M673.601,185.425c0.793,6.983,27.134,23.542,46.587,33.909
												c8.735,4.657,22.162,9.017,31.763,10.069c6.772,0.752,17.976,1.082,22.96-3.52c0,0,2.653-5.734,3.559-10.282
												c1.8-9.058,2.712-16.982,2.158-24.189c-0.72-0.335-1.474-0.611-2.276-0.862c-7.97-2.45-14.506,0.258-19.459,7.038
												c-5.147,7.046-5.012,11.434-14.985,10.893c-8.754-0.474-16.617-2.535-24.851-5.166
												c-9.427-3.002-18.824-6.868-26.836-12.894c-3.369-2.526-7.132-5.349-10.645-8.452c-0.051,0.007-0.091,0.004-0.141,0.011
												C677.353,182.31,673.61,182.52,673.601,185.425z"/>
										</g>
									</g>
									<path style="fill:#2B1615;" d="M678.097,230.189l3.604,0.426c7.301,1.605,12.557,4.571,9.382,16.452
										c0.083-8.322-8.664-5.21-13.209-6.758C673.425,238.792,676.875,232.271,678.097,230.189z"/>
								</g>
								<g>
									<path style="fill:#FF541F;" d="M607.716,329.825c0.425,3.925,0.969,7.883,1.58,11.917
										c3.587,6.541,44.046,12.996,53.782,14.882c9.65,24.378,12.212,69.798,12.79,109.059c0.273,19.483,0.076,37.45,0.01,50.577
										c34.977,11.458,56.978,14.816,95.442-0.011c0.141-80.603,46.794-173.798,16.703-236.15
										c-0.34-0.688-0.666-1.374-1.014-2.039c-0.96-1.842-4.71-6.563-9.627-9.605c-4.971-3.074-11.143-4.437-16.789,0.61
										c-15.799,14.12-36.744,8.897-56.4,8.581c-5.265-0.098-10.433,0.174-15.394,1.264c-2.551,0.556-5.09,1.069-7.632,1.538
										c-25.686,4.841-50.173,5.517-70.278,4.394C606.242,300.835,606.145,315.106,607.716,329.825z"/>
									<path style="fill:#D83D13;" d="M607.716,329.825c0.425,3.925,0.969,7.883,1.58,11.917
										c3.587,6.541,44.046,12.996,53.782,14.882c9.65,24.378,12.212,69.798,12.79,109.059
										c9.878-13.737,13.268-39.129,13.093-54.088c-0.185-15.655-0.741-45.638-14.88-55.624c5.44-2.257,12.123-3.271,18.317-3.249
										c-18.111-7-42.042-6.269-62.31-13.083C624.723,337.838,616.361,334.328,607.716,329.825z"/>
									<path style="fill:#0679B2;" d="M671.714,407.64c1.298,17.564,3.554,39.762,1.984,54.109
										c-0.663,6.04-1.155,15.122-1.34,24.902c-0.065,3.805-0.088,7.708-0.044,11.579c0.011,1.471,0.033,2.943,0.065,4.394
										c0,0.185,0.012,0.37,0.012,0.556c0.152,6.825,0.489,13.356,1.09,18.818c0.064,0.642,0.141,1.275,0.217,1.896
										c0.164,1.331,0.513,2.552,1.046,3.674c2.028,4.47,6.728,7.414,13.128,9.191c9.191,2.573,21.902,2.769,35.302,1.733
										c22.896-1.745,47.829-7.076,60.781-10.259c1.506-0.371,2.857-0.709,4.013-1.014c0.076-0.022,0.142-0.033,0.207-0.055
										c-0.054-0.24-0.108-0.49-0.152-0.731c-1.777-8.264-2.813-16.42-3.303-24.814c-0.142-2.366-0.23-4.743-0.284-7.153
										c-0.087-3.674-0.087-7.425-0.012-11.251c0.175-9.071,0.763-18.643,1.57-29.099c1.374-17.847,10.968-85.258,10.968-85.258
										c-5.812-21.5-9.528-27.747-13.148-43.938c-16.561-0.927-30.255,0.742-48.549,1.33c-1.656,0.054-3.336,0.098-5.036,0.142
										c-1.419,0.043-2.858,0.077-4.307,0.098c-1.395,0.032-2.815,0.054-4.253,0.065c0,0.033,0.012,0.055,0.022,0.077
										c2.269,8.395,3.173,18.567,2.291,28.576c-2.355,26.614-17.357,52.027-53.01,39.489
										C671.081,398.514,671.365,402.908,671.714,407.64z"/>
									<path style="fill:#0679B2;" d="M681.165,280.447c7.828,2.159,15.045,6.574,21.206,13.073
										c1.188,1.242,2.334,2.551,3.434,3.946c7.033,8.875,12.452,18.938,15.863,29.089c0,0.032,0.013,0.054,0.022,0.076
										c2.737,8.232,4.165,16.506,4.057,24.27l2.213,0.032l5.778,0.077l5.048,0.076c0.109-8.101-1.101-16.495-3.521-24.836
										c-3.706-12.854-10.282-25.566-19.233-36.873c-0.686-0.861-1.384-1.701-2.093-2.519c-3.03-3.5-6.291-6.574-9.748-9.212
										c-3.836-0.077-7.62,0.055-11.306,0.556h-0.01c-1.318,0.163-2.639,0.392-3.924,0.676c-0.055,0.011-0.099,0.022-0.153,0.032
										C686.247,279.466,683.707,279.978,681.165,280.447z"/>
									<path style="fill:#0679B2;" d="M772.104,343.845l12.996-1.112c-1.57-18.163-1.951-33.852,0.774-51.33
										c0.567-3.673,1.275-7.435,2.148-11.305c-0.34-0.688-0.666-1.374-1.014-2.039c-0.96-1.842-4.71-6.563-9.627-9.605
										c-0.295,1.177-0.579,2.355-0.872,3.554l-0.448,1.897c-0.729,3.053-1.373,6.04-1.929,8.973
										C770.022,304.346,770.305,323.055,772.104,343.845z"/>
								</g>
								<path style="fill:#0679B2;" d="M788.023,526.429v0.007c-0.015,0.26-0.037,0.527-0.058,0.781
									c-0.109,1.683-0.283,3.258-0.514,4.733c-0.044,0.275-0.093,0.578-0.152,0.917c0.015,0.008,0,0.008,0,0.022
									c-0.376,2.117-0.867,4.025-1.467,5.744c-4.877,14.062-16.663,15.883-27.061,20.55c-7.486,3.353-14.249,8.187-17.197,20.117
									c-1.048,4.278-1.612,9.466-1.545,15.825c0.014,1.618,0.072,3.31,0.173,5.08c0.036,0.679,0.073,1.358,0.102,2.038
									c0.274,5.882,0.281,11.879,0.093,17.905c-1.041,32.567-7.876,66.11-10.008,87.997c-2.788,28.695,4.595,48.927,5.738,77.585
									c0.925,23.239-10.044,76.161-14.546,100.029h-35.681c-1.264-20.818-1.287-61.067-1.344-103.135
									c-0.029-26.021-0.065-52.764-0.413-76.009c-0.029-1.821-0.056-3.627-0.086-5.405c-0.152-8.18-0.333-15.868-0.578-22.863
									c-0.318-9.134-0.737-17.097-1.278-23.441c-0.145-1.698-0.31-3.729-0.484-6.048c-0.079-0.99-0.159-2.03-0.239-3.121
									c-0.657-8.895-1.467-21.064-2.305-34.699c-0.282-4.567-0.571-9.3-0.86-14.134c-0.311-5.391-0.629-10.897-0.939-16.425
									c-0.015-0.282-0.037-0.564-0.051-0.846c-0.072-1.322-0.144-2.645-0.216-3.974c-0.022-0.369-0.044-0.737-0.065-1.105
									c-0.586-10.694-1.135-21.346-1.605-31.274c-0.013-0.369-0.036-0.73-0.049-1.091c-0.044-0.903-0.087-1.792-0.124-2.681
									c-0.021-0.383-0.036-0.766-0.049-1.149c-0.174-3.736-0.333-7.349-0.471-10.789v-0.007
									c-0.238-5.766-0.426-11.07-0.556-15.716c-0.152-5.167-0.225-9.524-0.209-12.826c0-0.383,0-0.751,0.007-1.098l1.097-0.036
									l0.904-0.029l12.659-0.397l26.057-0.817l37.069-1.156l11.865-0.376l2.572-0.079l6.135-0.195l12.089-0.375h0.008l0.462-0.007
									c0.187,0.939,0.368,1.872,0.535,2.782c0.138,0.751,0.275,1.496,0.397,2.226c0.116,0.672,0.224,1.329,0.333,1.98
									c0.7,4.198,1.2,8.042,1.517,11.576C788.145,518.112,788.24,522.549,788.023,526.429z"/>
								<path style="fill:#0679B2;" d="M739.461,615.407c13.451,67.151,34.515,220.045,45.037,270.349h35.042
									c-0.253-21.456,0.739-79.285-2.528-114.944c-0.565-6.247-1.275-11.818-2.135-16.386
									c-6.577-34.888-17.708-58.525-20.402-94.079c-2.485-32.708-1.404-87.231-10.802-133.6
									c-7.152-35.226-71.118-40.884-71.118-40.884c9.126,46.063,19.951,98.101,24.182,116.723
									C737.597,606.39,738.513,610.686,739.461,615.407z"/>
								<g>
									<path style="fill:#0E4459;" d="M721.577,885.757c4.506-23.865,15.475-76.785,14.549-100.029
										c-1.145-28.652-8.526-48.887-5.735-77.583c2.574-26.406,11.993-69.776,9.813-107.935
										c-0.502-8.743,0.054-15.546,1.374-20.911c-0.023-5.473,0.425-7.072,1.896-11.432c4.068-12.081,10.5-13.436,20.716-17.808
										c9.441-4.045,19.896-9.889,23.113-17.172c0-0.011,0.011-0.011,0-0.022c1.32-7.457-2.093,0.916-22.023,10.652
										c-17.467,8.526-41.431,6.905-58.874,5.452c-2.581-0.216,31.58,6.459,30.376,21.018
										c-7.225,87.433-23.017,153.423-14.023,188.311c7.207,27.948-23.984,44.701-38.201,24.324
										c0.053,42.069,0.077,82.323,1.344,103.136H721.577z"/>
								</g>
								<path style="fill:#0E4459;" d="M740.203,605.66c-0.196,3.249-0.458,6.498-0.742,9.747
									c13.451,67.151,34.515,220.045,45.037,270.349h35.042c-0.253-21.456,0.739-79.285-2.528-114.944
									c-4.798,2.791-10.183,4.557-15.754,4.983c-15.231,1.166-18.077-7.567-23.714-19.68
									c-15.362-33.045-17.825-66.963-20.987-102.484c-1.646-18.491-2.148-37.288-2.18-55.603
									c-0.011-8.34,1.405-17.095,2.18-25.316c0.544-5.854,4.263-22.241,3.271-23.745l-17.444,5.451
									C734.794,568.133,741.164,590.07,740.203,605.66z"/>
								<path style="fill:#0E4459;" d="M763.098,487.912c3.051,5.867,8.176,17.444,6.566,41.43
									c-0.337,5.023-6.571,22.612-9.838,18.534l-5.45,3.27C765.007,537.983,764.697,504.485,763.098,487.912z"/>
								<g>
									<path style="fill:#0E4459;" d="M678.784,645.636l37.434,1.453c-3.999,18.898-5.765,42.291-6.708,60.889
										c-10.263-0.973-16.505-1.86-27.091-1.288C680.113,688.148,677.764,661.733,678.784,645.636z"/>
									<path style="fill:#0679B2;" d="M674.28,678.344c-0.756-11-1.097-21.706-0.583-29.801l37.432,1.454
										c-1.859,8.788-3.231,18.549-4.265,28.347H674.28z"/>
								</g>
								<path style="fill:#0EA3DD;" d="M774.131,282.878c3.676,1.09,6.946,3.336,9.661,6.225c0.73,0.764,1.428,1.526,2.082,2.301
									c0.567-3.673,1.275-7.435,2.148-11.305c-0.34-0.688-0.666-1.374-1.014-2.039c-0.96-1.842-4.71-6.563-9.627-9.605
									c-0.295,1.177-0.579,2.355-0.872,3.554l-0.448,1.897C775.331,276.958,774.687,279.945,774.131,282.878z"/>
								<path style="fill:#0EA3DD;" d="M681.165,280.447c7.828,2.159,15.045,6.574,21.206,13.073
									c2.726-2.224,5.768-4.154,8.667-5.582c0.938-0.458,1.908-0.829,2.901-1.08c-3.03-3.5-6.291-6.574-9.748-9.212
									c-3.836-0.077-7.62,0.055-11.306,0.556h-0.01c-1.318,0.163-2.639,0.392-3.924,0.676c-0.055,0.011-0.099,0.022-0.153,0.032
									C686.247,279.466,683.707,279.978,681.165,280.447z"/>
							</g>
							<path style="fill:#0EA3DD;" d="M671.714,407.64c1.298,17.564,3.554,39.762,1.984,54.109
								c-0.663,6.04-1.155,15.122-1.34,24.902c-0.065,3.805-0.088,7.708-0.044,11.579c0.011,1.471,0.033,2.943,0.065,4.394
								c1.439-9.213,3.697-18.099,5.484-27.453c2.159-11.273,3.806-23.19,5.104-34.877c1.167-10.554,1.461-22.481,9.975-30.015
								c8.788-7.773,16.104-10.335,22.568-20.856c6.596-10.75,6.999-21.097,9.617-32.707l-1.144-1.505
								c-2.355,26.614-17.357,52.027-53.01,39.489C671.081,398.514,671.365,402.908,671.714,407.64z"/>
							<g>
								<g>
									<path style="fill:#6D462B;" d="M787.683,513.018c-0.585,0.339-1.185,0.679-1.799,1.018
										c-1.966,1.084-4.032,2.139-5.911,3.057c-0.766,0.383-1.51,0.737-2.196,1.069c-2.522,1.207-5.131,2.248-7.811,3.151
										c-2.255,0.751-4.553,1.409-6.879,1.973c-13.188,3.194-27.386,3.483-39.959,2.84c-0.845-0.044-1.683-0.094-2.508-0.144
										c-0.86-0.051-1.705-0.109-2.543-0.166l-0.051-0.007c-3.7-0.26-7.493-0.737-11.315-1.423
										c-4.407-0.795-8.845-1.879-13.137-3.26c-0.672-0.209-1.337-0.433-1.995-0.672c-0.975-0.325-1.944-0.68-2.898-1.048
										c-3.266-1.257-6.401-2.695-9.314-4.321c-1.199-0.658-2.355-1.358-3.476-2.088c-0.577-0.369-1.149-0.752-1.704-1.149
										c-0.008,0-0.008-0.008-0.015-0.008c-0.52-0.368-1.025-0.744-1.524-1.12c-0.99-0.759-1.937-1.539-2.833-2.356
										c-1.236-5.557-1.214-9.907,0.78-15.341c0.391-1.076,0.874-2.197,1.438-3.381c-0.05,1.055,0.022,2.067,0.268,3.056
										c0.195,0.831,0.512,1.647,0.96,2.457c0.109,0.195,0.217,0.397,0.333,0.592c0.441,0.73,0.932,1.445,1.488,2.139
										c0.283,0.361,0.579,0.716,0.897,1.062c1.207,1.337,2.623,2.594,4.199,3.765c3.729,2.775,8.359,5.102,13.433,6.944
										c7.638,2.804,16.236,4.531,24.069,5.174c0.231,0.029,0.463,0.043,0.686,0.065c0.116,0.008,0.24,0.015,0.354,0.022
										c13.607,0.968,30.342-0.398,45.191-5.636c1.763-0.622,3.49-1.294,5.188-2.023c0.043-0.022,0.086-0.036,0.13-0.058
										c0.52-0.224,1.04-0.455,1.554-0.701c0.267-0.116,0.528-0.238,0.787-0.369c4.704-2.226,9.091-4.921,12.978-8.151
										c0.297-0.239,0.593-0.492,0.889-0.745c0.138,0.751,0.275,1.496,0.397,2.226c0.116,0.672,0.224,1.329,0.333,1.98
										C786.866,505.64,787.365,509.484,787.683,513.018z"/>
									<path style="opacity:0.5;fill:#6D462B;" d="M787.683,513.018c-0.585,0.339-1.185,0.679-1.799,1.018
										c-1.966,1.084-4.032,2.139-5.911,3.057c-0.766,0.383-1.51,0.737-2.196,1.069c-2.522,1.207-5.131,2.248-7.811,3.151
										c-2.255,0.751-4.553,1.409-6.879,1.973c-13.188,3.194-27.386,3.483-39.959,2.84c-0.845-0.044-1.683-0.094-2.508-0.144
										c-0.86-0.051-1.705-0.109-2.543-0.166l-0.051-0.007c-3.7-0.26-7.493-0.737-11.315-1.423
										c-4.407-0.795-8.845-1.879-13.137-3.26c-0.672-0.209-1.337-0.433-1.995-0.672c-0.975-0.325-1.944-0.68-2.898-1.048
										c-3.266-1.257-6.401-2.695-9.314-4.321c-1.199-0.658-2.355-1.358-3.476-2.088c-0.577-0.369-1.149-0.752-1.704-1.149
										c-0.008,0-0.008-0.008-0.015-0.008c-0.52-0.368-1.025-0.744-1.524-1.12c-0.99-0.759-1.937-1.539-2.833-2.356
										c-1.236-5.557-1.214-9.907,0.78-15.341c0.225-0.534,0.478-1.084,0.752-1.655c-0.086,1.727,0.181,3.346,0.961,4.95
										c0.087,0.195,0.18,0.383,0.29,0.571c0.188,0.332,0.383,0.664,0.599,0.99c0.239,0.39,0.507,0.766,0.781,1.142
										c0.599,0.788,1.264,1.553,1.994,2.29c1.076,1.113,2.298,2.16,3.649,3.151c3.78,2.789,8.469,5.123,13.614,6.98
										c7.732,2.818,16.439,4.567,24.366,5.224c0.354,0.044,0.715,0.065,1.055,0.094c0.029,0,0.065,0.008,0.095,0.008
										c13.591,0.968,30.247-0.325,45.104-5.369c1.871-0.636,3.713-1.329,5.513-2.089c0.13-0.05,0.267-0.108,0.398-0.166
										c0.57-0.246,1.142-0.498,1.713-0.751c0.318-0.152,0.643-0.296,0.961-0.455c4.4-2.074,8.519-4.559,12.219-7.507
										c0.397-0.311,0.787-0.636,1.177-0.968c0.116,0.672,0.224,1.329,0.333,1.98C786.866,505.64,787.365,509.484,787.683,513.018
										z"/>
								</g>
								<g>
									<path style="fill:#8B5D39;" d="M682.239,542.599c4.263,1.166,9.409,0.915,13.563,1.537
										c-1.341-5.899-2.944-13.781-2.431-20.987c0.272-3.816,1.144-7.436,2.965-10.467c-1.101-0.197-2.18-0.426-3.238-0.676
										c-3.837-0.905-7.414-2.148-10.51-3.773c-2.05,3.13-3.315,6.51-4.077,10.053c-0.871,4.012-1.123,8.231-1.167,12.494
										c-0.01,0.664-0.01,1.341-0.01,2.006C677.333,538.587,676.853,541.127,682.239,542.599z"/>
									<path style="opacity:0.5;fill:#6D462B;" d="M682.239,542.599c4.263,1.166,9.409,0.915,13.563,1.537
										c-1.341-5.899-2.944-13.781-2.431-20.987c0.272-3.816,1.144-7.436,2.965-10.467c-1.101-0.197-2.18-0.426-3.238-0.676
										c-0.709,2.148-1.222,4.372-1.406,6.683c-0.327,3.968-0.044,8.286-1.471,11.917c-2.771,7.064-8.352,4.393-12.878,0.174
										c-0.01,0.664-0.01,1.341-0.01,2.006C677.333,538.587,676.853,541.127,682.239,542.599z"/>
								</g>
								<g>
									<path style="fill:#8B5D39;" d="M661.445,591.876c1.047,5.026,2.758,9.354,5.44,12.233
										c9.583,10.336,34.573,12.069,42.542-0.752c6.596-10.608,8.896-39.904,3.248-51.58c-1.809-3.74-4.742-6.618-8.318-8.754
										c-10.565-6.324-26.776-6.258-36.654-2.966c0,0-4.568,4.089-4.907,5.997C661.553,553.085,658.141,576.013,661.445,591.876z"
										/>
									<path style="opacity:0.5;fill:#6D462B;" d="M661.445,591.876c1.047,5.026,2.758,9.354,5.44,12.233
										c9.583,10.336,34.573,12.069,42.542-0.752c6.596-10.608,8.896-39.904,3.248-51.58c-1.809-3.74-4.742-6.618-8.318-8.754
										c0.273,2.115,0.534,4.23,0.948,6.301c1.745,8.678,2.824,18.48,0.546,27.257
										C700.257,598.134,677.995,601.405,661.445,591.876z"/>
									<g>
										<path style="fill:#6D462B;" d="M661.837,576.198c1.745,1.057,4.012,1.963,6.596,2.671c0.011,0,0.033,0.01,0.054,0.01
											c11.338,3.118,28.718,2.672,35.073-3.107c6.464-5.876,8.722-22.099,3.173-28.564c-3.086-3.609-9.519-5.767-16.844-6.857
											c-9.278-1.374-19.996-1.014-27.247,0.36c0,0-4.48,2.268-4.808,3.325C656.233,549.16,650.945,569.569,661.837,576.198z"/>
										<path style="fill:#AD6D42;" d="M702.699,548.453c-2.038-2.218-5.527-3.656-9.321-4.589c0,0-0.008,0-0.015,0
											c-0.535-0.137-1.077-0.253-1.619-0.369c-3.736-0.766-7.603-1.098-10.572-1.236c-1.611-0.072-2.948-0.094-3.866-0.094
											c-0.643,0-1.286,0.007-1.921,0.022c-3.873,0.08-7.602,0.412-10.688,0.954l-0.065,0.022l-0.072,0.022
											c-1.497,0.708-4.061,2.03-4.372,2.948c-0.954,2.847-4.769,15.464,0.036,22.718v0.007c0.889,1.337,2.074,2.493,3.62,3.367
											c2.963,1.676,7.847,2.912,13.26,3.432c1.857,0.181,3.771,0.275,5.694,0.275c0.007,0,0.007,0,0.007,0
											c2.284,0,4.423-0.13,6.395-0.376c4.791-0.592,8.57-1.879,10.752-3.729c3.014-2.551,5.181-7.667,5.52-13.043
											C705.749,554.422,704.736,550.657,702.699,548.453z M704.382,558.714c-0.317,5.094-2.333,9.914-5.137,12.284
											c-1.756,1.482-4.763,2.602-8.563,3.231c-2.357,0.404-5.022,0.614-7.876,0.614h-0.007c-1.951,0-3.888-0.094-5.759-0.289
											c-5.189-0.505-9.842-1.684-12.661-3.281c-1.907-1.076-3.201-2.666-4.031-4.523c-3.289-7.262,0.347-18.693,0.874-20.269
											c0.122-0.253,0.939-0.787,1.951-1.358c0.564-0.31,1.186-0.636,1.786-0.917c3.021-0.52,6.683-0.846,10.477-0.925
											c0.622-0.015,1.244-0.022,1.872-0.022c5.803,0,10.954,0.52,15.102,1.481c4.43,1.018,7.725,2.536,9.488,4.451
											C703.732,551.177,704.635,554.653,704.382,558.714z"/>
										<g style="opacity:0.5;">
											<path style="fill:#6D462B;" d="M668.487,578.88c11.338,3.118,28.718,2.672,35.073-3.107
												c6.464-5.876,8.722-22.099,3.173-28.564c-3.086-3.609-9.519-5.767-16.844-6.857c4.644,7.392,7.97,15.579,5.8,24.421
												C692.321,578.554,680.285,581.323,668.487,578.88z"/>
										</g>
									</g>
								</g>
							</g>
						</g>
					</g>
				</g>
			</g>
		</g>
	</g>
</g>
</svg>
