<?xml version="1.0" encoding="utf-8"?>
<!-- Generator: Adobe Illustrator 27.5.0, SVG Export Plug-In . SVG Version: 6.00 Build 0)  -->
<svg version="1.1" id="Ñëîé_1" xmlns="http://www.w3.org/2000/svg" xmlns:xlink="http://www.w3.org/1999/xlink" x="0px" y="0px"
	 viewBox="0 0 3500 2000" style="enable-background:new 0 0 3500 2000;" xml:space="preserve">
<g id="_x36_">
	<rect style="fill:#FFFFFF;" width="3500" height="2000"/>
	<path style="fill:#777DE5;" d="M3351.962,1696.142H148.038c-6.718,0-12.166-4.478-12.166-10s5.447-10,12.166-10h3203.924
		c6.719,0,12.166,4.478,12.166,10S3358.68,1696.142,3351.962,1696.142z"/>
</g>
<g id="_x35_">
	<polygon style="fill:#F99370;" points="2400.029,946.247 2382.796,959.909 2352.3,928.902 2364.761,917.168 	"/>
	<path style="fill:#E8C0A6;" d="M2364.765,917.167c0,0,11.402,21.374,32.421,31.337c0,0,5.887-3.423,15.179-9.081h0.01
		c15.333-9.33,39.948-24.74,62.741-40.888c0,0,0-0.019,0.019-0.019c29.4-20.952,58.982-45.97,79.1-76.041
		c14.499-37.551,58.042-199.346,81.948-231.958C2501.46,612.183,2474.801,805.564,2364.765,917.167z"/>
	<path style="fill:#F99370;" d="M2731.161,1667.283l2.029-1.058c0,1.42,1.756,6.351,3.176,6.351l59.983,1.235
		c1.42,0,2.293-2.673,2.293-4.093l5.116-1.464c0-8.983-0.74-12.239-4.707-19.19c-5.128-8.969-7.236-19.845-6.289-30.569
		l8.614-98.144c0.132-1.503-1.052-2.795-2.561-2.795h-61.54c-1.5,0-2.681,1.279-2.563,2.774l7.857,99.05
		c0.829,10.392-1.16,20.937-6.076,29.643c-0.012,0.042-0.035,0.069-0.059,0.11
		C2732.479,1656.069,2731.161,1658.328,2731.161,1667.283z"/>
	<path style="fill:#F99370;" d="M2463.057,1675.914h119.48c5.457,0,9.759-4.579,9.486-10.029c-0.132-2.635-0.443-5.745-1.058-9.277
		c-1.727-9.964-2.446-20.066-2.266-30.169c0.083-4.837,0.373-9.674,0.871-14.497l8.601-83.921c0.574-5.6-3.82-10.467-9.449-10.467
		h-52.731c-5.715,0-10.136,5.01-9.425,10.681l9.591,76.466c2.098,16.729-8.678,32.333-25.04,36.406
		c-11.658,2.902-23.498,4.642-31.966,6.823c-1.092,0.29-2.183,0.58-3.234,0.885h-0.014c-8.979,2.563-16.401,5.923-20.692,12.229
		C2450.913,1667.359,2455.417,1675.914,2463.057,1675.914z"/>
	<path style="fill:#103663;" d="M2595.514,1663.519c-0.232,1.921-0.595,3.817-1.117,5.665c-1.124,3.981-4.759,6.731-8.896,6.731
		h-123.934c-6.317,0-10.843-6.224-8.748-12.183c0.025-0.071,0.05-0.142,0.076-0.213c4.811-13.529,21.9-33.694,80.463-37
		c0.887-0.05,1.784,0.027,2.649,0.235c4.408,1.06,20.729,4.271,45.462,0.844c4.424-0.613,8.652,1.998,10.062,6.235
		C2593.948,1641.098,2596.842,1652.647,2595.514,1663.519z"/>
	<path style="fill:#103663;" d="M2794.254,1675.916h-52.97c-6.662,0-12.044-5.527-11.756-12.183c0.003-0.071,0.006-0.142,0.01-0.213
		c0.663-14.566,6.827-36.788,38.225-37.078c31.509-0.276,37.604,22.333,38.239,37.078c0.004,0.086,0.007,0.171,0.01,0.256
		C2806.269,1670.416,2800.9,1675.916,2794.254,1675.916z"/>
	<path style="fill:#E8C0A6;" d="M2491.112,1659.142c-1.041,0-2.026-0.621-2.441-1.645c-4.764-11.751-13.354-15.348-13.717-15.495
		c-1.343-0.545-1.999-2.075-1.461-3.421c0.537-1.346,2.056-2.004,3.404-1.475c0.446,0.177,11.003,4.471,16.654,18.412
		c0.546,1.348-0.104,2.884-1.451,3.43C2491.776,1659.079,2491.441,1659.142,2491.112,1659.142z"/>
	<path style="fill:#E8C0A6;" d="M2511.575,1656.672c-1.124,0-2.165-0.725-2.515-1.855c-4.188-13.53-16.068-19.9-16.188-19.963
		c-1.286-0.675-1.785-2.265-1.112-3.552c0.672-1.286,2.256-1.788,3.545-1.119c0.566,0.294,13.93,7.387,18.786,23.077
		c0.43,1.389-0.348,2.864-1.737,3.294C2512.096,1656.634,2511.833,1656.672,2511.575,1656.672z"/>
	<path style="fill:#E8C0A6;" d="M2534.864,1653.81c-1.09,0-2.108-0.682-2.487-1.769c-4.918-14.135-16.275-21.83-16.39-21.906
		c-1.208-0.805-1.538-2.438-0.734-3.648c0.803-1.21,2.431-1.544,3.645-0.741c0.525,0.348,12.932,8.694,18.454,24.565
		c0.478,1.373-0.248,2.874-1.622,3.353C2535.443,1653.763,2535.151,1653.81,2534.864,1653.81z"/>
	<path style="fill:#E8C0A6;" d="M2748.306,1642.19c-1.002,0-1.959-0.574-2.4-1.546c-0.601-1.324-0.014-2.886,1.311-3.486
		c0.937-0.424,23.118-10.271,40.878,0.126c1.256,0.734,1.677,2.348,0.942,3.603c-0.733,1.254-2.346,1.68-3.603,0.942
		c-15.437-9.036-35.838,0.032-36.042,0.126C2749.039,1642.115,2748.669,1642.19,2748.306,1642.19z"/>
	<path style="fill:#0F2E54;" d="M2452.895,1663.519h142.619c-0.525,4.353-1.728,8.582-3.911,12.396h-130.036
		c-6.317,0-10.843-6.224-8.748-12.183C2452.844,1663.661,2452.869,1663.59,2452.895,1663.519z"/>
	<path style="fill:#0F2E54;" d="M2794.254,1675.916h-52.97c-6.662,0-12.044-5.527-11.756-12.183l0.01-0.213h76.464
		c0.004,0.086,0.007,0.171,0.01,0.256C2806.269,1670.416,2800.9,1675.916,2794.254,1675.916z"/>
	<path style="fill:#F99370;" d="M2636.24,590.394c-2.938-25.621,1.07-62.571,4.643-77.791c1.879-8.219,7.761-14.437,14.373-16.501
		c16.912-5.873,36.934,8.536,31.73,27.598c-1.533-0.965-6.443,53.387-3.054,68.477
		C2728.569,605.568,2594.319,649.601,2636.24,590.394z"/>
	<path style="fill:#E57D61;" d="M2687.442,521.226c-0.055,0.345-0.097,0.705-0.166,1.05c-0.083,0.484-0.179,0.953-0.29,1.423
		c-1.106-0.732-4.201,29.256-4.229,51.022c-20.453,9.301-43.256,5.21-47.429,4.353c-0.912-23.01,2.667-51.534,4.533-62.203
		c0.553-2.501,0.953-3.966,1.023-4.27c0.166-0.677,0.359-1.341,0.581-1.99c2.28-6.827,7.449-12.009,13.778-14.511
		c0.014,0,0.014,0,0.014,0c4.395-1.728,9.328-2.156,14.262-0.967c4.878,1.189,9.038,3.8,12.134,7.297
		c0.138,0.138,0.263,0.29,0.387,0.428C2686.212,507.821,2688.34,514.441,2687.442,521.226z"/>
	<path style="fill:#E8C0A6;" d="M2683.732,590.393c-2.937,84.821,56.984,164.588,94.536,201.939
		c66.731,51.808,196.56,41.211,265.271-0.85h0.013c5.282-3.598,9.701-7.357,13.11-11.211c-18.23-14.592-11.13-37.175-11.13-37.175
		C2889.569,781.036,2824.603,621.673,2683.732,590.393z"/>
	<g>
		<path style="fill:#F99370;" d="M3056.659,780.278c0,0,37.69-9.873,43.841-27.977c4.962-14.603-0.227-42.145-10.338-39.652
			c-10.112,2.492-41.348,24.61-44.631,30.445C3045.531,743.093,3036.583,763.609,3056.659,780.278z"/>
		<g>
			<path style="fill:#8E4A35;" d="M2988.727,1545.312c-0.506,0-1.016-0.029-1.53-0.088c-7.28-0.836-12.505-7.416-11.669-14.696
				l117.894-1026.63c0.837-7.28,7.417-12.501,14.696-11.669c7.28,0.836,12.505,7.416,11.669,14.696l-117.894,1026.63
				C3001.115,1540.32,2995.377,1545.312,2988.727,1545.312z"/>
			<g>
				<path style="fill:#F9B233;" d="M2928.001,1674.914c26.25,4.954,57.072,4.03,84.945,4.253
					c24.193-2.118,109.49,10.83,102.158-25.254c-10.441-35.569-70.301-33.974-73.461-81.486
					c-1.927-55.323,4.662-62.172-33.044-123.243c0,0-74.234-11.249-122.387,77.555
					C2859.304,1576.357,2803.758,1675.916,2928.001,1674.914z"/>
				<path style="fill:#F39200;" d="M3006.256,1545.03c-3.332,33.908-6.777,68.961,28.336,81.721
					c33.659,12.232,62.584,27.969,79.858,38.279c1.691-3.065,2.055-6.746,0.652-11.117c-17.876-10.457-45.786-25.285-77.917-36.959
					c-26.808-9.738-25.906-33.234-22.21-70.75c2.593-26.341,5.261-53.576-8.205-74.593l-7.015,6.16
					C3011.129,1495.516,3008.662,1520.684,3006.256,1545.03z"/>
				<path style="fill:#F39200;" d="M2963.402,1618.992c2.355,27.646,25.304,47.152,49.544,60.176
					c8.393,0.058,16.535,0.132,24.352,0.19c-28.148-11.205-62.584-31.019-65.177-61.393
					c-4.635-54.294,24.377-140.517,24.666-141.383l-8.155-3.784C2987.404,1476.421,2958.554,1562.233,2963.402,1618.992z"/>
				<path style="fill:#F39200;" d="M2902.935,1594.103c2.33,41.608,12.452,65.103,25.066,80.811h0.012
					c4.71,0.851,9.708,1.569,15.007,2.156c-15.546-14.461-28.662-35.976-31.33-83.642c-3.633-64.737,76.401-127.318,77.216-127.934
					l-4.835-8.58C2980.601,1459.599,2898.976,1523.412,2902.935,1594.103z"/>
			</g>
			<path style="fill:#3A5D9B;" d="M2993.775,1478.938l2.038,0.234c8.498,0.976,16.178-5.122,17.154-13.62l9.374-81.632
				c1.041-9.061-5.461-17.249-14.522-18.29l0,0c-9.061-1.041-17.25,5.461-18.29,14.522l-9.374,81.632
				C2979.179,1470.282,2985.277,1477.962,2993.775,1478.938z"/>
		</g>
		<path style="fill:#F99370;" d="M3048.823,740.303c6.582-10.168,14.346-19.553,23.614-27.412
			c5.02-3.625,20.953-16.986,25.174-7.747c0.598,2.238-0.609,4.518-2.691,5.351c-14.799,7.449-23.697,23.419-30.584,37.924
			C3059.507,760.442,3041.725,751.169,3048.823,740.303z"/>
		<g>
			<path style="fill:#F99370;" d="M3094.629,757.107c0.65-0.091,0.793-0.131,1.125-0.199c0.285-0.062,0.551-0.131,0.811-0.203
				c0.521-0.144,1.018-0.315,1.509-0.505c0.978-0.384,1.928-0.88,2.814-1.492c0.886-0.606,1.707-1.34,2.375-2.16
				c0.693-0.814,1.19-1.707,1.587-2.602c1.177-2.65-0.428-5.627-3.584-6.648c-2.225-0.719-4.626-0.276-6.262,0.977l-2.483,1.911
				c-0.049,0.038,0.053-0.052,0.031-0.038c0,0-0.041,0.033-0.112,0.06l-0.103,0.034c-0.015,0.004-0.021,0.006-0.021,0.006
				l0.276-0.041c-3.564,0.441-5.997,3.239-5.435,6.25C3087.721,755.466,3091.066,757.549,3094.629,757.107z"/>
			<path style="fill:#F99370;" d="M3096.306,746.389c0.513-0.17,0.657-0.233,0.942-0.344l0.712-0.305
				c0.461-0.208,0.901-0.431,1.337-0.672c0.869-0.484,1.717-1.051,2.529-1.732c0.811-0.673,1.579-1.508,2.225-2.451
				c0.656-0.947,1.126-2.057,1.412-3.189c0.688-2.98-1.625-5.892-5.167-6.505c-3.542-0.613-6.97,1.307-7.658,4.287
				c0.009-0.142,0.122-0.171-0.11,0.034c-0.113,0.092-0.283,0.215-0.5,0.336c-0.107,0.059-0.225,0.121-0.339,0.171l-0.159,0.069
				c-0.009,0.006-0.162,0.057,0.048-0.012c-3.363,1.07-5.031,4.247-3.725,7.095C3089.158,746.019,3092.943,747.46,3096.306,746.389z
				"/>
			<path style="fill:#F99370;" d="M3098.42,735.217l5.071-3.474c2.785-1.908,3.184-5.376,0.891-7.745
				c-2.293-2.37-6.41-2.744-9.195-0.835l-5.071,3.474c-2.785,1.908-3.184,5.376-0.891,7.745
				C3091.518,736.751,3095.635,737.125,3098.42,735.217z"/>
			<path style="fill:#F99370;" d="M3098.737,725.227l5.071-3.474c2.785-1.908,3.184-5.376,0.891-7.745
				c-2.293-2.37-6.41-2.744-9.195-0.836l-5.071,3.474c-2.785,1.908-3.184,5.376-0.891,7.746
				C3091.835,726.762,3095.952,727.136,3098.737,725.227z"/>
		</g>
	</g>
	<path style="fill:#163260;" d="M2593.951,481.304c0,0-3.118-26.418,2.745-44.908l15.383,5.412L2593.951,481.304z"/>
	<path style="fill:#F99370;" d="M2601.797,554.92c19.358,15.528,46.62,17.356,67.403,10.227c6.497-2.121,12.554-5.204,17.778-9.388
		h0.009c1.766-1.413,3.418-2.923,4.972-4.557h0.026c24.968-29.108,27.277-82.047,6.757-113.08
		c-14.437-24.055-48.662-35.702-72.819-19.854c-16.855,11.413-21.763,31.836-27.209,51.029c-1.792,5.295-5.677,12.403-9.662,17.398
		C2573.704,506.346,2576.963,533.901,2601.797,554.92z"/>
	<path style="fill:#C16256;" d="M2628.911,484.461c-1.005-1.505-0.6-3.541,0.906-4.546c1.506-1.005,3.541-0.6,4.546,0.906
		c1.005,1.505,0.6,3.541-0.906,4.546C2631.952,486.372,2629.916,485.966,2628.911,484.461z"/>
	<path style="fill:#C16256;" d="M2601,483.124c-1.005-1.505-0.6-3.541,0.906-4.546c1.506-1.005,3.541-0.6,4.546,0.906
		c1.005,1.505,0.6,3.541-0.906,4.546C2604.041,485.035,2602.006,484.629,2601,483.124z"/>
	<path style="fill:#C16256;" d="M2612.823,510.307c-3.789,0-7.591-1.278-8.816-3.408c-0.47-0.816-1.224-2.955,1.909-5.169
		c5.748-4.061,8.75-17.347,8.779-17.481c0.147-0.669,0.808-1.09,1.479-0.943c0.668,0.148,1.091,0.81,0.942,1.479
		c-0.129,0.584-3.239,14.357-9.77,18.971c-0.742,0.524-1.55,1.28-1.19,1.906c1.02,1.773,7.115,3.148,11.086,1.331
		c0.621-0.285,1.359-0.011,1.644,0.612c0.285,0.623,0.011,1.359-0.612,1.644C2616.691,509.973,2614.759,510.307,2612.823,510.307z"
		/>
	<path style="fill:#E57D61;" d="M2603.175,453.63c0,0,22.83-10.925,39.071-8.814c16.232,2.102,26.76-0.274,26.76-0.274
		s-0.159,27.299,29.233,43.249l5.255,24.393c0,0-2.605,27.44-16.515,43.575h0.009c1.766-1.413,3.418-2.923,4.972-4.557h0.026
		c5.325-5.564,9.432-12.355,12.585-20.339c0.918-2.376,1.766-4.866,2.535-7.445c1.139-3.859,2.093-7.931,2.897-12.241
		c0.239-1.201,0.459-2.429,0.662-3.674c0.194-1.095,0.362-2.217,0.539-3.338c0.203-1.678,0.424-3.391,0.645-5.158
		c0-0.212,0.035-0.415,0.062-0.645c0.177-1.687,0.336-3.374,0.433-5.025c0.124-1.811,0.177-3.603,0.203-5.405
		c0.194-18.9-4.937-36.342-13.804-49.811c-4.001-6.076-8.761-11.331-14.139-15.552c-0.309-0.221-0.592-0.442-0.892-0.671
		c-7.489-5.661-16.153-9.273-25.576-10.333c-4.072-0.442-7.904-0.539-11.534-0.247c-5.334,0.397-10.2,1.607-14.616,3.568
		c-0.194,0.079-0.38,0.168-0.556,0.247c-1.917,0.892-3.753,1.934-5.502,3.135c-2.623,1.766-5.043,3.85-7.304,6.27
		c-2.5,2.658-4.778,5.714-6.854,9.159C2608.386,439.314,2605.533,445.973,2603.175,453.63z"/>
	<path style="fill:#163260;" d="M2695.178,421.298c-1.924-20.112-23.491-17.388-45.718-34.059
		c-28.863-21.647-57.625-7.216-65.392,13.98c-8.681,23.69,6.005,52.4,21.948,44.282c15.943-8.118,38.032-8.88,53.261-6.851
		c4.911,0.654,10.325,0.241,15.409-0.617c0,0.001,2.533,27.402,27.672,43.27h20.364
		C2722.723,481.304,2737.391,434.767,2695.178,421.298z"/>
	
		<ellipse transform="matrix(0.0895 -0.996 0.996 0.0895 1975.5363 3152.6072)" style="fill:#F99370;" cx="2712.083" cy="495.786" rx="19.237" ry="15.477"/>
	<path style="fill:#C16256;" d="M2720.198,503.155c-0.072,0-0.146-0.006-0.22-0.02c-0.675-0.121-1.123-0.766-1.002-1.44
		c1.349-7.515,0.677-12.496-1.944-14.404c-3.479-2.534-9.636,0.695-9.697,0.727c-0.606,0.322-1.355,0.095-1.678-0.509
		c-0.323-0.604-0.097-1.354,0.507-1.678c0.307-0.165,7.581-3.995,12.321-0.55c3.497,2.539,4.484,8.209,2.933,16.852
		C2721.311,502.734,2720.788,503.155,2720.198,503.155z"/>
	<path style="fill:#C16256;" d="M2708.497,502.805c-0.115,0-0.231-0.016-0.348-0.05c-0.657-0.191-1.036-0.88-0.845-1.538
		c0.13-0.446,3.287-10.942,12.627-12.688c0.673-0.128,1.321,0.319,1.447,0.991c0.125,0.673-0.318,1.321-0.992,1.447
		c-7.856,1.468-10.672,10.848-10.699,10.943C2709.529,502.453,2709.034,502.805,2708.497,502.805z"/>
	<path style="fill:#D1A68F;" d="M2765.054,731.091v48.049c5.619,6.292,10.227,10.793,13.218,13.191
		c3.449,2.776,7.087,5.349,10.874,7.734c44.748,28.377,111.701,31.651,168.4,21.882
		C2955.755,821.961,2804.911,822.917,2765.054,731.091z"/>
	<path style="fill:#E8C0A6;" d="M2512.05,946.247c12.895,47.941,289.964,42.309,294.101,8.408l-8.296-98.618
		c-6.844-83.858-62.792-215.124-114.123-265.643c-56.223,41.337-48.17,2.627-47.551,0.121
		C2539.626,651.863,2526.995,833.7,2512.05,946.247z"/>
	<path style="fill:#D1A68F;" d="M2617.587,603.032c5.136,39.071,68.82,14.356,84.645-7.788c0,0-7.596-4.743-18.5-4.851
		c-52.579,36.635-48.143,2.534-47.524,0.027c0,0-7.44-0.654-18.623,5.113C2617.329,597.069,2617.587,601.496,2617.587,603.032z"/>
	<path style="fill:#D1A68F;" d="M3043.539,791.482h0.013c5.282-3.598,9.701-7.357,13.11-11.211
		c-18.23-14.592-11.13-37.175-11.13-37.175c-6.387,1.388-12.571,2.466-18.581,3.288
		C3026.952,746.384,3024.298,777.523,3043.539,791.482z"/>
	<path style="fill:#F99370;" d="M2305.572,953.172c0.875,2.161,3.415,3.097,5.503,2.091c6.201-2.72,12.694-4.901,19.338-6.111
		c-4.844,11.279-12.988,21.245-12.97,21.325c-11.595,9.834-23.701,19.023-36.227,27.668c-4.081,2.673-0.186,9.264,4.147,6.889
		c13.165-6.857,26.072-14.314,38.547-22.392c0.053,0.055,0.109,0.106,0.163,0.16c-9.729,12.607-20.167,24.703-31.553,35.841
		c-6.685,24.365,38.698-25.167,42.318-28.778c0.035,0.015,0.07,0.029,0.104,0.044c-7.13,13.378-15.896,25.896-25.876,37.321
		c-4.45,25.146,37.366-28.541,39.689-33.509c0.06,0.01,0.119,0.019,0.178,0.028c-4.078,11.347-9.603,22.17-15.634,32.624
		c-0.488,22.823,26.646-24.194,28.783-28.834c4.822-9.283,14.516-12.852,22.429-43.819c2.173-8.633-14.435-26.076-23.177-26.189
		c-9.833-0.127-23.096,6.853-26.627,8.815C2328.542,938.202,2303.3,945.356,2305.572,953.172z"/>
	<path style="fill:#1D3F70;" d="M2506.146,981.15L2506.146,981.15c2.913-53.519,30.897-303.103,74.634-365.51
		c4.155-9.043,22.395-13.073,22.395-13.073c-23.419,53.146-28.686,110.045-28.686,110.045s25.344,13.588,58.64,13.588
		c44.254,0,87.03-10.348,87.03-10.348c-4.338-61.419,0.739-113.939,0.739-113.939c13.33,0.286,21.012,9.223,21.012,9.223
		c-4.219,184.432,55.945,244.901,55.945,244.901c4.568,40.594,11.97,131.145,11.97,131.145l0,0
		c8.653,58.214,16.574,303.172,4.761,621.139c0,0-59.719,13.723-90.485-1.023c-16.012-94.984-60.467-359.514-75.949-540.778
		c-0.593,10.57-33.12,436.829-39.311,540.778c-21.26,6.732-63.961,14.827-87.855-1.451
		C2511.654,1499.123,2464.297,1263.342,2506.146,981.15z"/>
	<path style="fill:#103663;" d="M2608.841,1607.298c0,0-7.377,2.474-18.26,4.685l-0.176-0.041c0,0,30.006-423.021,34.476-479.474
		c4.47-56.453,23.271-65.948,23.271-65.948S2608.344,1598.163,2608.841,1607.298z"/>
	<path style="fill:#103663;" d="M2610.024,1586.789c-0.804,12.203-1.242,19.5-1.183,20.509c0,0-7.377,2.474-18.26,4.685
		c-19.385,3.939-49.874,7.048-69.595-6.136c0,0-0.76-6.703-2.001-19.057C2518.984,1586.789,2560.852,1605.004,2610.024,1586.789z"/>
	<path style="fill:#103663;" d="M2814.586,1608.32c0,0-59.719,13.723-90.485-1.023c0,0-1.271-7.352-3.492-20.509
		c0,0,40.699,11.153,93.333,0C2814.177,1599.614,2814.397,1607.256,2814.586,1608.32z"/>
	<path style="fill:#D1A68F;" d="M2364.765,917.167c0,0,11.402,21.374,32.421,31.337c0,0,5.887-3.423,15.179-9.081
		c-24.241-6.799-36.198-34.53-36.198-34.53C2372.475,909.065,2368.668,913.159,2364.765,917.167z"/>
	<path style="fill:#103663;" d="M2801.243,895.619c0,0-176.657,34.008-285.169-5.03c0,0-7.55,21.116-3.679,32.659
		c0,0,111.576,38.447,292.267,3.451C2804.662,926.699,2807.771,909.33,2801.243,895.619z"/>
	<path style="fill:#C16256;" d="M2642.204,477.117c-0.254,0-0.512-0.065-0.747-0.201c-0.085-0.048-8.519-4.839-15.668-3.897
		c-0.822,0.108-1.574-0.47-1.683-1.292c-0.107-0.821,0.471-1.575,1.292-1.683c8.179-1.075,17.18,4.055,17.558,4.274
		c0.717,0.414,0.963,1.331,0.549,2.048C2643.228,476.848,2642.723,477.117,2642.204,477.117z"/>
	<path style="fill:#C16256;" d="M2600.207,473.926c-0.55,0-1.08-0.304-1.343-0.83c-0.37-0.741-0.07-1.642,0.671-2.013
		c6.098-3.048,11.969-1.193,12.216-1.113c0.787,0.257,1.218,1.103,0.961,1.891c-0.256,0.786-1.098,1.219-1.887,0.962
		c-0.086-0.026-5.001-1.53-9.948,0.943C2600.661,473.875,2600.433,473.926,2600.207,473.926z"/>
	<path style="fill:#C16256;" d="M2613.619,522.594c-3.965,0-8.671-0.703-13.004-3.162c-0.721-0.409-0.974-1.325-0.564-2.045
		c0.409-0.721,1.327-0.971,2.045-0.564c8.752,4.967,19.773,1.691,19.884,1.658c0.793-0.242,1.631,0.204,1.873,0.995
		c0.242,0.792-0.201,1.63-0.992,1.873C2622.579,521.435,2618.71,522.594,2613.619,522.594z"/>
</g>
<g id="_x34_">
	<path style="fill:#C92828;" d="M2054.081,594.09c-38.974-44.966-19.708-101.295-66.46-140.605
		c-25.829-21.717-46.979-5.547-46.979-5.547c0.491,2.969,1.215,7.359,1.96,11.884c-63.971-3.306-132.125,113.006-142.711,138.811
		c74.307,29.477,161.415,30.98,224.692,13.921C2033.015,608.984,2062.267,606.503,2054.081,594.09z"/>
	<rect x="1902.67" y="595.717" style="fill:#F99370;" width="46.26" height="54.883"/>
	<path style="fill:#E57D61;" d="M1902.741,595.717v24.646c26.079,9.135,46.26,0,46.26,0v-24.646H1902.741z"/>
	<path style="fill:#F99370;" d="M1869.656,533.501c1.167,28.87,10.237,64.305,40.149,74.623c1.114,0.443,2.3,0.828,3.47,1.203
		c48.216,19.223,112.081-32.551,77.95-78.587c-4-4.901-7.889-11.868-9.735-17.086c0,0,0,0,0.001-0.007
		C1964.182,420.871,1867.701,450.678,1869.656,533.501z"/>
	<path style="fill:#E57D61;" d="M1948.076,460.25l-0.698,6.58c15.036,3.658,28.83,32.248,33.917,46.29
		C1975.153,491.398,1968.756,469.452,1948.076,460.25z"/>
	<path style="fill:#E57D61;" d="M1871.752,552.839c3.172,19.453,11.346,40.512,28.429,50.577
		c-20.51-15.161-19.999-47.231-19.999-47.231L1871.752,552.839z"/>
	<path style="fill:#E57D61;" d="M1869.656,533.501l14.577,8.458c19.881-6.799,41.416-35.992,41.416-35.992l-43.011-21.911
		C1874.072,497.482,1869.239,514.811,1869.656,533.501z"/>
	<path style="fill:#C92828;" d="M1794.812,594.608c18.851,17.595,63.381,21.81,98.783,26.625
		c-28.964-30.175-23.846-85.187-23.846-85.187c45.909-11.97,62.939-32.01,75.273-61.519c2.991-8.317,3.594-13.997,3.598-14.036
		c-31.996-63.273-119.232-10.954-126.791,41.161c-4.555,15.219-6.781,28.524-21.815,49.993
		C1789.034,567.31,1791.75,584.693,1794.812,594.608z"/>
	<path style="fill:#F99370;" d="M1855.05,542.82c2.655,24.775,32.733,21.651,30.319-3.123
		C1882.714,514.923,1852.636,518.047,1855.05,542.82z"/>
	<path style="fill:#C16256;" d="M1862.295,548.645c0.759,0.006,1.354-0.709,1.203-1.455c-3.212-13.329,2.978-18.188,11.287-13.675
		c1.391,0.755,2.553-1.459,1.132-2.172c-9.726-5.25-18.66,0.346-14.823,16.308C1861.206,548.237,1861.719,548.645,1862.295,548.645z
		"/>
	<path style="fill:#C16256;" d="M1873.812,548.153c3.431-0.386-2.157-12.156-11.417-13.971c-0.661-0.119-1.3,0.329-1.417,0.995
		c-0.117,0.666,0.329,1.3,0.995,1.416C1871.407,538.599,1871.352,547.72,1873.812,548.153z"/>
	<path style="fill:#C16256;" d="M1951.954,529.028c2.332-3.483-3.173-7.099-5.412-3.533
		C1944.21,528.978,1949.715,532.594,1951.954,529.028z"/>
	<path style="fill:#C16256;" d="M1979.417,527.36c2.332-3.483-3.173-7.099-5.412-3.533
		C1971.672,527.31,1977.177,530.926,1979.417,527.36z"/>
	<path style="fill:#C16256;" d="M1967.9,554.388c5.573-0.118,13.291-3.036,6.911-8.561c-5.718-3.951-8.83-17.051-8.861-17.183
		c-0.337-1.544-2.769-0.991-2.385,0.556c0.135,0.576,3.367,14.159,9.853,18.641c0.739,0.511,1.547,1.252,1.193,1.881
		c-3.878,4.587-11.565,0.178-12.505,2.071C1961.67,554.423,1965.975,554.16,1967.9,554.388z"/>
	<path style="fill:#C16256;" d="M1961.147,567.282c-15.24,0-18.78-12.373-18.814-12.501c-0.218-0.799,0.255-1.624,1.054-1.841
		c0.8-0.218,1.621,0.254,1.84,1.05c0.126,0.448,3.2,10.733,16.799,10.277c0.85-0.023,1.522,0.62,1.55,1.448
		c0.028,0.828-0.62,1.522-1.448,1.55C1961.796,567.276,1961.468,567.282,1961.147,567.282z"/>
	<path style="fill:#C16256;" d="M1940.641,520.458c-0.655,0-1.258-0.433-1.443-1.095c-0.224-0.797,0.24-1.624,1.037-1.849l0,0
		c0.086-0.025,8.673-2.533,14.066-10.148c0.479-0.676,1.415-0.835,2.091-0.357c0.676,0.479,0.836,1.415,0.356,2.091
		c-6.024,8.506-15.309,11.19-15.701,11.301C1940.911,520.44,1940.775,520.458,1940.641,520.458z"/>
	<path style="fill:#C16256;" d="M1979.982,519.776c-0.487,0-0.966-0.237-1.254-0.675c-4.068-6.182-12.12-7.5-12.2-7.513
		c-0.819-0.128-1.379-0.894-1.252-1.713c0.128-0.819,0.9-1.376,1.713-1.251c0.384,0.06,9.454,1.548,14.245,8.827
		c0.455,0.692,0.264,1.622-0.429,2.078C1980.552,519.697,1980.266,519.776,1979.982,519.776z"/>
	<path style="fill:#F99370;" d="M1973.34,1672.887v2.546l63.565-1.929c1.406,0,6.097-2.78,6.097-4.186l2.821-3.094
		c0-8.898-0.663-10.504-4.575-17.39c-14.487-19.178,3.088-107.776,2.534-130.268h-66.19c-0.75,22.515,15.871,111.073,1.976,130.227
		C1975.63,1655.707,1973.339,1663.965,1973.34,1672.887z"/>
	<path style="fill:#F99370;" d="M1738.939,1675.433h138.432c2.177-6.772-4.088-37.649-2.861-49.008
		c-0.461-7.045,9.644-98.406,10.397-107.859h-72.984l11.777,94.325c1.389,11.124-5.221,21.721-15.818,25.232
		c-14.316,4.743-30.619,6.802-41.39,9.589C1751.509,1651.515,1738.731,1657.393,1738.939,1675.433z"/>
	<path style="fill:#1D3F70;" d="M2062.047,925.365c2.277-46.625-28.094-87.659-43.142-131.528
		c-15.33-44.206-14.572-91.485-15.003-139.631c-14.873-8.832-58.253-21.864-55.91-20.192c-8.686,5.731-36.219,9.615-48.184,0
		c-20.664,5.265-38.011,11.54-55.828,20.206c0.64,36.535-6.574,111.713-24.623,152.993c-21.261,51.495-26.278,101.45-23.26,157.154
		c84.411,19.167,179.023,18.874,265.119,0C2061.616,957.785,2062.371,944.503,2062.047,925.365z"/>
	<path style="fill:#F99370;" d="M1885.188,840.164c0,0-32.282-15.654-52.86,0c0,0,12.68,26.274,35.017,26.556L1885.188,840.164z"/>
	<path style="fill:#E8C0A6;" d="M2046.715,920.38c-34.479,4.465-89.581-5.917-113.344-13.974
		c-48.293-15.893-65.966-41.356-65.966-41.356s-2.044-19.644,17.783-24.887c0,0,95.958,16.783,122.094,5.243
		c10.574-4.668,17.385-36.893,11.623-51.569c-22.876-58.262-15.228-139.192-15.228-139.192
		C2108.98,691.145,2180.974,888.963,2046.715,920.38z"/>
	<path style="fill:#E8C0A6;" d="M1933.386,906.393c-253.757,81.22-269.398-160.292-89.405-252.173c0,0,0.736,77.986-12.673,117.866
		c-20.418,60.727,8.732,85.718,36.1,92.965C1867.406,865.051,1933.386,906.393,1933.386,906.393z"/>
	<path style="fill:#1D3F70;" d="M2081.778,1203.753c-0.333,133.261-16.23,274.585-45.649,402.345c-31.164,16.071-51.631,0-51.631,0
		c-23.839-171.024-43.475-357.422-61.401-527.288c-0.525,176.564-24.68,359.282-47.734,533.256
		c-35.334,7.228-51.658,0.822-51.658,0.822c-52.413-208.25-60.03-474.378-28.348-684.357c104.72,23.806,266.69-3.165,266.69-3.165
		C2076.769,1004.198,2081.784,1123.76,2081.778,1203.753z"/>
	<path style="fill:#D1A68F;" d="M1930.591,907.359c-36.248-10.44-77.396-46.706-59.487-43.065
		c0.235,0.259,23.849,25.993,60.321,37.763C1934.325,902.896,1933.582,907.462,1930.591,907.359z"/>
	<path style="fill:#E8C0A6;" d="M1902.899,633.137c0,0-18.109-2.281-25.864,7.546c10.789,11.993,37.085,44.778,46.867-0.569
		c3.332,35.587,31.71,26.103,46.853,0.253C1943.068,618.366,1941.672,652.133,1902.899,633.137z"/>
	<path style="fill:#EB5648;" d="M1881.304,1662.389c-0.463,4.572-1.662,9.049-3.938,13.046h-138.432
		c2.094-27.532,17.23-43.251,82.438-49.011c0.002,0.003,20.102,6.012,53.132,0.003
		C1874.504,1626.426,1883.089,1645.126,1881.304,1662.389z"/>
	<path style="fill:#EB5648;" d="M2035.802,1675.434h-62.464c-12.334-57.098,71.69-69.512,74.73-13.047
		C2048.56,1669.447,2042.881,1675.442,2035.802,1675.434z"/>
	<path style="fill:#103663;" d="M2026.416,1599.716c38.692-274.311,48.097-462.599,21.011-619.493
		C2084.539,1132.536,2075.878,1326.502,2026.416,1599.716z"/>
	<path style="fill:#103663;" d="M1878.484,1589.643c-1.962,14.346-3.121,22.423-3.121,22.423
		c-35.334,7.228-51.658,0.822-51.658,0.822c-2.126-8.309-4.156-16.592-6.091-24.874
		C1817.614,1588.014,1842.114,1597.528,1878.484,1589.643z"/>
	<path style="fill:#103663;" d="M2040.449,1587.302c-2.671,12.197-4.32,18.795-4.32,18.795c-31.164,16.071-51.631,0-51.631,0
		c-0.791-5.448-1.581-11.061-2.385-16.824C1982.114,1589.274,2006.941,1597.966,2040.449,1587.302z"/>
	<path style="fill:#103663;" d="M1923.192,1090.624c-1.909,168.948-24.212,343.017-46.167,509.588l-18.273,1.547
		c29.889-97.032,37.72-444.372,64.372-520.279C1923.123,1080.917,1923.176,1087.676,1923.192,1090.624z"/>
	<path style="fill:#F99370;" d="M2049.01,832.55c-5.616-10.185-20.843-22.621-42.209-15.028v0v0
		c-31.542,12.781-38.603,31.806-38.603,31.806c11.059,0.161,24.845,3.131,34.139,0.757c4.747,1.64,8.52,5.849,11.006,15.805
		c2.355,10.489,11.75,5.139,10.178-4.191c3.708,9.859,13.075,4.348,9.587-6.02c13.377,7.496,6.243-16.914,1.694-22.833
		c1.901,1.513,3.648,3.388,5.178,5.676C2046.966,848.971,2054.42,842.362,2049.01,832.55z"/>
	<path style="fill:#E57D61;" d="M2023.521,862.89c-2.488-0.328-2.552-15.093-12.032-21.544c-3.158-3.208-8.964-0.585-10.132-2.652
		c1.688-3.729,8.714-1.101,11.474,0.685C2021.452,845.7,2026.711,862.74,2023.521,862.89z"/>
	<path style="fill:#E57D61;" d="M2033.108,856.869c-2.287,0.453-5.973-28.277-19.946-27.016c-0.647,0.077-1.243-0.389-1.321-1.042
		C2024.059,820.024,2037.767,858.267,2033.108,856.869z"/>
	<path style="fill:#E57D61;" d="M2035.292,834.035c-2.36-0.49-4.642-12.984-17.49-11.41c-0.651,0.1-1.257-0.348-1.355-0.998
		c-0.098-0.65,0.348-1.256,0.997-1.355C2030.453,818.278,2039.159,833.797,2035.292,834.035z"/>
	<path style="fill:#CE3932;" d="M1740.869,1662.389h140.435c-0.463,4.572-1.662,9.049-3.938,13.046h-138.432
		C1738.934,1675.434,1738.021,1669.822,1740.869,1662.389z"/>
	<path style="fill:#CE3932;" d="M2035.802,1675.434h-62.464c0,0-1.036-5.613-0.6-13.046h75.328
		C2048.561,1669.448,2042.88,1675.442,2035.802,1675.434z"/>
	<path style="fill:#E8C0A6;" d="M2032.21,1643.551c-23.741-15.488-41.683,3.414-45.844-1.281
		c-2.673-5.402,25.868-17.876,47.338-3.454C2035.79,1640.174,2034.655,1643.645,2032.21,1643.551z"/>
	<path style="fill:#E8C0A6;" d="M1779.86,1657.531c-1.034,0-2.012-0.621-2.419-1.641c-4.816-12.097-16.401-12.336-16.891-12.341
		c-3.355,0.031-3.357-5.256,0.011-5.205c0.633,0,15.568,0.178,21.716,15.621C1782.979,1655.627,1781.652,1657.564,1779.86,1657.531z
		"/>
	<path style="fill:#E8C0A6;" d="M1802.127,1653.534c-1.025,0-1.997-0.609-2.409-1.617c-5.452-13.306-18.228-17.173-18.356-17.21
		c-3.239-0.886-1.793-5.986,1.438-5.002c0.622,0.177,15.3,4.534,21.735,20.239
		C1805.258,1651.608,1803.929,1653.568,1802.127,1653.534z"/>
	<path style="fill:#E8C0A6;" d="M1825.782,1650.541c-1.159,0-2.217-0.78-2.519-1.955c-3.319-12.922-19.018-18.229-19.176-18.281
		c-9.055-11.647,20.855-0.3,24.216,16.986C1828.745,1648.908,1827.452,1650.563,1825.782,1650.541z"/>
	<path style="fill:#103663;" d="M1795.357,928.53c0,0,119.49,22.643,266.69-3.165c0,0,8.894,9.276,4.031,24.139
		c0,0-99.126,32.808-274.455,5.402C1791.623,954.906,1787.846,938.224,1795.357,928.53z"/>
</g>
<g id="_x33_">
	<path style="fill:#23659B;" d="M2382.8,1632.963c-8.835,0-16.478-6.602-17.561-15.593c-13.631-67.98-35.44-455.931-101.986-543.982
		c-48.075-87.275-134.364-57.408-151.269,35.086c-4.218,22.919-38.455,17.063-34.924-5.906
		c24.823-119.326,140.395-170.287,216.3-47.835c30.78,49.688,52.78,123.732,65.393,220.075
		c10.941,83.577,41.347,335.786,41.652,338.324C2401.742,1623.588,2393.331,1633.04,2382.8,1632.963z"/>
	<path style="fill:#23659B;" d="M2237.236,1464.82c-6.521,0-11.807-5.286-11.807-11.807s5.286-11.807,11.807-11.807
		c24.014,0,43.551-19.537,43.551-43.551v-38.367c0-24.014-19.537-43.551-43.551-43.551c-6.521,0-11.807-5.286-11.807-11.807
		s5.286-11.807,11.807-11.807c37.034,0,67.164,30.13,67.164,67.164v38.367C2304.4,1434.69,2274.271,1464.82,2237.236,1464.82z"/>
	
		<rect x="1941.328" y="1277.623" transform="matrix(-1 -1.224647e-16 1.224647e-16 -1 4189.0454 2756.9453)" style="fill:#C9D9F7;" width="306.39" height="201.7"/>
	
		<rect x="2013.167" y="1308.574" transform="matrix(-1 -1.224647e-16 1.224647e-16 -1 4189.0454 2756.9453)" style="fill:#23659B;" width="162.712" height="139.796"/>
	
		<rect x="1941.328" y="1357.851" transform="matrix(-1 -1.224647e-16 1.224647e-16 -1 4189.0454 2756.9453)" style="fill:#C9D9F7;" width="306.39" height="41.243"/>
	<path style="fill:#23659B;" d="M1949.23,1277.623h290.586c9.358,0,16.944-7.586,16.944-16.944v-18.729
		c0-9.358-7.586-16.944-16.944-16.944H1949.23c-9.358,0-16.944,7.586-16.944,16.944v18.729
		C1932.286,1270.036,1939.872,1277.623,1949.23,1277.623z"/>
	<path style="fill:#3A72AA;" d="M1950.519,1225.005h288.007v-4.154c0-63.696-51.636-115.331-115.332-115.331h-57.344
		c-63.696,0-115.331,51.636-115.331,115.331V1225.005z"/>
	<path style="fill:#3A72AA;" d="M2003.404,1676.638h149.046c57.609,0,104.31-46.701,104.31-104.31v-78.866
		c0-7.809-6.33-14.139-14.139-14.139h-296.197c-7.809,0-14.139,6.33-14.139,14.139v112.059
		C1932.286,1644.798,1964.126,1676.638,2003.404,1676.638z"/>
	<path style="fill:#3A72AA;" d="M2267.722,1676.639h230.202v0c0-33.903-27.484-61.387-61.387-61.387h-107.428
		C2295.206,1615.251,2267.722,1642.735,2267.722,1676.639L2267.722,1676.639z"/>
	
		<ellipse transform="matrix(0.7071 -0.7071 0.7071 0.7071 -541.2302 1872.0995)" style="fill:#23659B;" cx="1989.209" cy="1589.372" rx="87.266" ry="87.266"/>
	<circle style="fill:#3A72AA;" cx="1989.209" cy="1589.372" r="40.304"/>
</g>
<g id="_x32_">
	<rect x="384.032" y="588.057" style="fill:#F9B233;" width="291.423" height="83.351"/>
	<path style="fill:#F99370;" d="M929.739,767.503c-109.566,84.339-216.938,186.911-365.97,131.094
		c-22.794-7.3-19.794-36.383,4.001-36.388c139.548,5.17,185.536-62.552,267.329-153.305
		C891.101,650.305,993.158,716.682,929.739,767.503z"/>
	<path style="fill:#F99370;" d="M933.641,648.147l-0.303,15.519l17.657,24.036l30.099-24.72c0,0-0.718-11.274-0.229-18.114
		L933.641,648.147z"/>
	<path style="fill:#E57D61;" d="M987.326,596.679c-0.068,0.339-0.123,0.692-0.204,1.03c-0.101,0.474-0.214,0.935-0.341,1.394
		c-1.065-0.765-5.273,28.717-6.134,50.201c-20.57,8.398-42.949,3.488-47.041,2.482c-0.02-22.747,4.61-50.765,6.863-61.225
		c0.642-2.448,1.094-3.879,1.174-4.176c0.19-0.662,0.406-1.31,0.65-1.942c2.515-6.651,7.821-11.569,14.173-13.796
		c0.014,0.001,0.014,0.001,0.014,0.001c4.409-1.537,9.302-1.771,14.132-0.409c4.776,1.36,8.787,4.097,11.712,7.667
		c0.131,0.142,0.249,0.297,0.366,0.438C986.623,583.4,988.473,590.015,987.326,596.679z"/>
	<path style="fill:#E8C0A6;" d="M831.943,932.847c4.215,17.495,118.968,53.514,235.061,0.355
		c15.097-7.099-12.544-51.627-14.526-128.784c-0.376-14.41,0.148-29.958,2.017-46.62l-51.932-88.349
		c-3.607-1.076-17.609-5.298-21.466-6.46c-30.849,19.596-45.459,3.545-48.081,0.353c-1.011-0.743-19.012-0.693-23.642,1.649
		c-15.525,13.278-59.961,86.871-70.117,121.094c-8.827,26.546,6.697,40.434,3.568,69.401
		C840.769,882.703,825.717,906.315,831.943,932.847z"/>
	<path style="fill:#F99370;" d="M1000.643,1656.246v2.668h78.144v-2.668c0-9.323-2.414-17.986-6.539-25.201
		c-5.332-9.309-7.524-20.597-6.539-31.728c0,0,50.979-237.216,13.074-277.302c-16.751-17.714-92.503-12.758-102.026,13.916
		c-13.105,36.707,36.765,264.303,36.765,264.303c0.862,10.786-1.207,21.73-6.317,30.766c-0.012,0.043-0.037,0.072-0.062,0.115
		C1003.032,1638.317,1000.643,1646.952,1000.643,1656.246z"/>
	<path style="fill:#F99370;" d="M753.477,1658.914l144.44,4.013c0,0-0.275-11.289-1.101-23.804
		c-0.691-10.473-0.572-21.074-0.385-31.559c0.086-5.02,0.388-10.04,0.905-15.046c0,0,57.877-205.231,24.427-247.728
		c-16.371-20.799-69.953-53.81-86.579-33.213c-35.015,43.379,7.669,281.807,7.669,281.807c1.464,11.655-5.505,22.758-16.68,26.438
		c-15.095,4.97-32.286,7.127-43.644,10.047c-1.135,0.301-2.27,0.603-3.362,0.918h-0.014
		C764.253,1635.032,753.477,1641.386,753.477,1658.914z"/>
	<path style="fill:#EB5648;" d="M753.477,1658.914l138.387,4.929c0,0,7.728,0.637,7.585-4.929c-0.057-3.084,0.51-8.804-0.661-20.038
		c-1.088-10.439-2.543-20.827-2.357-31.312c0,0-23.938,39.344-117.263,23.222h-0.014c-12.142,3.457-21.539,8.319-24.614,19.478
		C753.85,1652.804,753.477,1655.658,753.477,1658.914z"/>
	<path style="fill:#EB5648;" d="M1000.647,1656.246v2.668h78.137v-2.668c0-2.022-0.115-4.03-0.345-5.981
		c-0.79-7.042-2.96-13.569-6.193-19.22c0,0-29.887-24.24-65.033-0.043c-0.014,0.043-0.043,0.072-0.072,0.115
		c-3.219,5.623-5.374,12.135-6.15,19.148C1000.762,1652.216,1000.647,1654.224,1000.647,1656.246z"/>
	<path style="fill:#E8C0A6;" d="M833.474,1538.492c2.117,11.665,3.468,18.548,3.65,19.536c32.344,9.997,68.797,1.506,68.797,1.506
		c0-0.014,0.014-0.014,0.014-0.029c0.352-0.573,0.706-1.234,1.049-1.879c40.021-81.423,32.16-343.512,44.529-413.878
		c-0.06,66.056,25.351,324.043,53.178,414.179c20.697,12.268,62.545,1.84,69.86,0c38.972-155.76,5.34-167.797,33.995-347.899
		c15.314-122.6,6.755-210.55-38.86-279.035c0,0-170.007,25.695-236.788,4.633c-32.198,105.473-23.333,239.423-29.351,319.814
		C796.345,1324.647,823.402,1483.112,833.474,1538.492z"/>
	<path style="fill:#E8C0A6;" d="M836.386,840.36c3.823-2.488,9.503-6.195,13.287-8.669c8.076-44.066,48.155-165.689,48.155-165.689
		c-32.872,2.414-86.177,44.204-107.166,75.7c0,0,0,0,0.005,0.01c-3.394,4.993-6.535,10.16-9.42,15.516
		C781.246,757.228,790.495,810.192,836.386,840.36z"/>
	<path style="fill:#D1A68F;" d="M1000.648,1537.662h-0.402c2.73,12.608,4.44,20.267,4.44,20.267c21.611,13.182,69.861,0,69.861,0
		c1.595-6.655,3.06-13.038,4.411-19.177l-0.172-0.258C1078.785,1538.494,1040.234,1552.551,1000.648,1537.662z"/>
	<path style="fill:#D1A68F;" d="M833.468,1538.494c2.241,12.321,3.65,19.536,3.65,19.536c32.344,9.997,68.797,1.506,68.797,1.506
		c2.845-4.748,5.733-12.249,8.564-21.874C914.479,1537.662,875.367,1553.11,833.468,1538.494z"/>
	<path style="fill:#D1A68F;" d="M906.964,1557.643c2.515-4.748,6.098-12.165,8.584-20.599
		c14.613-49.542,26.807-154.405,25.7-225.461c-1.063-68.174,10.259-167.832,10.259-167.832s-25.662-1.105-27.861,32.961
		c-2.198,34.051-3.305,109.97,0,147.823c3.305,37.838-12.156,186.779-23.694,217.23
		C896.087,1551.991,900.024,1556.352,906.964,1557.643z"/>
	<path style="fill:#D1A68F;" d="M951.502,1146.791c-0.616,0-1.238-0.186-1.776-0.575c-0.921-0.665-22.62-16.652-27.759-48.393
		c-0.268-1.658,0.858-3.22,2.517-3.488c1.659-0.255,3.219,0.858,3.488,2.517c4.721,29.163,25.112,44.285,25.319,44.435
		c1.357,0.986,1.66,2.887,0.676,4.246C953.372,1146.355,952.444,1146.791,951.502,1146.791z"/>
	<path style="fill:#D64343;" d="M1078.784,1658.914L1078.784,1658.914c0,9.356-7.598,16.941-16.971,16.941h-44.196
		c-9.373,0-16.971-7.585-16.971-16.941l0,0H1078.784z"/>
	<path style="fill:#D1A68F;" d="M842.113,836.32c0,0,4.455-1.52,4.215-2.754c-4.67-24.032-2.503-73.926-2.503-73.926l-0.005-0.01
		c0,0-14.783,32.372-12.419,63.067L842.113,836.32z"/>
	<path style="fill:#D64343;" d="M899.448,1658.914L899.448,1658.914c0.279,9.273-7.175,16.941-16.469,16.941H769.953
		c-9.099,0-16.476-7.364-16.476-16.447v-0.494H899.448z"/>
	<path style="fill:#F99370;" d="M1010.865,670.956c458.523,177.067,21.19,411.729,97.906,299.118
		c69.64-70.114,35.449-134.198-25.703-154.935C1061.749,807.909,1017.552,671.414,1010.865,670.956z"/>
	<path style="fill:#E8C0A6;" d="M981.097,662.987c0.809,5.789,1.777,11.396,2.883,16.821c16.976,83.22,66.63,123.835,66.63,123.835
		l1.869,0.774l21.614,8.905l0.011,0.011l19.244,7.927c-4.352-45.653,21.956-103.283,21.956-103.283
		c-5.97-4.129-11.838-7.95-17.581-11.476c-42.954-26.478-78.707-36.884-98.874-40.945
		C987.511,663.272,981.097,662.987,981.097,662.987z"/>
	<path style="fill:#D1A68F;" d="M1074.091,813.323l0.011,0.011l19.244,7.927c-4.352-45.653,21.956-103.283,21.956-103.283
		c-5.97-4.129-11.838-7.95-17.581-11.476C1096.981,707.401,1067.825,743.33,1074.091,813.323z"/>
	<path style="fill:#D1A68F;" d="M909.374,664.989c17.874,36.508,70.682,29.182,89.474,0.569c-11.337-2.286-17.751-2.57-17.751-2.57
		c-30.421,19.563-45.563,3.435-47.796,0.728l0.034-0.046c0,0-0.023,0-0.068,0c-0.171-0.216-0.251-0.33-0.251-0.33
		C931.569,663.003,916.573,661.768,909.374,664.989z"/>
	<path style="fill:#D1A68F;" d="M835.912,840.36l6.201-4.039l4.215-2.754c-3.919-2.871-7.577-5.944-10.989-9.163
		c-35.219-33.159-44.969-81.812-45.145-82.691c-1.269,1.865-2.51,3.767-3.728,5.721l-0.006,0.015
		c-0.691,1.088-1.362,2.192-2.03,3.332c-1.255,2.095-2.473,4.248-3.657,6.448C780.773,757.228,790.021,810.192,835.912,840.36z"/>
	<path style="fill:#8C4225;" d="M999.798,624.443c0,0,46.902-17.099,38.791-77.148c-8.111-60.048-45.463-70.059-80.542-60.858
		L999.798,624.443z"/>
	<path style="fill:#8C4225;" d="M1022.437,454.94c46.493,32.07,3.805,96.355-43.788,65.952
		C932.156,488.822,974.845,424.537,1022.437,454.94z"/>
	<path style="fill:#8C4225;" d="M968.357,489.639c-56.076-23.886-91.992,65.152-62.331,110.391L968.357,489.639z"/>
	<path style="fill:#F99370;" d="M1018.04,574.209c-3.029,20.843-9.684,44.388-25.894,58.396l-0.027,0
		c-45.741,40.578-136.678-19.664-91.922-71.8c13.58-12.943,16.153-35.542,26.939-48.374
		C968.857,463.48,1028.387,521.024,1018.04,574.209z"/>
	<path style="fill:#C16256;" d="M938.492,562.616c-1.959-3.584,3.715-6.578,5.568-2.938
		C946.018,563.262,940.344,566.256,938.492,562.616z"/>
	<path style="fill:#C16256;" d="M911.963,558.578c-1.959-3.584,3.715-6.578,5.568-2.938
		C919.489,559.225,913.815,562.219,911.963,558.578z"/>
	<path style="fill:#C16256;" d="M922.393,585.795c-5.763,0.021-14.782-3.725-7.576-8.958c5.893-3.31,10.075-15.705,10.117-15.83
		c6.076-4.737-2.377,14.595-8.949,17.907c-4.618,2.93,5.136,5.547,9.132,4.071c0.626-0.212,1.3,0.124,1.51,0.747
		C927,585.866,923.881,585.613,922.393,585.795z"/>
	<path style="fill:#E57D61;" d="M1018.04,574.209c-3.029,20.843-9.684,44.388-25.894,58.396l-0.027,0
		c8.927-11.441,14.211-36.811,14.211-36.811l-4.476-11.179c-72.554-22.181-67.264-80.258-67.264-80.258
		c10.624-9.577,25.135-11.707,39.022-8.481C1007.641,504.115,1021.783,540.508,1018.04,574.209z"/>
	<path style="fill:#8C4225;" d="M942.183,499.081c0,0-4.923,57.265,60.049,79.732l22.989-13.159
		C1047.147,520.938,1005.196,456.414,942.183,499.081z"/>
	<path style="fill:#F99370;" d="M1031.408,584.509c-4.749,23.709-33.696,18.056-29.176-5.697
		C1006.981,555.104,1035.928,560.757,1031.408,584.509z"/>
	<path style="fill:#C16256;" d="M1023.984,589.509c-0.784,0.021-1.394-0.768-1.163-1.522c4.308-12.64-1.345-17.836-9.769-14.215
		c-1.413,0.608-2.343-1.644-0.901-2.205c9.86-4.209,18.102,1.947,12.958,17.081C1024.961,589.163,1024.494,589.501,1023.984,589.509
		z"/>
	<path style="fill:#C16256;" d="M1012.84,588.017c-3.705-0.238,3.169-11.761,12.194-12.512c0.638-0.051,1.231,0.434,1.285,1.09
		c0.054,0.656-0.434,1.231-1.09,1.285C1016.002,578.978,1015.022,587.675,1012.84,588.017z"/>
	<path style="fill:#F4D4BE;" d="M1018.558,595.611c0.105,3.468-5.345,3.553-5.347,0.083
		C1013.107,592.226,1018.556,592.141,1018.558,595.611z"/>
	<path style="fill:#C16256;" d="M930.144,604.868c-0.951,0.282-1.925,0.396-2.872,0.328c-1.944-0.137-3.549-1.011-4.519-2.461l0,0
		c-1.933-2.887-0.619-7.169,2.93-9.544c1.671-1.117,3.597-1.662,5.422-1.534c1.944,0.138,3.549,1.012,4.519,2.462
		c0.97,1.449,1.167,3.266,0.554,5.117c-0.576,1.737-1.813,3.309-3.484,4.427C931.889,604.201,931.026,604.607,930.144,604.868z
		 M928.949,594.404c-0.639,0.189-1.27,0.487-1.863,0.884c-2.393,1.602-3.397,4.314-2.237,6.045l0,0
		c0.527,0.788,1.451,1.267,2.602,1.349c1.269,0.091,2.631-0.308,3.84-1.114c1.208-0.808,2.093-1.918,2.493-3.125
		c0.363-1.094,0.272-2.131-0.255-2.919c-0.528-0.789-1.452-1.268-2.602-1.349C930.28,594.128,929.61,594.208,928.949,594.404z"/>
	<path style="fill:#1D3F70;" d="M1081.917,1275.617c-0.326,14.863-0.575,24.078-0.575,24.078s-158.305,22.764-284.209-5.801
		c0.013-78.243,0.92-250.402,34.808-361.045c-16.198-25.251,24.222-34.363,21.625-82.629c-10.77-93.886,10.575-90.99,43.369-183.409
		c0,0,6.53-6.827,12.437-1.822c0,0-13.185,48.309-21.096,84.738c-7.105,32.746,32.957,44.503,68.935,36.774
		c32.833-7.057,38.011-50.783,45.088-120.217c0,0,9.349-3.999,12.418,3.088c0,0-4.66,52.816,11.603,107.896
		c20.633,72.228-21.276,131.709,43.985,136.106c0,0,8.62,7.029-0.614,17.625c-55.952,16.434,10.993,69.594,11.646,142.819
		C1084.851,1119.134,1082.991,1227.269,1081.917,1275.617z"/>
	<path style="fill:#F99370;" d="M1093.309,976.015c-7.925,7.055-18.748,11.541-18.764,11.61c-12.688,3.458-25.54,6.224-38.521,8.412
		c-4.177,0.601-3.536,7.181,0.729,6.905c12.828-0.555,25.674-1.674,38.408-3.436c0.022,0.062,0.047,0.123,0.069,0.185
		c-12.24,6.31-24.849,11.961-37.849,16.515c-13.998,16.622,39.452-5.546,43.701-7.055c0.022,0.025,0.044,0.049,0.066,0.073
		c-10.508,7.88-21.985,14.481-34.014,19.779c-12.378,17.996,39.768-8.742,43.445-11.75c0.043,0.029,0.086,0.058,0.129,0.087
		c-7.35,7.389-15.642,13.838-24.194,19.814c-8.86,18.309,32.639-11.069,35.862-14.246c3.609-1.031,20.788-14.35,35.628-32.54
		c4.863-5.961-9.84-21.114-17.291-22.408c-12.803-1.774-20.854-0.302-31.405-1.384L1093.309,976.015z"/>
	<path style="fill:#F99370;" d="M567.839,898.598c0,0-46.154,1.231-54.58-26.173c-4.533-14.742-3.188-42.025,7.093-40.359
		c10.28,1.665,20.738,1.924,51.059,33.929C571.411,865.995,586.5,880.358,567.839,898.598z"/>
	<path style="fill:#8E4A35;" d="M529.744,1676.035c-7.328,0-13.269-5.94-13.269-13.269V714.083c0-7.328,5.941-13.268,13.269-13.268
		c7.328,0,13.269,5.94,13.269,13.268v948.684C543.013,1670.095,537.072,1676.035,529.744,1676.035z"/>
	<path style="fill:#F99370;" d="M547.327,865.239c-2-13.874-11.533-26.261-24.715-31.331c-2.264-1.019-3.273-3.68-2.255-5.943
		c3.929-6.038,12.683,0.157,17.836,1.992c8.23,4.169,15.083,10.882,20.074,18.619C577.141,874.941,549.4,881.637,547.327,865.239z"
		/>
	<path style="fill:#F99370;" d="M519.5,876.741c-0.655-0.038-0.801-0.066-1.137-0.108c-0.289-0.039-0.56-0.086-0.825-0.137
		c-0.531-0.102-1.04-0.232-1.545-0.381c-1.006-0.304-1.993-0.721-2.926-1.259c-0.933-0.532-1.81-1.197-2.542-1.961
		c-0.756-0.755-1.324-1.605-1.793-2.465c-1.387-2.546-0.029-5.643,3.034-6.916c2.159-0.897,4.588-0.649,6.32,0.467l2.63,1.704
		c0.052,0.034-0.057-0.047-0.034-0.036c0,0,0.043,0.029,0.116,0.051l0.105,0.025c0.015,0.003,0.021,0.004,0.021,0.004l-0.279-0.018
		c3.588,0.151,6.24,2.743,5.924,5.789C526.253,874.545,523.088,876.892,519.5,876.741z"/>
	<path style="fill:#F99370;" d="M516.961,866.194c-0.525-0.128-0.673-0.179-0.967-0.266l-0.734-0.246
		c-0.476-0.17-0.933-0.356-1.387-0.562c-0.906-0.412-1.797-0.909-2.66-1.521c-0.863-0.606-1.696-1.375-2.416-2.263
		c-0.73-0.89-1.289-1.959-1.665-3.064c-0.927-2.915,1.143-6.005,4.623-6.902c3.48-0.898,7.053,0.738,7.981,3.652
		c-0.02-0.141-0.136-0.161,0.112,0.024c0.12,0.082,0.3,0.192,0.526,0.294c0.112,0.05,0.235,0.102,0.352,0.143l0.164,0.056
		c0.009,0.006,0.166,0.044-0.049-0.008c3.439,0.794,5.358,3.825,4.287,6.77C524.056,865.246,520.4,866.988,516.961,866.194z"/>
	<path style="fill:#F99370;" d="M513.949,855.229l-5.336-3.052c-2.931-1.676-3.609-5.1-1.515-7.648
		c2.094-2.548,6.167-3.254,9.098-1.578l5.336,3.052c2.931,1.676,3.609,5.1,1.515,7.648
		C520.953,856.199,516.88,856.905,513.949,855.229z"/>
	<path style="fill:#F99370;" d="M512.825,845.298l-5.336-3.052c-2.931-1.676-3.609-5.1-1.515-7.648
		c2.094-2.548,6.167-3.254,9.098-1.578l5.336,3.052c2.931,1.676,3.609,5.1,1.515,7.648
		C519.828,846.268,515.755,846.975,512.825,845.298z"/>
	<path style="fill:#3A5D9B;" d="M529.744,768.263c-12.588,0-22.792-10.204-22.792-22.792v-61.367
		c0-12.588,10.204-22.792,22.792-22.792c12.588,0,22.792,10.204,22.792,22.792v61.367
		C552.536,758.059,542.331,768.263,529.744,768.263z"/>
	<path style="fill:#8E4A35;" d="M384.031,686.235c-7.295,0-13.228-5.894-13.267-13.198c-0.039-7.328,5.87-13.3,13.198-13.339
		l291.423-1.558c0.023-0.001,0.048-0.001,0.072-0.001c7.296,0,13.228,5.894,13.267,13.198c0.039,7.328-5.87,13.3-13.198,13.339
		l-291.423,1.558C384.079,686.234,384.055,686.235,384.031,686.235z"/>
	<path style="fill:#103663;" d="M1081.917,1275.617c-0.326,14.863-0.575,24.078-0.575,24.078s-158.305,22.764-284.209-5.801
		c0,0-0.134-8.534-0.086-23.186C798.398,1270.995,931.082,1298.995,1081.917,1275.617z"/>
	<path style="fill:#F39200;" d="M389.439,657.961c-2.913,0-5.274-2.361-5.274-5.274v-57.918c0-2.913,2.361-5.274,5.274-5.274
		s5.274,2.361,5.274,5.274v57.918C394.713,655.6,392.352,657.961,389.439,657.961z"/>
	<path style="fill:#F39200;" d="M670.009,657.961c-2.913,0-5.274-2.361-5.274-5.274v-57.918c0-2.913,2.361-5.274,5.274-5.274
		s5.274,2.361,5.274,5.274v57.918C675.283,655.6,672.922,657.961,670.009,657.961z"/>
	<path style="fill:#F39200;" d="M409.479,657.961c-2.913,0-5.274-2.361-5.274-5.274v-57.918c0-2.913,2.361-5.274,5.274-5.274
		s5.274,2.361,5.274,5.274v57.918C414.753,655.6,412.392,657.961,409.479,657.961z"/>
	<path style="fill:#F39200;" d="M429.52,657.961c-2.913,0-5.274-2.361-5.274-5.274v-57.918c0-2.913,2.361-5.274,5.274-5.274
		s5.274,2.361,5.274,5.274v57.918C434.794,655.6,432.433,657.961,429.52,657.961z"/>
	<path style="fill:#F39200;" d="M449.561,657.961c-2.913,0-5.274-2.361-5.274-5.274v-57.918c0-2.913,2.361-5.274,5.274-5.274
		s5.274,2.361,5.274,5.274v57.918C454.835,655.6,452.474,657.961,449.561,657.961z"/>
	<path style="fill:#F39200;" d="M469.602,657.961c-2.913,0-5.274-2.361-5.274-5.274v-57.918c0-2.913,2.361-5.274,5.274-5.274
		s5.274,2.361,5.274,5.274v57.918C474.875,655.6,472.514,657.961,469.602,657.961z"/>
	<path style="fill:#F39200;" d="M489.643,657.961c-2.913,0-5.274-2.361-5.274-5.274v-57.918c0-2.913,2.361-5.274,5.274-5.274
		s5.274,2.361,5.274,5.274v57.918C494.917,655.6,492.555,657.961,489.643,657.961z"/>
	<path style="fill:#F39200;" d="M509.683,657.961c-2.913,0-5.274-2.361-5.274-5.274v-57.918c0-2.913,2.361-5.274,5.274-5.274
		s5.274,2.361,5.274,5.274v57.918C514.957,655.6,512.596,657.961,509.683,657.961z"/>
	<path style="fill:#F39200;" d="M529.724,657.961c-2.913,0-5.274-2.361-5.274-5.274v-57.918c0-2.913,2.361-5.274,5.274-5.274
		s5.274,2.361,5.274,5.274v57.918C534.998,655.6,532.637,657.961,529.724,657.961z"/>
	<path style="fill:#F39200;" d="M549.765,657.961c-2.912,0-5.274-2.361-5.274-5.274v-57.918c0-2.913,2.361-5.274,5.274-5.274
		c2.913,0,5.274,2.361,5.274,5.274v57.918C555.039,655.6,552.677,657.961,549.765,657.961z"/>
	<path style="fill:#F39200;" d="M569.805,657.961c-2.913,0-5.274-2.361-5.274-5.274v-57.918c0-2.913,2.361-5.274,5.274-5.274
		s5.274,2.361,5.274,5.274v57.918C575.079,655.6,572.718,657.961,569.805,657.961z"/>
	<path style="fill:#F39200;" d="M589.846,657.961c-2.913,0-5.274-2.361-5.274-5.274v-57.918c0-2.913,2.361-5.274,5.274-5.274
		s5.274,2.361,5.274,5.274v57.918C595.12,655.6,592.759,657.961,589.846,657.961z"/>
	<path style="fill:#F39200;" d="M609.887,657.961c-2.913,0-5.274-2.361-5.274-5.274v-57.918c0-2.913,2.361-5.274,5.274-5.274
		s5.274,2.361,5.274,5.274v57.918C615.161,655.6,612.799,657.961,609.887,657.961z"/>
	<path style="fill:#F39200;" d="M629.928,657.961c-2.913,0-5.274-2.361-5.274-5.274v-57.918c0-2.913,2.361-5.274,5.274-5.274
		s5.274,2.361,5.274,5.274v57.918C635.202,655.6,632.84,657.961,629.928,657.961z"/>
	<path style="fill:#F39200;" d="M649.968,657.961c-2.913,0-5.274-2.361-5.274-5.274v-57.918c0-2.913,2.361-5.274,5.274-5.274
		s5.274,2.361,5.274,5.274v57.918C655.242,655.6,652.881,657.961,649.968,657.961z"/>
	<path style="fill:#C16256;" d="M911.56,550.371c-0.449,0-0.893-0.2-1.188-0.583c-0.505-0.654-0.388-1.593,0.265-2.1
		c0.312-0.243,7.738-5.889,16.27-1.694c0.743,0.366,1.049,1.265,0.684,2.008c-0.366,0.744-1.265,1.049-2.008,0.684
		c-6.819-3.355-12.856,1.179-13.109,1.373C912.201,550.269,911.879,550.371,911.56,550.371z"/>
	<path style="fill:#C16256;" d="M949.096,558.61c-0.607,0-1.178-0.371-1.404-0.973c-1.157-3.08-2.836-5.131-4.988-6.098
		c-2.819-1.267-5.61-0.257-5.638-0.246c-0.775,0.299-1.641-0.088-1.938-0.861c-0.297-0.773,0.088-1.641,0.861-1.938
		c0.159-0.062,3.952-1.482,7.944,0.309c2.909,1.306,5.119,3.923,6.568,7.779c0.292,0.775-0.101,1.641-0.876,1.932
		C949.45,558.579,949.272,558.61,949.096,558.61z"/>
</g>
<g id="_x31_">
	<path style="fill:#F99370;" d="M1531.774,1668.283l2.029-1.058c0,1.42,1.756,6.351,3.176,6.351l59.983,1.235
		c1.42,0,2.293-2.673,2.293-4.093l5.116-1.464c0-8.983-0.739-12.239-4.707-19.19c-5.128-8.969-7.236-19.845-6.289-30.569
		l8.614-98.144c0.132-1.503-1.052-2.795-2.561-2.795h-61.54c-1.5,0-2.681,1.279-2.562,2.774l7.857,99.05
		c0.829,10.392-1.161,20.937-6.076,29.643c-0.012,0.042-0.036,0.069-0.059,0.11
		C1533.093,1657.069,1531.774,1659.328,1531.774,1668.283z"/>
	<path style="fill:#F99370;" d="M1263.671,1676.914h119.48c5.457,0,9.759-4.579,9.486-10.029c-0.132-2.635-0.443-5.745-1.058-9.277
		c-1.728-9.964-2.446-20.066-2.267-30.169c0.083-4.837,0.373-9.674,0.871-14.497l8.601-83.921c0.574-5.6-3.82-10.467-9.45-10.467
		h-52.731c-5.715,0-10.136,5.01-9.425,10.681l9.591,76.466c2.098,16.729-8.678,32.333-25.039,36.406
		c-11.659,2.902-23.498,4.642-31.966,6.823c-1.092,0.29-2.183,0.58-3.234,0.885h-0.014c-8.979,2.563-16.401,5.923-20.692,12.229
		C1251.526,1668.359,1256.031,1676.914,1263.671,1676.914z"/>
	<path style="fill:#103663;" d="M1396.128,1664.519c-0.232,1.921-0.595,3.817-1.117,5.665c-1.124,3.981-4.759,6.731-8.896,6.731
		h-123.935c-6.316,0-10.843-6.224-8.748-12.183c0.025-0.071,0.05-0.142,0.076-0.213c4.811-13.529,21.9-33.694,80.463-37
		c0.887-0.05,1.785,0.027,2.649,0.235c4.408,1.06,20.729,4.271,45.462,0.844c4.424-0.613,8.652,1.998,10.062,6.235
		C1394.562,1642.098,1397.456,1653.647,1396.128,1664.519z"/>
	<path style="fill:#103663;" d="M1594.868,1676.916h-52.97c-6.662,0-12.044-5.527-11.756-12.183c0.003-0.071,0.006-0.142,0.01-0.213
		c0.663-14.566,6.827-36.788,38.225-37.078c31.509-0.276,37.603,22.333,38.239,37.078c0.004,0.086,0.007,0.171,0.01,0.256
		C1606.883,1671.416,1601.514,1676.916,1594.868,1676.916z"/>
	<path style="fill:#E8C0A6;" d="M1291.727,1660.142c-1.041,0-2.026-0.621-2.441-1.645c-4.764-11.751-13.354-15.348-13.717-15.495
		c-1.343-0.545-2-2.075-1.462-3.421c0.538-1.345,2.056-2.004,3.404-1.475c0.447,0.177,11.003,4.471,16.655,18.412
		c0.546,1.348-0.103,2.883-1.451,3.43C1292.391,1660.079,1292.056,1660.142,1291.727,1660.142z"/>
	<path style="fill:#E8C0A6;" d="M1312.189,1657.672c-1.124,0-2.165-0.725-2.515-1.855c-4.188-13.53-16.069-19.9-16.188-19.963
		c-1.286-0.675-1.785-2.265-1.113-3.552c0.673-1.286,2.256-1.788,3.545-1.119c0.566,0.294,13.93,7.387,18.787,23.077
		c0.43,1.389-0.348,2.864-1.737,3.294C1312.71,1657.634,1312.447,1657.672,1312.189,1657.672z"/>
	<path style="fill:#E8C0A6;" d="M1335.478,1654.81c-1.09,0-2.109-0.682-2.487-1.769c-4.943-14.208-16.271-21.828-16.385-21.903
		c-1.213-0.803-1.546-2.436-0.744-3.649c0.802-1.213,2.436-1.547,3.649-0.743c0.526,0.348,12.933,8.694,18.455,24.565
		c0.478,1.374-0.249,2.874-1.622,3.353C1336.057,1654.763,1335.765,1654.81,1335.478,1654.81z"/>
	<path style="fill:#E8C0A6;" d="M1587.375,1643.19c-0.452,0-0.91-0.116-1.328-0.361c-15.386-9.008-35.839,0.034-36.043,0.127
		c-1.324,0.597-2.885,0.009-3.483-1.314c-0.599-1.324-0.013-2.883,1.31-3.483c0.936-0.424,23.117-10.271,40.878,0.126
		c1.255,0.734,1.677,2.348,0.942,3.603C1589.16,1642.724,1588.279,1643.19,1587.375,1643.19z"/>
	<path style="fill:#0F2E54;" d="M1253.509,1664.519h142.619c-0.525,4.353-1.728,8.582-3.911,12.396h-130.036
		c-6.316,0-10.843-6.224-8.748-12.183C1253.458,1664.661,1253.483,1664.59,1253.509,1664.519z"/>
	<path style="fill:#0F2E54;" d="M1594.868,1676.916h-52.97c-6.662,0-12.044-5.527-11.756-12.183l0.01-0.213h76.464
		c0.004,0.086,0.007,0.171,0.01,0.256C1606.883,1671.416,1601.514,1676.916,1594.868,1676.916z"/>
	<path style="fill:#E8C0A6;" d="M1590.164,772.788c0,0-7.364-5.437-17.068-14.604c13.885,63.556,19.159,199.154,19.159,199.154
		s-103.667,41.281-265.759-6.223c0,0,10.107-69.674,11.938-83.875c2.196-17.231,2.416-35.594,5.562-55.779
		c2.378-15.16,1.678-32.794,3.184-49.029c0.393-4.248,0.93-8.39,1.726-12.379c-21.863-11.718-55.252-23.273-55.252-23.273
		c2.8-6.223,5.888-12.571,9.263-18.938c22.131-41.789,56.805-84.623,106.543-99.246c3.557-1.045,10.308-3.184,20.031-5.063
		c17.183-3.318,43.688-5.82,78.38,0c0.623,0.096,1.256,0.201,1.889,0.316l0.019,0.019c50.131,10.27,96.609,39.67,138.37,94.797
		c0.7,0.93,1.41,1.86,2.109,2.81c4.2,5.648,8.352,11.564,12.447,17.749C1660.576,719.358,1604.95,726.905,1590.164,772.788z"/>
	<path style="fill:#8E4A35;" d="M1662.769,719.224c-0.168-0.251-0.335-0.503-0.503-0.737c0.151,0.235,0.302,0.486,0.436,0.737
		C1662.752,719.224,1662.769,719.224,1662.769,719.224z"/>
	<path style="fill:#D1A68F;" d="M1507.871,603.533c0,0-21.038,28.997-51.723,28.019s-26.657-28.019-26.657-28.019
		C1446.674,600.215,1473.178,597.712,1507.871,603.533z"/>
	<path style="fill:#D1A68F;" d="M1384.01,759.191l-36.831,3.241c0.393-4.248,0.93-8.39,1.726-12.379
		c-21.863-11.718-55.252-23.273-55.252-23.273c2.8-6.223,5.888-12.571,9.263-18.938c0.825,0.259,51.522,15.86,68.034,27.194
		C1387.596,746.457,1384.01,759.191,1384.01,759.191z"/>
	<path style="fill:#1D3F70;" d="M1614.557,1587.789c20.067-444.131-24.991-681.332-24.991-681.332s-45.992-106.289-41.774-290.721
		c0,0-9.482-7.838-22.811-8.124c0,0-3.028,47.622,1.31,109.041c0,0-34.85,11.028-81.242,11.028
		c-33.684,0-60.715-12.233-60.715-12.233s10.32-59.858,25.127-106.852c0,0-16.842-0.119-21.007,8.921
		c0,0-30.237,68.475-39.55,132.537c-7.916,54.454-22.41,201.057-22.41,201.057c-50.925,276.712-15.808,548.039-6.897,636.679
		c1.242,12.355,2.002,19.057,2.002,19.057c19.721,13.184,50.209,10.075,69.595,6.136c10.883-2.211,18.261-4.685,18.261-4.685
		c-0.058-1.009,0.38-8.306,1.183-20.509c6.574-98.935,38.128-520.27,38.128-520.27c13.557,165.394,59.398,442.99,72.458,520.27
		c2.22,13.156,3.491,20.509,3.491,20.509c30.766,14.746,90.485,1.023,90.485,1.023
		C1615.01,1608.256,1613.979,1600.603,1614.557,1587.789z"/>
	<path style="fill:#103663;" d="M1409.455,1608.298c0,0-7.377,2.474-18.261,4.685l-0.175-0.041c0,0,30.006-423.021,34.476-479.474
		c4.47-56.453,23.271-65.948,23.271-65.948S1408.958,1599.163,1409.455,1608.298z"/>
	<path style="fill:#103663;" d="M1410.638,1587.789c-0.803,12.203-1.241,19.5-1.183,20.509c0,0-7.377,2.474-18.261,4.685
		c-19.385,3.939-49.873,7.048-69.595-6.136c0,0-0.76-6.703-2.002-19.057C1319.598,1587.789,1361.466,1606.004,1410.638,1587.789z"/>
	<path style="fill:#103663;" d="M1327.02,945.843c0,0,118.781,30.128,268.647,0c0,0,4.632-15.739-3.914-26.529
		c0,0-135.101,25.633-262.05,0C1329.703,919.315,1322.752,935.575,1327.02,945.843z"/>
	<path style="fill:#103663;" d="M1615.2,1609.32c0,0-59.719,13.723-90.485-1.023c0,0-1.271-7.352-3.492-20.509
		c0,0,40.699,11.153,93.334,0C1614.791,1600.614,1615.01,1608.256,1615.2,1609.32z"/>
	<path style="fill:#F99370;" d="M1262.938,844.21c3.601,63.531,119.563,60.398,80.536,32.113
		c0.321,0.262-12.842-11.216-12.842-11.249c-15.971-17.482-0.945-42.493,11.591-58.551l6.682-56.47
		c-21.861-11.718-46.184-20.277-52.705-22.372C1274.09,760.345,1257.81,802.542,1262.938,844.21z"/>
	<path style="fill:#F99370;" d="M1466.227,924.248c9.271,0.05,8.576-8.298,17.779-8.901
		c99.547,15.133,212.208-35.755,197.036-146.769c-3.236-17.938-9.623-34.334-18.34-49.355c-2.196,0.268-57.133,7.293-72.406,53.177
		c24.593,46.79-30.574,89.678-127.255,115.177C1433.603,889.505,1436.353,921.767,1466.227,924.248z"/>
	<path style="fill:#3A72AA;" d="M1283.938,1192.625c0,0,42.554,21.401,92.001,21.401c42.805,0,89.064-21.401,89.064-21.401
		l24.791-204.451h-230.64L1283.938,1192.625z"/>
	<path style="fill:#3A72AA;" d="M1259.162,988.181h8.95c0-9.619,1.633-18.904,4.701-27.657c2.419-6.964,5.724-13.573,9.836-19.75
		c0.413-0.649,0.866-1.298,1.318-1.947c10.17-14.537,24.687-26.458,41.939-34.326v-0.02c1.613-0.728,3.226-1.416,4.879-2.085
		c7.377-2.951,15.186-5.174,23.31-6.57c6.59-1.141,13.416-1.731,20.38-1.731c0.846,0,1.691,0,2.518,0.039
		c3.875,0.059,7.691,0.334,11.448,0.767c10.898,1.279,21.264,3.993,30.864,7.967c9.619,3.974,18.471,9.186,26.261,15.403
		c1.908,1.515,3.738,3.069,5.488,4.701c1.554,1.436,3.069,2.911,4.505,4.426c3.462,3.58,6.609,7.396,9.422,11.429
		c0.452,0.649,0.905,1.298,1.318,1.947c1.2,1.79,2.321,3.639,3.383,5.508c1.456,2.557,2.774,5.193,3.954,7.888
		c4.642,10.543,7.2,22.012,7.2,34.011h8.95c0-11.901-2.164-23.349-6.157-34.031c-0.964-2.656-2.065-5.272-3.305-7.829
		c-0.866-1.889-1.81-3.738-2.833-5.547c-0.354-0.669-0.708-1.318-1.102-1.947c-2.951-5.134-6.354-9.993-10.17-14.576
		c0,0,0,0-0.02-0.02c-0.256-0.315-0.531-0.629-0.787-0.944c-5.783-6.787-12.452-12.924-19.848-18.235
		c-1.023-0.747-2.085-1.475-3.147-2.183c-5.783-3.895-12-7.298-18.55-10.15c-10.976-4.78-22.897-8.026-35.427-9.423
		c-4.583-0.511-9.246-0.767-13.966-0.767h-0.158c-6.905,0-13.652,0.57-20.222,1.652c-0.964,0.157-1.928,0.334-2.872,0.492
		c-8.321,1.574-16.327,3.974-23.88,7.082c-2.322,0.964-4.564,1.987-6.787,3.069c0,0,0-0.02-0.02,0
		c-0.256,0.118-0.394,0.236-0.629,0.354c-0.039,0.02-0.098,0.02-0.138,0.02c-20.064,9.934-36.549,25.159-47.23,43.63
		c-0.374,0.63-0.748,1.278-1.102,1.947c-0.629,1.141-1.239,2.282-1.81,3.442v0.02C1262.9,957.632,1259.162,972.504,1259.162,988.181
		z"/>
	<path style="fill:#CE3932;" d="M1374.473,988.174c0,0,12.448,111.349-35.229,112.873
		C1339.244,1101.047,1306.402,949.266,1374.473,988.174z"/>
	<path style="fill:#EB5648;" d="M1339.244,1101.047c0,0-27.157,38.207-68.539,0c-41.383-38.207-2.584-112.873-2.584-112.873
		s27.416-25.665,73.108,0L1339.244,1101.047z"/>
	<path style="fill:#F99370;" d="M1429.433,886.799c24.907-16.757,54.574-5.225,54.574-5.225l-17.779,42.674
		c0,0-8.331-4.705-10.685,3.214c-1.372,4.616-11.244,4.379-9.551-3.819c-4.891,4.743-10.879-1.418-8.965-7.007
		c-2.579,4.85-10.519,2.414-9.879-3.084C1412.138,916.349,1419.973,893.164,1429.433,886.799z"/>
	<path style="fill:#F99370;" d="M1367.511,873.327c-16.991-14.038-36.879-8.253-36.879-8.253l-11.209,29.569
		c7.143,0.929,10.698,2.849,11.608,8.974c1.379,9.285,12.427,9.948,12.386,0.944c4.407,6.155,12.511,1.145,11.631-5.177
		c1.792,5.708,11.241,5.075,11.768-0.844C1383.003,905.103,1377.439,881.529,1367.511,873.327z"/>
	<path style="fill:#F99370;" d="M1440.22,590.166l2.224,16.022c0,0,2.117,13.359,19.099,13.002
		c16.982-0.356,30.513-17.806,30.513-17.806s-3.214-15.178-3.828-22.298L1440.22,590.166z"/>
	<path style="fill:#E57D61;" d="M1486.996,528.434c-0.014,0.36-0.013,0.732-0.042,1.094c-0.026,0.505-0.067,0.997-0.123,1.49
		c-1.219-0.614-0.728,30.417,1.896,52.668c-19.773,12-43.579,10.598-47.95,10.231c-3.737-23.409-3.554-53.001-2.948-64.133
		c0.26-2.624,0.491-4.17,0.525-4.49c0.087-0.712,0.204-1.414,0.351-2.105c1.498-7.256,6.15-13.183,12.315-16.511
		c0.014-0.002,0.014-0.002,0.014-0.002c4.281-2.301,9.272-3.341,14.46-2.727c5.131,0.62,9.702,2.783,13.292,5.98
		c0.158,0.124,0.304,0.264,0.448,0.391C1484.105,514.881,1487.087,521.388,1486.996,528.434z"/>
	<path style="fill:#C92828;" d="M1398.675,482.189c0,0-15.367-36.945,15.623-56.894l24.879,11.283L1398.675,482.189z"/>
	<path style="fill:#F99370;" d="M1514.228,497.339c1.311,22.261-0.563,48.097-14.38,66.085l-0.028,0.006
		c-5.63,7.259-13.124,12.686-21.612,16.414c-47.034,25.166-118.798-20.066-89.041-71.236c11.543-16.882,8.813-39.183,17.604-55.917
		c11.185-27.623,47.687-34.43,71.589-19.238C1499.963,447.19,1511.415,470.192,1514.228,497.339z"/>
	<path style="fill:#F9F8F3;" d="M1416.369,545.195l24.983-20.658c0,0,5.091,14.998-5.133,21.646
		C1426.448,552.536,1416.369,545.195,1416.369,545.195z"/>
	<path style="fill:#C16256;" d="M1429.268,502.304c-1.17-1.421-0.966-3.521,0.455-4.691c1.421-1.17,3.521-0.966,4.691,0.455
		c1.17,1.421,0.966,3.521-0.455,4.691C1432.538,503.929,1430.438,503.725,1429.268,502.304z"/>
	<path style="fill:#C16256;" d="M1400.896,503.782c-1.17-1.421-0.966-3.521,0.455-4.691c1.421-1.17,3.521-0.966,4.691,0.455
		c1.17,1.421,0.966,3.521-0.455,4.691C1404.166,505.407,1402.066,505.203,1400.896,503.782z"/>
	<path style="fill:#E57D61;" d="M1514.228,497.339c0.156,1.823,0.281,3.638,0.34,5.482c0.066,1.682,0.083,3.404,0.073,5.132
		c-0.006,0.235-0.019,0.443,0,0.658c-0.037,1.807-0.087,3.559-0.129,5.279c-0.065,1.155-0.116,2.307-0.201,3.438
		c-0.082,1.276-0.181,2.541-0.301,3.782c-0.373,4.441-0.928,8.66-1.689,12.675c-0.514,2.688-1.12,5.295-1.809,7.788
		c-2.376,8.396-5.846,15.69-10.664,21.85l-0.028,0.006c-1.147,1.483-2.383,2.899-3.697,4.229
		c10.072-15.693,11.447-44.855,11.447-44.855l-8.213-22.615c-25.545-16.497-21.849-42.255-21.849-42.255
		c-32.698,17.531-49.229-1.378-49.229-1.378c-10.709,3.871-23.54,0.886-23.54,0.886c0.629-1.646,1.315-3.232,2.031-4.751
		c1.753-3.695,3.749-7.02,6.006-9.963c2.038-2.676,4.279-5.031,6.748-7.086c1.651-1.391,3.409-2.629,5.256-3.727
		c0.169-0.096,0.349-0.209,0.531-0.308c4.273-2.426,9.068-4.15,14.431-5.092c3.641-0.663,7.525-0.955,11.687-0.915
		c9.648,0.109,18.778,2.892,26.93,7.853c0.324,0.206,0.63,0.401,0.965,0.59c5.874,3.726,11.219,8.564,15.886,14.299
		C1505.541,461.067,1512.505,478.197,1514.228,497.339z"/>
	<path style="fill:#C16256;" d="M1416.369,546.456c-0.363,0-0.723-0.156-0.973-0.457c-0.443-0.537-0.368-1.332,0.168-1.776
		l24.983-20.657c0.537-0.444,1.332-0.369,1.776,0.168c0.443,0.537,0.368,1.332-0.168,1.776l-24.983,20.657
		C1416.937,546.362,1416.652,546.456,1416.369,546.456z"/>
	<path style="fill:#C16256;" d="M1413.886,530.169c-3.243,0-6.299-0.914-7.536-2.64c-0.558-0.778-1.538-2.865,1.407-5.423
		c5.403-4.691,7.093-18.437,7.109-18.576c0.082-0.691,0.714-1.182,1.401-1.104c0.691,0.082,1.186,0.709,1.104,1.401
		c-0.071,0.604-1.821,14.853-7.96,20.183c-0.697,0.606-1.438,1.453-1.01,2.049c1.211,1.689,7.517,2.461,11.35,0.222
		c0.6-0.35,1.374-0.148,1.725,0.453c0.352,0.601,0.149,1.374-0.453,1.725C1419.044,529.615,1416.408,530.169,1413.886,530.169z"/>
	<path style="fill:#C92828;" d="M1516.684,467.601c18.338-58.34-38.527-56.492-38.527-56.492l-0.028,0.116
		c-3.301-2.799-7.443-5.143-12.645-6.666c-27.557-8.068-32.933-18.823-32.933-18.823s-4.192,15.03-0.019,29.851
		c-7.026-5.052-13.713-10.816-19.397-17.323c0,0-6.253,8.772-5.269,21.25c-19.039,0.024-33.361,10.857-33.361,10.857
		c14.87,23.787,37.313,25.132,54.247,21.678c21.121,14.269,47.681,5.493,60.813-6.987l0.032,0.026
		c-4.492,4.693-15.922,21.31,11.803,49.435l18.874,9.675C1520.273,504.198,1521.692,484.513,1516.684,467.601z"/>
	<path style="fill:#D1A68F;" d="M1662.705,719.224c-2.129,0.134-57.755,7.681-72.541,53.564c0,0-7.364-5.437-17.068-14.604
		c0,0,17.02-54.753,75.053-59.519c0.7,0.93,1.41,1.86,2.109,2.81C1654.458,707.123,1658.61,713.039,1662.705,719.224z"/>
	
		<ellipse transform="matrix(0.9999 -0.0103 0.0103 0.9999 -5.1284 15.6387)" style="fill:#F99370;" cx="1514.559" cy="505.325" rx="15.737" ry="19.559"/>
	<path style="fill:#C16256;" d="M1523.392,511.963c-0.033,0-0.066-0.001-0.099-0.004c-0.695-0.054-1.214-0.661-1.16-1.355
		c0.603-7.744-0.584-12.716-3.433-14.378c-3.152-1.84-8.093,0.619-9.731,1.721c-0.578,0.389-1.361,0.235-1.75-0.343
		c-0.389-0.578-0.235-1.361,0.343-1.75c0.294-0.198,7.26-4.813,12.41-1.807c3.795,2.214,5.369,7.85,4.676,16.751
		C1524.596,511.46,1524.043,511.963,1523.392,511.963z"/>
	<path style="fill:#C16256;" d="M1511.518,512.794c-0.077,0-0.155-0.007-0.233-0.021c-0.684-0.128-1.135-0.785-1.009-1.469
		c0.086-0.464,2.215-11.404,11.487-14.117c0.67-0.194,1.369,0.188,1.564,0.856c0.196,0.668-0.188,1.369-0.856,1.564
		c-7.77,2.274-9.696,12.059-9.715,12.158C1512.642,512.372,1512.112,512.794,1511.518,512.794z"/>
	<path style="fill:#C16256;" d="M1441.352,491.011c-0.379,0-0.759-0.143-1.051-0.43c-6.537-6.422-15.389-3.952-15.763-3.843
		c-0.797,0.229-1.627-0.226-1.859-1.02c-0.232-0.794,0.221-1.625,1.014-1.859c0.441-0.13,10.895-3.097,18.71,4.582
		c0.591,0.581,0.599,1.53,0.019,2.121C1442.128,490.861,1441.74,491.011,1441.352,491.011z"/>
	<path style="fill:#C16256;" d="M1399.225,489.604c-0.417,0-0.832-0.172-1.127-0.51c-0.546-0.622-0.486-1.566,0.134-2.113
		c0.31-0.272,7.667-6.628,15.931-2.379c0.737,0.379,1.027,1.283,0.648,2.02c-0.379,0.736-1.281,1.026-2.02,0.648
		c-6.423-3.303-12.329,1.748-12.578,1.964C1399.928,489.482,1399.576,489.604,1399.225,489.604z"/>
</g>
</svg>
